<?xml version="1.0" encoding="UTF-8" standalone="no"?>
<svg width="513.997mm" height="25.4mm"
 xmlns="http://www.w3.org/2000/svg" xmlns:xlink="http://www.w3.org/1999/xlink"  version="1.2" baseProfile="tiny">
<title>Qt SVG Document</title>
<desc>Generated with Qt</desc>
<defs>
</defs>
<g fill="none" stroke="black" stroke-width="1" fill-rule="evenodd" stroke-linecap="square" stroke-linejoin="bevel" >

<g fill="none" stroke="#000000" stroke-opacity="1" stroke-width="1" stroke-linecap="square" stroke-linejoin="bevel" transform="matrix(1,0,0,1,0,0)"
font-family="Ubuntu" font-size="11" font-weight="400" font-style="normal" 
>
</g>

<g fill="none" stroke="#000000" stroke-opacity="1" stroke-width="1" stroke-linecap="square" stroke-linejoin="bevel" transform="matrix(1,0,0,1,0,0)"
font-family="Ubuntu" font-size="11" font-weight="400" font-style="normal" 
>
</g>

<g fill="none" stroke="#000000" stroke-opacity="1" stroke-width="1" stroke-linecap="square" stroke-linejoin="bevel" transform="matrix(1.9996,0,0,1.9996,-0.00719855,71.9855)"
font-family="Ubuntu" font-size="11" font-weight="400" font-style="normal" 
>
</g>

<g fill="#ffffff" fill-opacity="1" stroke="none" transform="matrix(1.9996,0,0,1.9996,-0.00719855,71.9855)"
font-family="Ubuntu" font-size="11" font-weight="400" font-style="normal" 
>
<rect x="0.0036" y="-36" width="728.646" height="36"/>
</g>

<g fill="none" stroke="#000000" stroke-opacity="1" stroke-width="1" stroke-linecap="square" stroke-linejoin="bevel" transform="matrix(1.9996,0,0,1.9996,-0.00719855,71.9855)"
font-family="Ubuntu" font-size="11" font-weight="400" font-style="normal" 
>
</g>

<g fill="none" stroke="#000000" stroke-opacity="1" stroke-width="1" stroke-linecap="square" stroke-linejoin="bevel" transform="matrix(1.9996,0,0,1.9996,-0.00719855,71.9855)"
font-family="Ubuntu" font-size="11" font-weight="400" font-style="normal" 
>
</g>

<g fill="none" stroke="#000000" stroke-opacity="1" stroke-width="1" stroke-linecap="square" stroke-linejoin="bevel" transform="matrix(1.9996,0,0,1.9996,-0.00719855,71.9855)"
font-family="Ubuntu" font-size="11" font-weight="400" font-style="normal" 
>
</g>

<g fill="none" stroke="#000000" stroke-opacity="1" stroke-width="1" stroke-linecap="square" stroke-linejoin="bevel" transform="matrix(1.9996,0,0,1.9996,-0.00719855,71.9855)"
font-family="Ubuntu" font-size="11" font-weight="400" font-style="normal" 
>
</g>

<g fill="none" stroke="#000000" stroke-opacity="1" stroke-width="1" stroke-linecap="square" stroke-linejoin="round" transform="matrix(1.9996,0,0,1.9996,-0.00719855,71.9855)"
font-family="Ubuntu" font-size="11" font-weight="400" font-style="normal" 
>
<rect x="301.769" y="-35.5" width="74.0024" height="35"/>
</g>

<g fill="none" stroke="#000000" stroke-opacity="1" stroke-width="1" stroke-linecap="square" stroke-linejoin="bevel" transform="matrix(1.9996,0,0,1.9996,-0.00719855,71.9855)"
font-family="Ubuntu" font-size="11" font-weight="400" font-style="normal" 
>
</g>

<g fill="none" stroke="#000000" stroke-opacity="1" stroke-width="1" stroke-linecap="square" stroke-linejoin="bevel" transform="matrix(1.9996,0,0,1.9996,618.862,22.9954)"
font-family="Ubuntu" font-size="11" font-weight="400" font-style="normal" 
>
</g>

<g fill="none" stroke="#000000" stroke-opacity="1" stroke-width="1" stroke-linecap="square" stroke-linejoin="bevel" transform="matrix(1.9996,0,0,1.9996,618.862,22.9954)"
font-family="sans" font-size="11" font-weight="100" font-style="normal" 
>
</g>

<g fill="#000000" fill-opacity="1" stroke="#000000" stroke-opacity="1" stroke-width="1" stroke-linecap="square" stroke-linejoin="round" transform="matrix(1.9996,0,0,1.9996,618.862,22.9954)"
font-family="sans" font-size="11" font-weight="100" font-style="normal" 
>
<path vector-effect="none" fill-rule="nonzero" d="M2.96875,1.98438 L3.53125,1.98438 L0.734375,11.0156 L0.171875,11.0156 L2.96875,1.98438 M9.0625,4.28125 L9.0625,4.79688 C8.77083,4.61979 8.52604,4.5 8.32813,4.4375 C7.99479,4.33333 7.67708,4.28125 7.375,4.28125 C6.51042,4.28125 5.89063,4.5026 5.51563,4.94531 C5.14063,5.38802 4.95313,6.07292 4.95313,7 C4.95313,7.9375 5.14063,8.6276 5.51563,9.07031 C5.89063,9.51302 6.51042,9.73438 7.375,9.73438 C7.66667,9.73438 7.94792,9.69271 8.21875,9.60938 C8.51042,9.53646 8.79167,9.42188 9.0625,9.26563 L9.0625,9.76563 C8.79167,9.90104 8.51042,10 8.21875,10.0625 C7.91667,10.125 7.61979,10.1563 7.32813,10.1563 C6.45313,10.1563 5.75521,9.91667 5.23438,9.4375 C4.71354,8.95833 4.45313,8.14323 4.45313,6.99219 C4.45313,5.84115 4.71354,5.02604 5.23438,4.54688 C5.75521,4.07813 6.45313,3.84375 7.32813,3.84375 C7.61979,3.84375 7.92708,3.88542 8.25,3.96875 C8.57292,4.04167 8.84375,4.14583 9.0625,4.28125 M14.5781,5.01563 C14.224,4.52604 13.7396,4.28125 13.125,4.28125 C12.5104,4.28125 12.026,4.52604 11.6719,5.01563 C11.3177,5.49479 11.1406,6.15104 11.1406,6.98438 C11.1406,7.83854 11.3177,8.51042 11.6719,9 C12.026,9.48958 12.5104,9.73438 13.125,9.73438 C13.7396,9.73438 14.224,9.48958 14.5781,9 C14.9323,8.5 15.1094,7.82813 15.1094,6.98438 C15.1094,6.16146 14.9323,5.50521 14.5781,5.01563 M13.125,3.84375 C13.8854,3.84375 14.4896,4.13021 14.9375,4.70313 C15.3854,5.27604 15.6094,6.03646 15.6094,6.98438 C15.6094,7.97396 15.3854,8.75521 14.9375,9.32813 C14.4896,9.90104 13.8854,10.1875 13.125,10.1875 C12.3438,10.1875 11.7292,9.90104 11.2813,9.32813 C10.8438,8.75521 10.625,7.97396 10.625,6.98438 C10.625,6.02604 10.849,5.26302 11.2969,4.69531 C11.7448,4.1276 12.3542,3.84375 13.125,3.84375 M22.0469,5.29688 C22.2344,4.80729 22.526,4.44271 22.9219,4.20313 C23.3073,3.96354 23.7604,3.84375 24.2813,3.84375 C24.8021,3.84375 25.2188,4.02604 25.5313,4.39063 C25.8542,4.75521 26.0156,5.41667 26.0156,6.375 L26.0156,10 L25.5313,10 L25.5313,6.40625 C25.5313,5.57292 25.4167,5.01042 25.1875,4.71875 C24.9583,4.42708 24.651,4.28125 24.2656,4.28125 C23.7135,4.28125 23.2292,4.44792 22.8125,4.78125 C22.3438,5.15625 22.1094,5.76042 22.1094,6.59375 L22.1094,10 L21.625,10 L21.625,6.40625 C21.625,5.60417 21.513,5.04948 21.2891,4.74219 C21.0651,4.4349 20.7552,4.28125 20.3594,4.28125 C19.8073,4.28125 19.3229,4.45313 18.9063,4.79688 C18.4375,5.16146 18.2031,5.76042 18.2031,6.59375 L18.2031,10 L17.7188,10 L17.7188,3.98438 L18.2031,3.98438 L18.2031,5.10938 C18.3802,4.71354 18.6563,4.40104 19.0313,4.17188 C19.3958,3.95313 19.849,3.84375 20.3906,3.84375 C20.7448,3.84375 21.0833,3.95833 21.4063,4.1875 C21.6563,4.375 21.8698,4.74479 22.0469,5.29688 M32.75,5.29688 C32.9375,4.80729 33.2292,4.44271 33.625,4.20313 C34.0104,3.96354 34.4635,3.84375 34.9844,3.84375 C35.5052,3.84375 35.9219,4.02604 36.2344,4.39063 C36.5573,4.75521 36.7188,5.41667 36.7188,6.375 L36.7188,10 L36.2344,10 L36.2344,6.40625 C36.2344,5.57292 36.1198,5.01042 35.8906,4.71875 C35.6615,4.42708 35.3542,4.28125 34.9688,4.28125 C34.4167,4.28125 33.9323,4.44792 33.5156,4.78125 C33.0469,5.15625 32.8125,5.76042 32.8125,6.59375 L32.8125,10 L32.3281,10 L32.3281,6.40625 C32.3281,5.60417 32.2161,5.04948 31.9922,4.74219 C31.7682,4.4349 31.4583,4.28125 31.0625,4.28125 C30.5104,4.28125 30.026,4.45313 29.6094,4.79688 C29.1406,5.16146 28.9063,5.76042 28.9063,6.59375 L28.9063,10 L28.4219,10 L28.4219,3.98438 L28.9063,3.98438 L28.9063,5.10938 C29.0833,4.71354 29.3594,4.40104 29.7344,4.17188 C30.099,3.95313 30.5521,3.84375 31.0938,3.84375 C31.4479,3.84375 31.7865,3.95833 32.1094,4.1875 C32.3594,4.375 32.5729,4.74479 32.75,5.29688 M41.5313,6.60938 C40.7292,6.60938 40.1536,6.75 39.8047,7.03125 C39.4557,7.3125 39.2813,7.72396 39.2813,8.26563 C39.2813,8.79688 39.4271,9.17448 39.7188,9.39844 C40.0104,9.6224 40.3542,9.73438 40.75,9.73438 C41.5,9.73438 42.0417,9.41667 42.375,8.78125 C42.7083,8.13542 42.875,7.53125 42.875,6.96875 L42.875,6.60938 L41.5313,6.60938 M43.375,6.5625 L43.375,10 L42.875,10 L42.875,8.35938 C42.6042,9.16146 42.2396,9.67188 41.7813,9.89063 C41.4271,10.0677 41.0677,10.1563 40.7031,10.1563 C40.1094,10.1563 39.6406,9.99479 39.2969,9.67188 C38.9531,9.34896 38.7813,8.8776 38.7813,8.25781 C38.7813,7.63802 39.0052,7.14063 39.4531,6.76563 C39.901,6.39063 40.6302,6.20313 41.6406,6.20313 L42.875,6.20313 L42.875,6.10938 C42.875,5.57813 42.7188,5.14063 42.4063,4.79688 C42.1146,4.45313 41.6198,4.28125 40.9219,4.28125 C40.5781,4.28125 40.2292,4.34375 39.875,4.46875 C39.6458,4.55208 39.3438,4.71875 38.9688,4.96875 L38.9688,4.4375 C39.2917,4.23958 39.5938,4.09896 39.875,4.01563 C40.2708,3.90104 40.651,3.84375 41.0156,3.84375 C41.7344,3.84375 42.3229,4.05729 42.7813,4.48438 C43.1771,4.84896 43.375,5.54167 43.375,6.5625 M50.4063,6.375 L50.4063,10 L49.9063,10 L49.9063,6.40625 C49.9063,5.625 49.7813,5.07552 49.5313,4.75781 C49.2813,4.4401 48.9115,4.28125 48.4219,4.28125 C47.849,4.28125 47.3646,4.45313 46.9688,4.79688 C46.5521,5.14063 46.3438,5.73958 46.3438,6.59375 L46.3438,10 L45.8594,10 L45.8594,3.98438 L46.3438,3.98438 L46.3438,5.10938 C46.5208,4.74479 46.7552,4.46875 47.0469,4.28125 C47.4635,3.98958 47.9271,3.84375 48.4375,3.84375 C49.0417,3.84375 49.5208,4.04688 49.875,4.45313 C50.2292,4.84896 50.4063,5.48958 50.4063,6.375 M56.8281,5.35938 L56.8281,1.64063 L57.2969,1.64063 L57.2969,10 L56.8281,10 L56.8281,8.64063 C56.599,9.16146 56.349,9.51563 56.0781,9.70313 C55.6823,10.0052 55.3021,10.1563 54.9375,10.1563 C54.2292,10.1563 53.638,9.86719 53.1641,9.28906 C52.6901,8.71094 52.4531,7.94792 52.4531,7 C52.4531,6.05208 52.6901,5.28906 53.1641,4.71094 C53.638,4.13281 54.2292,3.84375 54.9375,3.84375 C55.3021,3.84375 55.6823,3.98958 56.0781,4.28125 C56.349,4.47917 56.599,4.83854 56.8281,5.35938 M53.5938,4.90625 C53.1771,5.32292 52.9688,6.02083 52.9688,7 C52.9688,7.97917 53.1771,8.67708 53.5938,9.09375 C54.0104,9.51042 54.4479,9.71875 54.9063,9.71875 C55.3542,9.71875 55.7865,9.51042 56.2031,9.09375 C56.6094,8.67708 56.8125,7.97917 56.8125,7 C56.8125,6.02083 56.6094,5.32292 56.2031,4.90625 C55.7865,4.48958 55.3542,4.28125 54.9063,4.28125 C54.4479,4.28125 54.0104,4.48958 53.5938,4.90625 "/>
</g>

<g fill="none" stroke="#000000" stroke-opacity="1" stroke-width="1" stroke-linecap="square" stroke-linejoin="bevel" transform="matrix(1.9996,0,0,1.9996,618.862,22.9954)"
font-family="sans" font-size="11" font-weight="100" font-style="normal" 
>
</g>

<g fill="none" stroke="#000000" stroke-opacity="1" stroke-width="1" stroke-linecap="square" stroke-linejoin="bevel" transform="matrix(1.9996,0,0,1.9996,618.862,22.9954)"
font-family="Ubuntu" font-size="11" font-weight="400" font-style="normal" 
>
</g>

<g fill="none" stroke="#000000" stroke-opacity="1" stroke-width="1" stroke-linecap="square" stroke-linejoin="bevel" transform="matrix(1.9996,0,0,1.9996,-0.00719855,71.9855)"
font-family="Ubuntu" font-size="11" font-weight="400" font-style="normal" 
>
</g>

<g fill="none" stroke="#000000" stroke-opacity="1" stroke-width="1" stroke-linecap="square" stroke-linejoin="bevel" transform="matrix(1.9996,0,0,1.9996,-0.00719855,71.9855)"
font-family="Ubuntu" font-size="11" font-weight="400" font-style="normal" 
>
</g>

<g fill="none" stroke="#000000" stroke-opacity="1" stroke-width="1" stroke-linecap="square" stroke-linejoin="bevel" transform="matrix(1.9996,0,0,1.9996,-0.00719855,71.9855)"
font-family="Ubuntu" font-size="11" font-weight="400" font-style="normal" 
>
</g>

<g fill="none" stroke="#000000" stroke-opacity="1" stroke-width="1" stroke-linecap="square" stroke-linejoin="round" transform="matrix(1.9996,0,0,1.9996,-0.00719855,71.9855)"
font-family="Ubuntu" font-size="11" font-weight="400" font-style="normal" 
>
<ellipse cx="525.46" cy="-18" rx="134.687" ry="17.5"/>
</g>

<g fill="none" stroke="#000000" stroke-opacity="1" stroke-width="1" stroke-linecap="square" stroke-linejoin="bevel" transform="matrix(1.9996,0,0,1.9996,-0.00719855,71.9855)"
font-family="Ubuntu" font-size="11" font-weight="400" font-style="normal" 
>
</g>

<g fill="none" stroke="#000000" stroke-opacity="1" stroke-width="1" stroke-linecap="square" stroke-linejoin="bevel" transform="matrix(1.9996,0,0,1.9996,857.897,22.9954)"
font-family="Ubuntu" font-size="11" font-weight="400" font-style="normal" 
>
</g>

<g fill="none" stroke="#000000" stroke-opacity="1" stroke-width="1" stroke-linecap="square" stroke-linejoin="bevel" transform="matrix(1.9996,0,0,1.9996,857.897,22.9954)"
font-family="sans" font-size="11" font-weight="100" font-style="normal" 
>
</g>

<g fill="#000000" fill-opacity="1" stroke="#000000" stroke-opacity="1" stroke-width="1" stroke-linecap="square" stroke-linejoin="round" transform="matrix(1.9996,0,0,1.9996,857.897,22.9954)"
font-family="sans" font-size="11" font-weight="100" font-style="normal" 
>
<path vector-effect="none" fill-rule="nonzero" d="M2.96875,1.98438 L3.53125,1.98438 L0.734375,11.0156 L0.171875,11.0156 L2.96875,1.98438 M9.0625,4.28125 L9.0625,4.79688 C8.77083,4.61979 8.52604,4.5 8.32813,4.4375 C7.99479,4.33333 7.67708,4.28125 7.375,4.28125 C6.51042,4.28125 5.89063,4.5026 5.51563,4.94531 C5.14063,5.38802 4.95313,6.07292 4.95313,7 C4.95313,7.9375 5.14063,8.6276 5.51563,9.07031 C5.89063,9.51302 6.51042,9.73438 7.375,9.73438 C7.66667,9.73438 7.94792,9.69271 8.21875,9.60938 C8.51042,9.53646 8.79167,9.42188 9.0625,9.26563 L9.0625,9.76563 C8.79167,9.90104 8.51042,10 8.21875,10.0625 C7.91667,10.125 7.61979,10.1563 7.32813,10.1563 C6.45313,10.1563 5.75521,9.91667 5.23438,9.4375 C4.71354,8.95833 4.45313,8.14323 4.45313,6.99219 C4.45313,5.84115 4.71354,5.02604 5.23438,4.54688 C5.75521,4.07813 6.45313,3.84375 7.32813,3.84375 C7.61979,3.84375 7.92708,3.88542 8.25,3.96875 C8.57292,4.04167 8.84375,4.14583 9.0625,4.28125 M14.5781,5.01563 C14.224,4.52604 13.7396,4.28125 13.125,4.28125 C12.5104,4.28125 12.026,4.52604 11.6719,5.01563 C11.3177,5.49479 11.1406,6.15104 11.1406,6.98438 C11.1406,7.83854 11.3177,8.51042 11.6719,9 C12.026,9.48958 12.5104,9.73438 13.125,9.73438 C13.7396,9.73438 14.224,9.48958 14.5781,9 C14.9323,8.5 15.1094,7.82813 15.1094,6.98438 C15.1094,6.16146 14.9323,5.50521 14.5781,5.01563 M13.125,3.84375 C13.8854,3.84375 14.4896,4.13021 14.9375,4.70313 C15.3854,5.27604 15.6094,6.03646 15.6094,6.98438 C15.6094,7.97396 15.3854,8.75521 14.9375,9.32813 C14.4896,9.90104 13.8854,10.1875 13.125,10.1875 C12.3438,10.1875 11.7292,9.90104 11.2813,9.32813 C10.8438,8.75521 10.625,7.97396 10.625,6.98438 C10.625,6.02604 10.849,5.26302 11.2969,4.69531 C11.7448,4.1276 12.3542,3.84375 13.125,3.84375 M22.2656,6.375 L22.2656,10 L21.7656,10 L21.7656,6.40625 C21.7656,5.625 21.6406,5.07552 21.3906,4.75781 C21.1406,4.4401 20.7708,4.28125 20.2813,4.28125 C19.7083,4.28125 19.224,4.45313 18.8281,4.79688 C18.4115,5.14063 18.2031,5.73958 18.2031,6.59375 L18.2031,10 L17.7188,10 L17.7188,3.98438 L18.2031,3.98438 L18.2031,5.10938 C18.3802,4.74479 18.6146,4.46875 18.9063,4.28125 C19.3229,3.98958 19.7865,3.84375 20.2969,3.84375 C20.901,3.84375 21.3802,4.04688 21.7344,4.45313 C22.0885,4.84896 22.2656,5.48958 22.2656,6.375 M25.2031,2.28125 L25.2031,3.98438 L27.2344,3.98438 L27.2344,4.40625 L25.2031,4.40625 L25.2031,8.01563 C25.2031,8.47396 25.2604,8.79688 25.375,8.98438 C25.625,9.38021 25.9844,9.57813 26.4531,9.57813 L27.2344,9.57813 L27.2344,10 L26.4688,10 C25.9792,10 25.5625,9.85677 25.2188,9.57031 C24.875,9.28385 24.7031,8.76563 24.7031,8.01563 L24.7031,4.40625 L23.9844,4.40625 L23.9844,3.98438 L24.7031,3.98438 L24.7031,2.28125 L25.2031,2.28125 M32.2656,4.40625 C32.1823,4.36458 32.0729,4.33333 31.9375,4.3125 C31.8125,4.29167 31.6615,4.28125 31.4844,4.28125 C30.8698,4.28125 30.3646,4.50521 29.9688,4.95313 C29.6458,5.31771 29.4844,5.94271 29.4844,6.82813 L29.4844,10 L29,10 L29,3.98438 L29.4844,3.98438 L29.4844,5.10938 C29.651,4.78646 29.8802,4.51563 30.1719,4.29688 C30.5677,3.99479 31.0365,3.84375 31.5781,3.84375 C31.724,3.84375 31.849,3.84896 31.9531,3.85938 C32.0573,3.85938 32.1615,3.86979 32.2656,3.89063 L32.2656,4.40625 M36.8594,5.01563 C36.5052,4.52604 36.0208,4.28125 35.4063,4.28125 C34.7917,4.28125 34.3073,4.52604 33.9531,5.01563 C33.599,5.49479 33.4219,6.15104 33.4219,6.98438 C33.4219,7.83854 33.599,8.51042 33.9531,9 C34.3073,9.48958 34.7917,9.73438 35.4063,9.73438 C36.0208,9.73438 36.5052,9.48958 36.8594,9 C37.2135,8.5 37.3906,7.82813 37.3906,6.98438 C37.3906,6.16146 37.2135,5.50521 36.8594,5.01563 M35.4063,3.84375 C36.1667,3.84375 36.7708,4.13021 37.2188,4.70313 C37.6667,5.27604 37.8906,6.03646 37.8906,6.98438 C37.8906,7.97396 37.6667,8.75521 37.2188,9.32813 C36.7708,9.90104 36.1667,10.1875 35.4063,10.1875 C34.625,10.1875 34.0104,9.90104 33.5625,9.32813 C33.125,8.75521 32.9063,7.97396 32.9063,6.98438 C32.9063,6.02604 33.1302,5.26302 33.5781,4.69531 C34.026,4.1276 34.6354,3.84375 35.4063,3.84375 M40,1.64063 L40.4844,1.64063 L40.4844,10 L40,10 L40,1.64063 M43.0469,1.64063 L43.5313,1.64063 L43.5313,10 L43.0469,10 L43.0469,1.64063 M50.7813,6.75 L50.7813,7.0625 L46.2188,7.0625 C46.2188,8.02083 46.4063,8.69792 46.7813,9.09375 C47.1979,9.52083 47.8125,9.73438 48.625,9.73438 C48.8438,9.73438 49.1302,9.6875 49.4844,9.59375 C49.8385,9.5 50.1927,9.35938 50.5469,9.17188 L50.5469,9.6875 C50.1927,9.84375 49.8307,9.96094 49.4609,10.0391 C49.0911,10.1172 48.7969,10.1563 48.5781,10.1563 C47.651,10.1563 46.9531,9.90625 46.4844,9.40625 C45.974,8.875 45.7188,8.09375 45.7188,7.0625 C45.7188,5.98958 45.9479,5.1875 46.4063,4.65625 C46.8854,4.11458 47.5521,3.84375 48.4063,3.84375 C49.1875,3.84375 49.7813,4.10417 50.1875,4.625 C50.5833,5.16667 50.7813,5.875 50.7813,6.75 M50.2813,6.64063 C50.2813,5.79688 50.0885,5.18229 49.7031,4.79688 C49.3906,4.45313 48.9583,4.28125 48.4063,4.28125 C47.8125,4.28125 47.3125,4.45833 46.9063,4.8125 C46.5313,5.14583 46.3073,5.75521 46.2344,6.64063 L50.2813,6.64063 M56.125,4.40625 C56.0417,4.36458 55.9323,4.33333 55.7969,4.3125 C55.6719,4.29167 55.5208,4.28125 55.3438,4.28125 C54.7292,4.28125 54.224,4.50521 53.8281,4.95313 C53.5052,5.31771 53.3438,5.94271 53.3438,6.82813 L53.3438,10 L52.8594,10 L52.8594,3.98438 L53.3438,3.98438 L53.3438,5.10938 C53.5104,4.78646 53.7396,4.51563 54.0313,4.29688 C54.4271,3.99479 54.8958,3.84375 55.4375,3.84375 C55.5833,3.84375 55.7083,3.84896 55.8125,3.85938 C55.9167,3.85938 56.0208,3.86979 56.125,3.89063 L56.125,4.40625 M61.7344,12.1719 L61.7344,12.5938 L56.0156,12.5938 L56.0156,12.1719 L61.7344,12.1719 M62.9531,9.5625 L67.5156,9.5625 L67.5156,10 L62.3906,10 L62.3906,9.4375 L64.3906,7.35938 C64.8802,6.85938 65.3281,6.39583 65.7344,5.96875 C66.099,5.57292 66.3438,5.26563 66.4688,5.04688 C66.5938,4.82813 66.6563,4.53646 66.6563,4.17188 C66.6563,3.55729 66.4688,3.0625 66.0938,2.6875 C65.8229,2.41667 65.3802,2.28125 64.7656,2.28125 C64.401,2.28125 63.9896,2.38542 63.5313,2.59375 C63.3229,2.6875 62.974,2.89063 62.4844,3.20313 L62.4844,2.64063 C62.6927,2.49479 62.9948,2.32813 63.3906,2.14063 C63.849,1.94271 64.3021,1.83854 64.75,1.82813 C65.4375,1.82813 66.0156,2.01042 66.4844,2.375 C66.9427,2.72917 67.1719,3.3125 67.1719,4.125 C67.1719,4.45833 67.1094,4.77083 66.9844,5.0625 C66.8385,5.40625 66.6146,5.75521 66.3125,6.10938 C66.2188,6.21354 65.9323,6.51042 65.4531,7 L62.9531,9.5625 M69.5156,1.98438 L74.3906,1.98438 L74.3906,2.4375 L71.4844,10 L70.9063,10 L73.8281,2.42188 L69.5156,2.42188 L69.5156,1.98438 M77.2344,9.5625 L79,9.5625 L79,2.46875 L76.7969,3.35938 L76.7969,2.85938 L78.9844,1.98438 L79.5313,1.98438 L79.5313,9.5625 L81.3125,9.5625 L81.3125,10 L77.2344,10 L77.2344,9.5625 M84.2188,9.5625 L85.9844,9.5625 L85.9844,2.46875 L83.7813,3.35938 L83.7813,2.85938 L85.9688,1.98438 L86.5156,1.98438 L86.5156,9.5625 L88.2969,9.5625 L88.2969,10 L84.2188,10 L84.2188,9.5625 M90.4688,1.98438 L95.3438,1.98438 L95.3438,2.4375 L92.4375,10 L91.8594,10 L94.7813,2.42188 L90.4688,2.42188 L90.4688,1.98438 M102.156,12.1719 L102.156,12.5938 L96.4375,12.5938 L96.4375,12.1719 L102.156,12.1719 M103.688,9.5625 L105.453,9.5625 L105.453,2.46875 L103.25,3.35938 L103.25,2.85938 L105.438,1.98438 L105.984,1.98438 L105.984,9.5625 L107.766,9.5625 L107.766,10 L103.688,10 L103.688,9.5625 M110.438,1.98438 L114.234,1.98438 L114.234,2.42188 L110.969,2.42188 L110.969,5.10938 C111.135,5.04688 111.297,5 111.453,4.96875 C111.609,4.9375 111.839,4.92188 112.141,4.92188 C112.964,4.92188 113.615,5.15104 114.094,5.60938 C114.573,6.05729 114.813,6.66146 114.813,7.42188 C114.813,8.28646 114.563,8.95833 114.063,9.4375 C113.573,9.91667 112.88,10.1563 111.984,10.1563 C111.693,10.1563 111.391,10.1302 111.078,10.0781 C110.766,10.026 110.443,9.95313 110.109,9.85938 L110.109,9.3125 C110.391,9.4375 110.682,9.53646 110.984,9.60938 C111.286,9.67188 111.604,9.70313 111.938,9.70313 C112.646,9.70313 113.214,9.5 113.641,9.09375 C114.068,8.6875 114.281,8.13021 114.281,7.42188 C114.281,6.78646 114.073,6.28646 113.656,5.92188 C113.24,5.54688 112.677,5.35938 111.969,5.35938 C111.823,5.35938 111.604,5.40104 111.313,5.48438 C111.031,5.55729 110.74,5.67708 110.438,5.84375 L110.438,1.98438 M117.5,9.82813 L117.5,9.26563 C117.75,9.41146 118,9.52604 118.25,9.60938 C118.5,9.68229 118.75,9.71875 119,9.71875 C120.063,9.71875 120.807,9.19792 121.234,8.15625 C121.432,7.67708 121.521,6.86979 121.5,5.73438 C121.323,6.13021 121.094,6.4375 120.813,6.65625 C120.448,6.94792 119.99,7.09375 119.438,7.09375 C118.76,7.09375 118.198,6.85417 117.75,6.375 C117.302,5.90625 117.078,5.30208 117.078,4.5625 C117.078,3.73958 117.297,3.07813 117.734,2.57813 C118.182,2.07813 118.755,1.82813 119.453,1.82813 C120.297,1.82813 120.943,2.1875 121.391,2.90625 C121.839,3.61458 122.063,4.64583 122.063,6 C122.063,7.4375 121.786,8.48958 121.234,9.15625 C120.693,9.82292 119.958,10.1563 119.031,10.1563 C118.781,10.1563 118.531,10.1302 118.281,10.0781 C118.031,10.026 117.771,9.94271 117.5,9.82813 M118.141,6.05469 C118.474,6.44531 118.924,6.64063 119.492,6.64063 C120.06,6.64063 120.51,6.44531 120.844,6.05469 C121.177,5.66406 121.344,5.13021 121.344,4.45313 C121.344,3.77604 121.177,3.24219 120.844,2.85156 C120.51,2.46094 120.06,2.26563 119.492,2.26563 C118.924,2.26563 118.474,2.46094 118.141,2.85156 C117.807,3.24219 117.641,3.77604 117.641,4.45313 C117.641,5.13021 117.807,5.66406 118.141,6.05469 M123.906,1.98438 L128.781,1.98438 L128.781,2.4375 L125.875,10 L125.297,10 L128.219,2.42188 L123.906,2.42188 L123.906,1.98438 M134.406,2.28125 L131.078,7.4375 L134.406,7.4375 L134.406,2.28125 M133.984,1.98438 L134.953,1.98438 L134.953,7.4375 L136.109,7.4375 L136.109,7.875 L134.953,7.875 L134.953,10 L134.406,10 L134.406,7.875 L130.516,7.875 L130.516,7.3125 L133.984,1.98438 M138.609,9.5625 L140.375,9.5625 L140.375,2.46875 L138.172,3.35938 L138.172,2.85938 L140.359,1.98438 L140.906,1.98438 L140.906,9.5625 L142.688,9.5625 L142.688,10 L138.609,10 L138.609,9.5625 M148.938,5.92969 C148.604,5.53906 148.154,5.34375 147.586,5.34375 C147.018,5.34375 146.568,5.53906 146.234,5.92969 C145.901,6.32031 145.734,6.85417 145.734,7.53125 C145.734,8.20833 145.901,8.74219 146.234,9.13281 C146.568,9.52344 147.018,9.71875 147.586,9.71875 C148.154,9.71875 148.604,9.52344 148.938,9.13281 C149.271,8.74219 149.438,8.20833 149.438,7.53125 C149.438,6.85417 149.271,6.32031 148.938,5.92969 M149.594,2.15625 L149.594,2.73438 C149.344,2.57813 149.089,2.46354 148.828,2.39063 C148.578,2.30729 148.328,2.26563 148.078,2.26563 C147.016,2.26563 146.271,2.79167 145.844,3.84375 C145.646,4.3125 145.557,5.11979 145.578,6.26563 C145.755,5.86979 145.984,5.5625 146.266,5.34375 C146.63,5.05208 147.094,4.90625 147.656,4.90625 C148.323,4.90625 148.88,5.14063 149.328,5.60938 C149.776,6.08854 150,6.69271 150,7.42188 C150,8.24479 149.781,8.90625 149.344,9.40625 C148.906,9.90625 148.333,10.1563 147.625,10.1563 C146.781,10.1563 146.135,9.80208 145.688,9.09375 C145.24,8.375 145.016,7.34375 145.016,6 C145.016,4.5625 145.292,3.50521 145.844,2.82813 C146.385,2.16146 147.12,1.82813 148.047,1.82813 C148.297,1.82813 148.547,1.85938 148.797,1.92188 C149.047,1.97396 149.313,2.05208 149.594,2.15625 M155.406,5.67188 C155.833,5.77604 156.172,6.01042 156.422,6.375 C156.661,6.71875 156.781,7.15104 156.781,7.67188 C156.781,8.46354 156.555,9.07552 156.102,9.50781 C155.648,9.9401 154.922,10.1563 153.922,10.1563 C153.578,10.1563 153.229,10.1042 152.875,10 C152.521,9.89583 152.156,9.72917 151.781,9.5 L151.781,8.92188 C152.083,9.18229 152.411,9.38021 152.766,9.51563 C153.12,9.65104 153.484,9.71875 153.859,9.71875 C154.63,9.71875 155.219,9.54167 155.625,9.1875 C156.031,8.84375 156.234,8.33854 156.234,7.67188 C156.234,7.13021 156.047,6.70313 155.672,6.39063 C155.297,6.08854 154.771,5.9375 154.094,5.9375 L153.156,5.9375 L153.156,5.48438 L154.141,5.48438 C154.755,5.48438 155.229,5.35938 155.563,5.10938 C155.885,4.85938 156.047,4.5 156.047,4.03125 C156.047,3.46875 155.88,3.03646 155.547,2.73438 C155.203,2.43229 154.719,2.28125 154.094,2.28125 C153.802,2.28125 153.484,2.33333 153.141,2.4375 C152.797,2.54167 152.422,2.70313 152.016,2.92188 L152.016,2.375 C152.432,2.19792 152.818,2.06771 153.172,1.98438 C153.536,1.89063 153.875,1.83854 154.188,1.82813 C155.01,1.82813 155.62,2.01563 156.016,2.39063 C156.401,2.76563 156.594,3.27604 156.594,3.92188 C156.594,4.33854 156.49,4.70833 156.281,5.03125 C156.083,5.34375 155.792,5.55729 155.406,5.67188 M162.344,2.28125 L159.016,7.4375 L162.344,7.4375 L162.344,2.28125 M161.922,1.98438 L162.891,1.98438 L162.891,7.4375 L164.047,7.4375 L164.047,7.875 L162.891,7.875 L162.891,10 L162.344,10 L162.344,7.875 L158.453,7.875 L158.453,7.3125 L161.922,1.98438 M169.375,5.67188 C169.802,5.77604 170.141,6.01042 170.391,6.375 C170.63,6.71875 170.75,7.15104 170.75,7.67188 C170.75,8.46354 170.523,9.07552 170.07,9.50781 C169.617,9.9401 168.891,10.1563 167.891,10.1563 C167.547,10.1563 167.198,10.1042 166.844,10 C166.49,9.89583 166.125,9.72917 165.75,9.5 L165.75,8.92188 C166.052,9.18229 166.38,9.38021 166.734,9.51563 C167.089,9.65104 167.453,9.71875 167.828,9.71875 C168.599,9.71875 169.188,9.54167 169.594,9.1875 C170,8.84375 170.203,8.33854 170.203,7.67188 C170.203,7.13021 170.016,6.70313 169.641,6.39063 C169.266,6.08854 168.74,5.9375 168.063,5.9375 L167.125,5.9375 L167.125,5.48438 L168.109,5.48438 C168.724,5.48438 169.198,5.35938 169.531,5.10938 C169.854,4.85938 170.016,4.5 170.016,4.03125 C170.016,3.46875 169.849,3.03646 169.516,2.73438 C169.172,2.43229 168.688,2.28125 168.063,2.28125 C167.771,2.28125 167.453,2.33333 167.109,2.4375 C166.766,2.54167 166.391,2.70313 165.984,2.92188 L165.984,2.375 C166.401,2.19792 166.786,2.06771 167.141,1.98438 C167.505,1.89063 167.844,1.83854 168.156,1.82813 C168.979,1.82813 169.589,2.01563 169.984,2.39063 C170.37,2.76563 170.563,3.27604 170.563,3.92188 C170.563,4.33854 170.458,4.70833 170.25,5.03125 C170.052,5.34375 169.76,5.55729 169.375,5.67188 M173.219,9.5625 L177.781,9.5625 L177.781,10 L172.656,10 L172.656,9.4375 L174.656,7.35938 C175.146,6.85938 175.594,6.39583 176,5.96875 C176.365,5.57292 176.609,5.26563 176.734,5.04688 C176.859,4.82813 176.922,4.53646 176.922,4.17188 C176.922,3.55729 176.734,3.0625 176.359,2.6875 C176.089,2.41667 175.646,2.28125 175.031,2.28125 C174.667,2.28125 174.255,2.38542 173.797,2.59375 C173.589,2.6875 173.24,2.89063 172.75,3.20313 L172.75,2.64063 C172.958,2.49479 173.26,2.32813 173.656,2.14063 C174.115,1.94271 174.568,1.83854 175.016,1.82813 C175.703,1.82813 176.281,2.01042 176.75,2.375 C177.208,2.72917 177.438,3.3125 177.438,4.125 C177.438,4.45833 177.375,4.77083 177.25,5.0625 C177.104,5.40625 176.88,5.75521 176.578,6.10938 C176.484,6.21354 176.198,6.51042 175.719,7 L173.219,9.5625 M183.859,5.92969 C183.526,5.53906 183.076,5.34375 182.508,5.34375 C181.94,5.34375 181.49,5.53906 181.156,5.92969 C180.823,6.32031 180.656,6.85417 180.656,7.53125 C180.656,8.20833 180.823,8.74219 181.156,9.13281 C181.49,9.52344 181.94,9.71875 182.508,9.71875 C183.076,9.71875 183.526,9.52344 183.859,9.13281 C184.193,8.74219 184.359,8.20833 184.359,7.53125 C184.359,6.85417 184.193,6.32031 183.859,5.92969 M184.516,2.15625 L184.516,2.73438 C184.266,2.57813 184.01,2.46354 183.75,2.39063 C183.5,2.30729 183.25,2.26563 183,2.26563 C181.938,2.26563 181.193,2.79167 180.766,3.84375 C180.568,4.3125 180.479,5.11979 180.5,6.26563 C180.677,5.86979 180.906,5.5625 181.188,5.34375 C181.552,5.05208 182.016,4.90625 182.578,4.90625 C183.245,4.90625 183.802,5.14063 184.25,5.60938 C184.698,6.08854 184.922,6.69271 184.922,7.42188 C184.922,8.24479 184.703,8.90625 184.266,9.40625 C183.828,9.90625 183.255,10.1563 182.547,10.1563 C181.703,10.1563 181.057,9.80208 180.609,9.09375 C180.161,8.375 179.938,7.34375 179.938,6 C179.938,4.5625 180.214,3.50521 180.766,2.82813 C181.307,2.16146 182.042,1.82813 182.969,1.82813 C183.219,1.82813 183.469,1.85938 183.719,1.92188 C183.969,1.97396 184.234,2.05208 184.516,2.15625 M186.766,1.98438 L191.641,1.98438 L191.641,2.4375 L188.734,10 L188.156,10 L191.078,2.42188 L186.766,2.42188 L186.766,1.98438"/>
</g>

<g fill="none" stroke="#000000" stroke-opacity="1" stroke-width="1" stroke-linecap="square" stroke-linejoin="bevel" transform="matrix(1.9996,0,0,1.9996,857.897,22.9954)"
font-family="sans" font-size="11" font-weight="100" font-style="normal" 
>
</g>

<g fill="none" stroke="#000000" stroke-opacity="1" stroke-width="1" stroke-linecap="square" stroke-linejoin="bevel" transform="matrix(1.9996,0,0,1.9996,857.897,22.9954)"
font-family="Ubuntu" font-size="11" font-weight="400" font-style="normal" 
>
</g>

<g fill="none" stroke="#000000" stroke-opacity="1" stroke-width="1" stroke-linecap="square" stroke-linejoin="bevel" transform="matrix(1.9996,0,0,1.9996,-0.00719855,71.9855)"
font-family="Ubuntu" font-size="11" font-weight="400" font-style="normal" 
>
</g>

<g fill="none" stroke="#000000" stroke-opacity="1" stroke-width="1" stroke-linecap="square" stroke-linejoin="bevel" transform="matrix(1.9996,0,0,1.9996,-0.00719855,71.9855)"
font-family="Ubuntu" font-size="11" font-weight="400" font-style="normal" 
>
</g>

<g fill="none" stroke="#000000" stroke-opacity="1" stroke-width="1" stroke-linecap="square" stroke-linejoin="bevel" transform="matrix(1.9996,0,0,1.9996,-0.00719855,71.9855)"
font-family="Ubuntu" font-size="11" font-weight="400" font-style="normal" 
>
</g>

<g fill="none" stroke="#000000" stroke-opacity="1" stroke-width="1" stroke-linecap="square" stroke-linejoin="round" transform="matrix(1.9996,0,0,1.9996,-0.00719855,71.9855)"
font-family="Ubuntu" font-size="11" font-weight="400" font-style="normal" 
>
<rect x="675.15" y="-35.5" width="53" height="35"/>
</g>

<g fill="none" stroke="#000000" stroke-opacity="1" stroke-width="1" stroke-linecap="square" stroke-linejoin="bevel" transform="matrix(1.9996,0,0,1.9996,-0.00719855,71.9855)"
font-family="Ubuntu" font-size="11" font-weight="400" font-style="normal" 
>
</g>

<g fill="none" stroke="#000000" stroke-opacity="1" stroke-width="1" stroke-linecap="square" stroke-linejoin="bevel" transform="matrix(1.9996,0,0,1.9996,1365.55,22.9954)"
font-family="Ubuntu" font-size="11" font-weight="400" font-style="normal" 
>
</g>

<g fill="none" stroke="#000000" stroke-opacity="1" stroke-width="1" stroke-linecap="square" stroke-linejoin="bevel" transform="matrix(1.9996,0,0,1.9996,1365.55,22.9954)"
font-family="sans" font-size="11" font-weight="100" font-style="normal" 
>
</g>

<g fill="#000000" fill-opacity="1" stroke="#000000" stroke-opacity="1" stroke-width="1" stroke-linecap="square" stroke-linejoin="round" transform="matrix(1.9996,0,0,1.9996,1365.55,22.9954)"
font-family="sans" font-size="11" font-weight="100" font-style="normal" 
>
<path vector-effect="none" fill-rule="nonzero" d="M2.96875,1.98438 L3.53125,1.98438 L0.734375,11.0156 L0.171875,11.0156 L2.96875,1.98438 M8.35938,4.15625 L8.35938,4.70313 C8.00521,4.50521 7.78646,4.39583 7.70313,4.375 C7.45313,4.32292 7.14063,4.29167 6.76563,4.28125 C6.20313,4.28125 5.76042,4.39063 5.4375,4.60938 C5.1875,4.79688 5.0625,5.11458 5.0625,5.5625 C5.0625,5.875 5.18229,6.11458 5.42188,6.28125 C5.66146,6.46875 6.01042,6.61458 6.46875,6.71875 L6.8125,6.78125 C7.38542,6.90625 7.81771,7.08333 8.10938,7.3125 C8.45313,7.58333 8.63021,7.92708 8.64063,8.34375 C8.64063,8.90625 8.47396,9.34896 8.14063,9.67188 C7.78646,9.99479 7.20833,10.1563 6.40625,10.1563 C5.96875,10.1563 5.63542,10.125 5.40625,10.0625 C5.125,9.98958 4.83333,9.89583 4.53125,9.78125 L4.53125,9.15625 C4.96875,9.40625 5.25,9.55208 5.375,9.59375 C5.72917,9.6875 6.08333,9.73438 6.4375,9.73438 C7.01042,9.73438 7.4375,9.61458 7.71875,9.375 C8,9.125 8.14063,8.80729 8.14063,8.42188 C8.14063,8.08854 8.04688,7.84896 7.85938,7.70313 C7.58854,7.48438 7.16146,7.30729 6.57813,7.17188 L6.23438,7.09375 C5.72396,6.96875 5.33854,6.80208 5.07813,6.59375 C4.74479,6.32292 4.57813,5.99479 4.57813,5.60938 C4.57813,4.98438 4.77865,4.53385 5.17969,4.25781 C5.58073,3.98177 6.07292,3.84375 6.65625,3.84375 C7.15625,3.84375 7.5,3.86979 7.6875,3.92188 C7.91667,3.98438 8.14063,4.0625 8.35938,4.15625 M11.1875,2.28125 L11.1875,3.98438 L13.2188,3.98438 L13.2188,4.40625 L11.1875,4.40625 L11.1875,8.01563 C11.1875,8.47396 11.2448,8.79688 11.3594,8.98438 C11.6094,9.38021 11.9688,9.57813 12.4375,9.57813 L13.2188,9.57813 L13.2188,10 L12.4531,10 C11.9635,10 11.5469,9.85677 11.2031,9.57031 C10.8594,9.28385 10.6875,8.76563 10.6875,8.01563 L10.6875,4.40625 L9.96875,4.40625 L9.96875,3.98438 L10.6875,3.98438 L10.6875,2.28125 L11.1875,2.28125 M17.3906,6.60938 C16.5885,6.60938 16.013,6.75 15.6641,7.03125 C15.3151,7.3125 15.1406,7.72396 15.1406,8.26563 C15.1406,8.79688 15.2865,9.17448 15.5781,9.39844 C15.8698,9.6224 16.2135,9.73438 16.6094,9.73438 C17.3594,9.73438 17.901,9.41667 18.2344,8.78125 C18.5677,8.13542 18.7344,7.53125 18.7344,6.96875 L18.7344,6.60938 L17.3906,6.60938 M19.2344,6.5625 L19.2344,10 L18.7344,10 L18.7344,8.35938 C18.4635,9.16146 18.099,9.67188 17.6406,9.89063 C17.2865,10.0677 16.9271,10.1563 16.5625,10.1563 C15.9688,10.1563 15.5,9.99479 15.1563,9.67188 C14.8125,9.34896 14.6406,8.8776 14.6406,8.25781 C14.6406,7.63802 14.8646,7.14063 15.3125,6.76563 C15.7604,6.39063 16.4896,6.20313 17.5,6.20313 L18.7344,6.20313 L18.7344,6.10938 C18.7344,5.57813 18.5781,5.14063 18.2656,4.79688 C17.974,4.45313 17.4792,4.28125 16.7813,4.28125 C16.4375,4.28125 16.0885,4.34375 15.7344,4.46875 C15.5052,4.55208 15.2031,4.71875 14.8281,4.96875 L14.8281,4.4375 C15.151,4.23958 15.4531,4.09896 15.7344,4.01563 C16.1302,3.90104 16.5104,3.84375 16.875,3.84375 C17.5938,3.84375 18.1823,4.05729 18.6406,4.48438 C19.0365,4.84896 19.2344,5.54167 19.2344,6.5625 M22.2344,2.28125 L22.2344,3.98438 L24.2656,3.98438 L24.2656,4.40625 L22.2344,4.40625 L22.2344,8.01563 C22.2344,8.47396 22.2917,8.79688 22.4063,8.98438 C22.6563,9.38021 23.0156,9.57813 23.4844,9.57813 L24.2656,9.57813 L24.2656,10 L23.5,10 C23.0104,10 22.5938,9.85677 22.25,9.57031 C21.9063,9.28385 21.7344,8.76563 21.7344,8.01563 L21.7344,4.40625 L21.0156,4.40625 L21.0156,3.98438 L21.7344,3.98438 L21.7344,2.28125 L22.2344,2.28125 M25.9688,7.60938 L25.9688,3.98438 L26.4531,3.98438 L26.4531,7.57813 C26.4531,8.35938 26.5781,8.90885 26.8281,9.22656 C27.0781,9.54427 27.4479,9.70313 27.9375,9.70313 C28.5104,9.70313 29,9.53125 29.4063,9.1875 C29.8125,8.84375 30.0156,8.24479 30.0156,7.39063 L30.0156,3.98438 L30.5,3.98438 L30.5,10 L30.0156,10 L30.0156,8.875 C29.8385,9.23958 29.6042,9.51563 29.3125,9.70313 C28.8958,9.99479 28.4323,10.1406 27.9219,10.1406 C27.3281,10.1406 26.8542,9.9375 26.5,9.53125 C26.1458,9.13542 25.9688,8.49479 25.9688,7.60938 M36.4063,4.15625 L36.4063,4.70313 C36.0521,4.50521 35.8333,4.39583 35.75,4.375 C35.5,4.32292 35.1875,4.29167 34.8125,4.28125 C34.25,4.28125 33.8073,4.39063 33.4844,4.60938 C33.2344,4.79688 33.1094,5.11458 33.1094,5.5625 C33.1094,5.875 33.2292,6.11458 33.4688,6.28125 C33.7083,6.46875 34.0573,6.61458 34.5156,6.71875 L34.8594,6.78125 C35.4323,6.90625 35.8646,7.08333 36.1563,7.3125 C36.5,7.58333 36.6771,7.92708 36.6875,8.34375 C36.6875,8.90625 36.5208,9.34896 36.1875,9.67188 C35.8333,9.99479 35.2552,10.1563 34.4531,10.1563 C34.0156,10.1563 33.6823,10.125 33.4531,10.0625 C33.1719,9.98958 32.8802,9.89583 32.5781,9.78125 L32.5781,9.15625 C33.0156,9.40625 33.2969,9.55208 33.4219,9.59375 C33.776,9.6875 34.1302,9.73438 34.4844,9.73438 C35.0573,9.73438 35.4844,9.61458 35.7656,9.375 C36.0469,9.125 36.1875,8.80729 36.1875,8.42188 C36.1875,8.08854 36.0938,7.84896 35.9063,7.70313 C35.6354,7.48438 35.2083,7.30729 34.625,7.17188 L34.2813,7.09375 C33.7708,6.96875 33.3854,6.80208 33.125,6.59375 C32.7917,6.32292 32.625,5.99479 32.625,5.60938 C32.625,4.98438 32.8255,4.53385 33.2266,4.25781 C33.6276,3.98177 34.1198,3.84375 34.7031,3.84375 C35.2031,3.84375 35.5469,3.86979 35.7344,3.92188 C35.9635,3.98438 36.1875,4.0625 36.4063,4.15625 "/>
</g>

<g fill="none" stroke="#000000" stroke-opacity="1" stroke-width="1" stroke-linecap="square" stroke-linejoin="bevel" transform="matrix(1.9996,0,0,1.9996,1365.55,22.9954)"
font-family="sans" font-size="11" font-weight="100" font-style="normal" 
>
</g>

<g fill="none" stroke="#000000" stroke-opacity="1" stroke-width="1" stroke-linecap="square" stroke-linejoin="bevel" transform="matrix(1.9996,0,0,1.9996,1365.55,22.9954)"
font-family="Ubuntu" font-size="11" font-weight="400" font-style="normal" 
>
</g>

<g fill="none" stroke="#000000" stroke-opacity="1" stroke-width="1" stroke-linecap="square" stroke-linejoin="bevel" transform="matrix(1.9996,0,0,1.9996,-0.00719855,71.9855)"
font-family="Ubuntu" font-size="11" font-weight="400" font-style="normal" 
>
</g>

<g fill="none" stroke="#000000" stroke-opacity="1" stroke-width="1" stroke-linecap="square" stroke-linejoin="bevel" transform="matrix(1.9996,0,0,1.9996,-0.00719855,71.9855)"
font-family="Ubuntu" font-size="11" font-weight="400" font-style="normal" 
>
</g>

<g fill="none" stroke="#000000" stroke-opacity="1" stroke-width="1" stroke-linecap="square" stroke-linejoin="bevel" transform="matrix(1.9996,0,0,1.9996,-0.00719855,71.9855)"
font-family="Ubuntu" font-size="11" font-weight="400" font-style="normal" 
>
</g>

<g fill="none" stroke="#000000" stroke-opacity="1" stroke-width="1" stroke-linecap="square" stroke-linejoin="round" transform="matrix(1.9996,0,0,1.9996,-0.00719855,71.9855)"
font-family="Ubuntu" font-size="11" font-weight="400" font-style="normal" 
>
<ellipse cx="143.64" cy="-18" rx="143.136" ry="17.5"/>
</g>

<g fill="none" stroke="#000000" stroke-opacity="1" stroke-width="1" stroke-linecap="square" stroke-linejoin="bevel" transform="matrix(1.9996,0,0,1.9996,-0.00719855,71.9855)"
font-family="Ubuntu" font-size="11" font-weight="400" font-style="normal" 
>
</g>

<g fill="none" stroke="#000000" stroke-opacity="1" stroke-width="1" stroke-linecap="square" stroke-linejoin="bevel" transform="matrix(1.9996,0,0,1.9996,80.7097,22.9954)"
font-family="Ubuntu" font-size="11" font-weight="400" font-style="normal" 
>
</g>

<g fill="none" stroke="#000000" stroke-opacity="1" stroke-width="1" stroke-linecap="square" stroke-linejoin="bevel" transform="matrix(1.9996,0,0,1.9996,80.7097,22.9954)"
font-family="sans" font-size="11" font-weight="100" font-style="normal" 
>
</g>

<g fill="#000000" fill-opacity="1" stroke="#000000" stroke-opacity="1" stroke-width="1" stroke-linecap="square" stroke-linejoin="round" transform="matrix(1.9996,0,0,1.9996,80.7097,22.9954)"
font-family="sans" font-size="11" font-weight="100" font-style="normal" 
>
<path vector-effect="none" fill-rule="nonzero" d="M2.96875,1.98438 L3.53125,1.98438 L0.734375,11.0156 L0.171875,11.0156 L2.96875,1.98438 M9.0625,4.28125 L9.0625,4.79688 C8.77083,4.61979 8.52604,4.5 8.32813,4.4375 C7.99479,4.33333 7.67708,4.28125 7.375,4.28125 C6.51042,4.28125 5.89063,4.5026 5.51563,4.94531 C5.14063,5.38802 4.95313,6.07292 4.95313,7 C4.95313,7.9375 5.14063,8.6276 5.51563,9.07031 C5.89063,9.51302 6.51042,9.73438 7.375,9.73438 C7.66667,9.73438 7.94792,9.69271 8.21875,9.60938 C8.51042,9.53646 8.79167,9.42188 9.0625,9.26563 L9.0625,9.76563 C8.79167,9.90104 8.51042,10 8.21875,10.0625 C7.91667,10.125 7.61979,10.1563 7.32813,10.1563 C6.45313,10.1563 5.75521,9.91667 5.23438,9.4375 C4.71354,8.95833 4.45313,8.14323 4.45313,6.99219 C4.45313,5.84115 4.71354,5.02604 5.23438,4.54688 C5.75521,4.07813 6.45313,3.84375 7.32813,3.84375 C7.61979,3.84375 7.92708,3.88542 8.25,3.96875 C8.57292,4.04167 8.84375,4.14583 9.0625,4.28125 M14.5781,5.01563 C14.224,4.52604 13.7396,4.28125 13.125,4.28125 C12.5104,4.28125 12.026,4.52604 11.6719,5.01563 C11.3177,5.49479 11.1406,6.15104 11.1406,6.98438 C11.1406,7.83854 11.3177,8.51042 11.6719,9 C12.026,9.48958 12.5104,9.73438 13.125,9.73438 C13.7396,9.73438 14.224,9.48958 14.5781,9 C14.9323,8.5 15.1094,7.82813 15.1094,6.98438 C15.1094,6.16146 14.9323,5.50521 14.5781,5.01563 M13.125,3.84375 C13.8854,3.84375 14.4896,4.13021 14.9375,4.70313 C15.3854,5.27604 15.6094,6.03646 15.6094,6.98438 C15.6094,7.97396 15.3854,8.75521 14.9375,9.32813 C14.4896,9.90104 13.8854,10.1875 13.125,10.1875 C12.3438,10.1875 11.7292,9.90104 11.2813,9.32813 C10.8438,8.75521 10.625,7.97396 10.625,6.98438 C10.625,6.02604 10.849,5.26302 11.2969,4.69531 C11.7448,4.1276 12.3542,3.84375 13.125,3.84375 M22.0469,5.29688 C22.2344,4.80729 22.526,4.44271 22.9219,4.20313 C23.3073,3.96354 23.7604,3.84375 24.2813,3.84375 C24.8021,3.84375 25.2188,4.02604 25.5313,4.39063 C25.8542,4.75521 26.0156,5.41667 26.0156,6.375 L26.0156,10 L25.5313,10 L25.5313,6.40625 C25.5313,5.57292 25.4167,5.01042 25.1875,4.71875 C24.9583,4.42708 24.651,4.28125 24.2656,4.28125 C23.7135,4.28125 23.2292,4.44792 22.8125,4.78125 C22.3438,5.15625 22.1094,5.76042 22.1094,6.59375 L22.1094,10 L21.625,10 L21.625,6.40625 C21.625,5.60417 21.513,5.04948 21.2891,4.74219 C21.0651,4.4349 20.7552,4.28125 20.3594,4.28125 C19.8073,4.28125 19.3229,4.45313 18.9063,4.79688 C18.4375,5.16146 18.2031,5.76042 18.2031,6.59375 L18.2031,10 L17.7188,10 L17.7188,3.98438 L18.2031,3.98438 L18.2031,5.10938 C18.3802,4.71354 18.6563,4.40104 19.0313,4.17188 C19.3958,3.95313 19.849,3.84375 20.3906,3.84375 C20.7448,3.84375 21.0833,3.95833 21.4063,4.1875 C21.6563,4.375 21.8698,4.74479 22.0469,5.29688 M32.75,5.29688 C32.9375,4.80729 33.2292,4.44271 33.625,4.20313 C34.0104,3.96354 34.4635,3.84375 34.9844,3.84375 C35.5052,3.84375 35.9219,4.02604 36.2344,4.39063 C36.5573,4.75521 36.7188,5.41667 36.7188,6.375 L36.7188,10 L36.2344,10 L36.2344,6.40625 C36.2344,5.57292 36.1198,5.01042 35.8906,4.71875 C35.6615,4.42708 35.3542,4.28125 34.9688,4.28125 C34.4167,4.28125 33.9323,4.44792 33.5156,4.78125 C33.0469,5.15625 32.8125,5.76042 32.8125,6.59375 L32.8125,10 L32.3281,10 L32.3281,6.40625 C32.3281,5.60417 32.2161,5.04948 31.9922,4.74219 C31.7682,4.4349 31.4583,4.28125 31.0625,4.28125 C30.5104,4.28125 30.026,4.45313 29.6094,4.79688 C29.1406,5.16146 28.9063,5.76042 28.9063,6.59375 L28.9063,10 L28.4219,10 L28.4219,3.98438 L28.9063,3.98438 L28.9063,5.10938 C29.0833,4.71354 29.3594,4.40104 29.7344,4.17188 C30.099,3.95313 30.5521,3.84375 31.0938,3.84375 C31.4479,3.84375 31.7865,3.95833 32.1094,4.1875 C32.3594,4.375 32.5729,4.74479 32.75,5.29688 M41.5313,6.60938 C40.7292,6.60938 40.1536,6.75 39.8047,7.03125 C39.4557,7.3125 39.2813,7.72396 39.2813,8.26563 C39.2813,8.79688 39.4271,9.17448 39.7188,9.39844 C40.0104,9.6224 40.3542,9.73438 40.75,9.73438 C41.5,9.73438 42.0417,9.41667 42.375,8.78125 C42.7083,8.13542 42.875,7.53125 42.875,6.96875 L42.875,6.60938 L41.5313,6.60938 M43.375,6.5625 L43.375,10 L42.875,10 L42.875,8.35938 C42.6042,9.16146 42.2396,9.67188 41.7813,9.89063 C41.4271,10.0677 41.0677,10.1563 40.7031,10.1563 C40.1094,10.1563 39.6406,9.99479 39.2969,9.67188 C38.9531,9.34896 38.7813,8.8776 38.7813,8.25781 C38.7813,7.63802 39.0052,7.14063 39.4531,6.76563 C39.901,6.39063 40.6302,6.20313 41.6406,6.20313 L42.875,6.20313 L42.875,6.10938 C42.875,5.57813 42.7188,5.14063 42.4063,4.79688 C42.1146,4.45313 41.6198,4.28125 40.9219,4.28125 C40.5781,4.28125 40.2292,4.34375 39.875,4.46875 C39.6458,4.55208 39.3438,4.71875 38.9688,4.96875 L38.9688,4.4375 C39.2917,4.23958 39.5938,4.09896 39.875,4.01563 C40.2708,3.90104 40.651,3.84375 41.0156,3.84375 C41.7344,3.84375 42.3229,4.05729 42.7813,4.48438 C43.1771,4.84896 43.375,5.54167 43.375,6.5625 M50.4063,6.375 L50.4063,10 L49.9063,10 L49.9063,6.40625 C49.9063,5.625 49.7813,5.07552 49.5313,4.75781 C49.2813,4.4401 48.9115,4.28125 48.4219,4.28125 C47.849,4.28125 47.3646,4.45313 46.9688,4.79688 C46.5521,5.14063 46.3438,5.73958 46.3438,6.59375 L46.3438,10 L45.8594,10 L45.8594,3.98438 L46.3438,3.98438 L46.3438,5.10938 C46.5208,4.74479 46.7552,4.46875 47.0469,4.28125 C47.4635,3.98958 47.9271,3.84375 48.4375,3.84375 C49.0417,3.84375 49.5208,4.04688 49.875,4.45313 C50.2292,4.84896 50.4063,5.48958 50.4063,6.375 M56.8281,5.35938 L56.8281,1.64063 L57.2969,1.64063 L57.2969,10 L56.8281,10 L56.8281,8.64063 C56.599,9.16146 56.349,9.51563 56.0781,9.70313 C55.6823,10.0052 55.3021,10.1563 54.9375,10.1563 C54.2292,10.1563 53.638,9.86719 53.1641,9.28906 C52.6901,8.71094 52.4531,7.94792 52.4531,7 C52.4531,6.05208 52.6901,5.28906 53.1641,4.71094 C53.638,4.13281 54.2292,3.84375 54.9375,3.84375 C55.3021,3.84375 55.6823,3.98958 56.0781,4.28125 C56.349,4.47917 56.599,4.83854 56.8281,5.35938 M53.5938,4.90625 C53.1771,5.32292 52.9688,6.02083 52.9688,7 C52.9688,7.97917 53.1771,8.67708 53.5938,9.09375 C54.0104,9.51042 54.4479,9.71875 54.9063,9.71875 C55.3542,9.71875 55.7865,9.51042 56.2031,9.09375 C56.6094,8.67708 56.8125,7.97917 56.8125,7 C56.8125,6.02083 56.6094,5.32292 56.2031,4.90625 C55.7865,4.48958 55.3542,4.28125 54.9063,4.28125 C54.4479,4.28125 54.0104,4.48958 53.5938,4.90625 M64.4844,6.75 L64.4844,7.0625 L59.9219,7.0625 C59.9219,8.02083 60.1094,8.69792 60.4844,9.09375 C60.901,9.52083 61.5156,9.73438 62.3281,9.73438 C62.5469,9.73438 62.8333,9.6875 63.1875,9.59375 C63.5417,9.5 63.8958,9.35938 64.25,9.17188 L64.25,9.6875 C63.8958,9.84375 63.5339,9.96094 63.1641,10.0391 C62.7943,10.1172 62.5,10.1563 62.2813,10.1563 C61.3542,10.1563 60.6563,9.90625 60.1875,9.40625 C59.6771,8.875 59.4219,8.09375 59.4219,7.0625 C59.4219,5.98958 59.651,5.1875 60.1094,4.65625 C60.5885,4.11458 61.2552,3.84375 62.1094,3.84375 C62.8906,3.84375 63.4844,4.10417 63.8906,4.625 C64.2865,5.16667 64.4844,5.875 64.4844,6.75 M63.9844,6.64063 C63.9844,5.79688 63.7917,5.18229 63.4063,4.79688 C63.0938,4.45313 62.6615,4.28125 62.1094,4.28125 C61.5156,4.28125 61.0156,4.45833 60.6094,4.8125 C60.2344,5.14583 60.0104,5.75521 59.9375,6.64063 L63.9844,6.64063 M69.8281,4.40625 C69.7448,4.36458 69.6354,4.33333 69.5,4.3125 C69.375,4.29167 69.224,4.28125 69.0469,4.28125 C68.4323,4.28125 67.9271,4.50521 67.5313,4.95313 C67.2083,5.31771 67.0469,5.94271 67.0469,6.82813 L67.0469,10 L66.5625,10 L66.5625,3.98438 L67.0469,3.98438 L67.0469,5.10938 C67.2135,4.78646 67.4427,4.51563 67.7344,4.29688 C68.1302,3.99479 68.599,3.84375 69.1406,3.84375 C69.2865,3.84375 69.4115,3.84896 69.5156,3.85938 C69.6198,3.85938 69.724,3.86979 69.8281,3.89063 L69.8281,4.40625 M75.4375,12.1719 L75.4375,12.5938 L69.7188,12.5938 L69.7188,12.1719 L75.4375,12.1719 M79.7969,5.67188 C80.224,5.77604 80.5625,6.01042 80.8125,6.375 C81.0521,6.71875 81.1719,7.15104 81.1719,7.67188 C81.1719,8.46354 80.9453,9.07552 80.4922,9.50781 C80.0391,9.9401 79.3125,10.1563 78.3125,10.1563 C77.9688,10.1563 77.6198,10.1042 77.2656,10 C76.9115,9.89583 76.5469,9.72917 76.1719,9.5 L76.1719,8.92188 C76.474,9.18229 76.8021,9.38021 77.1563,9.51563 C77.5104,9.65104 77.875,9.71875 78.25,9.71875 C79.0208,9.71875 79.6094,9.54167 80.0156,9.1875 C80.4219,8.84375 80.625,8.33854 80.625,7.67188 C80.625,7.13021 80.4375,6.70313 80.0625,6.39063 C79.6875,6.08854 79.1615,5.9375 78.4844,5.9375 L77.5469,5.9375 L77.5469,5.48438 L78.5313,5.48438 C79.1458,5.48438 79.6198,5.35938 79.9531,5.10938 C80.276,4.85938 80.4375,4.5 80.4375,4.03125 C80.4375,3.46875 80.2708,3.03646 79.9375,2.73438 C79.5938,2.43229 79.1094,2.28125 78.4844,2.28125 C78.1927,2.28125 77.875,2.33333 77.5313,2.4375 C77.1875,2.54167 76.8125,2.70313 76.4063,2.92188 L76.4063,2.375 C76.8229,2.19792 77.2083,2.06771 77.5625,1.98438 C77.9271,1.89063 78.2656,1.83854 78.5781,1.82813 C79.401,1.82813 80.0104,2.01563 80.4063,2.39063 C80.7917,2.76563 80.9844,3.27604 80.9844,3.92188 C80.9844,4.33854 80.8802,4.70833 80.6719,5.03125 C80.474,5.34375 80.1823,5.55729 79.7969,5.67188 M85.7813,2.28125 C85.125,2.28125 84.6354,2.59896 84.3125,3.23438 C84,3.86979 83.8438,4.78906 83.8438,5.99219 C83.8438,7.19531 84,8.11979 84.3125,8.76563 C84.6354,9.40104 85.125,9.71875 85.7813,9.71875 C86.4583,9.71875 86.9531,9.40104 87.2656,8.76563 C87.5885,8.11979 87.75,7.19531 87.75,5.99219 C87.75,4.78906 87.5885,3.86979 87.2656,3.23438 C86.9531,2.59896 86.4583,2.28125 85.7813,2.28125 M85.7813,1.82813 C86.5521,1.82813 87.1615,2.14583 87.6094,2.78125 C88.0677,3.41667 88.2969,4.48958 88.2969,6 C88.2969,7.51042 88.0677,8.58333 87.6094,9.21875 C87.1615,9.84375 86.5521,10.1563 85.7813,10.1563 C85.0313,10.1563 84.4271,9.84375 83.9688,9.21875 C83.5208,8.58333 83.2969,7.51042 83.2969,6 C83.2969,4.48958 83.5208,3.41667 83.9688,2.78125 C84.4271,2.14583 85.0313,1.82813 85.7813,1.82813 M90.7031,1.98438 L94.5,1.98438 L94.5,2.42188 L91.2344,2.42188 L91.2344,5.10938 C91.401,5.04688 91.5625,5 91.7188,4.96875 C91.875,4.9375 92.1042,4.92188 92.4063,4.92188 C93.2292,4.92188 93.8802,5.15104 94.3594,5.60938 C94.8385,6.05729 95.0781,6.66146 95.0781,7.42188 C95.0781,8.28646 94.8281,8.95833 94.3281,9.4375 C93.8385,9.91667 93.1458,10.1563 92.25,10.1563 C91.9583,10.1563 91.6563,10.1302 91.3438,10.0781 C91.0313,10.026 90.7083,9.95313 90.375,9.85938 L90.375,9.3125 C90.6563,9.4375 90.9479,9.53646 91.25,9.60938 C91.5521,9.67188 91.8698,9.70313 92.2031,9.70313 C92.9115,9.70313 93.4792,9.5 93.9063,9.09375 C94.3333,8.6875 94.5469,8.13021 94.5469,7.42188 C94.5469,6.78646 94.3385,6.28646 93.9219,5.92188 C93.5052,5.54688 92.9427,5.35938 92.2344,5.35938 C92.0885,5.35938 91.8698,5.40104 91.5781,5.48438 C91.2969,5.55729 91.0052,5.67708 90.7031,5.84375 L90.7031,1.98438 M97.7656,9.82813 L97.7656,9.26563 C98.0156,9.41146 98.2656,9.52604 98.5156,9.60938 C98.7656,9.68229 99.0156,9.71875 99.2656,9.71875 C100.328,9.71875 101.073,9.19792 101.5,8.15625 C101.698,7.67708 101.786,6.86979 101.766,5.73438 C101.589,6.13021 101.359,6.4375 101.078,6.65625 C100.714,6.94792 100.255,7.09375 99.7031,7.09375 C99.026,7.09375 98.4635,6.85417 98.0156,6.375 C97.5677,5.90625 97.3438,5.30208 97.3438,4.5625 C97.3438,3.73958 97.5625,3.07813 98,2.57813 C98.4479,2.07813 99.0208,1.82813 99.7188,1.82813 C100.563,1.82813 101.208,2.1875 101.656,2.90625 C102.104,3.61458 102.328,4.64583 102.328,6 C102.328,7.4375 102.052,8.48958 101.5,9.15625 C100.958,9.82292 100.224,10.1563 99.2969,10.1563 C99.0469,10.1563 98.7969,10.1302 98.5469,10.0781 C98.2969,10.026 98.0365,9.94271 97.7656,9.82813 M98.4063,6.05469 C98.7396,6.44531 99.1901,6.64063 99.7578,6.64063 C100.326,6.64063 100.776,6.44531 101.109,6.05469 C101.443,5.66406 101.609,5.13021 101.609,4.45313 C101.609,3.77604 101.443,3.24219 101.109,2.85156 C100.776,2.46094 100.326,2.26563 99.7578,2.26563 C99.1901,2.26563 98.7396,2.46094 98.4063,2.85156 C98.0729,3.24219 97.9063,3.77604 97.9063,4.45313 C97.9063,5.13021 98.0729,5.66406 98.4063,6.05469 M108.25,5.92969 C107.917,5.53906 107.466,5.34375 106.898,5.34375 C106.331,5.34375 105.88,5.53906 105.547,5.92969 C105.214,6.32031 105.047,6.85417 105.047,7.53125 C105.047,8.20833 105.214,8.74219 105.547,9.13281 C105.88,9.52344 106.331,9.71875 106.898,9.71875 C107.466,9.71875 107.917,9.52344 108.25,9.13281 C108.583,8.74219 108.75,8.20833 108.75,7.53125 C108.75,6.85417 108.583,6.32031 108.25,5.92969 M108.906,2.15625 L108.906,2.73438 C108.656,2.57813 108.401,2.46354 108.141,2.39063 C107.891,2.30729 107.641,2.26563 107.391,2.26563 C106.328,2.26563 105.583,2.79167 105.156,3.84375 C104.958,4.3125 104.87,5.11979 104.891,6.26563 C105.068,5.86979 105.297,5.5625 105.578,5.34375 C105.943,5.05208 106.406,4.90625 106.969,4.90625 C107.635,4.90625 108.193,5.14063 108.641,5.60938 C109.089,6.08854 109.313,6.69271 109.313,7.42188 C109.313,8.24479 109.094,8.90625 108.656,9.40625 C108.219,9.90625 107.646,10.1563 106.938,10.1563 C106.094,10.1563 105.448,9.80208 105,9.09375 C104.552,8.375 104.328,7.34375 104.328,6 C104.328,4.5625 104.604,3.50521 105.156,2.82813 C105.698,2.16146 106.432,1.82813 107.359,1.82813 C107.609,1.82813 107.859,1.85938 108.109,1.92188 C108.359,1.97396 108.625,2.05208 108.906,2.15625 M115.859,12.1719 L115.859,12.5938 L110.141,12.5938 L110.141,12.1719 L115.859,12.1719 M117.391,9.5625 L119.156,9.5625 L119.156,2.46875 L116.953,3.35938 L116.953,2.85938 L119.141,1.98438 L119.688,1.98438 L119.688,9.5625 L121.469,9.5625 L121.469,10 L117.391,10 L117.391,9.5625 M124.141,1.98438 L127.938,1.98438 L127.938,2.42188 L124.672,2.42188 L124.672,5.10938 C124.839,5.04688 125,5 125.156,4.96875 C125.313,4.9375 125.542,4.92188 125.844,4.92188 C126.667,4.92188 127.318,5.15104 127.797,5.60938 C128.276,6.05729 128.516,6.66146 128.516,7.42188 C128.516,8.28646 128.266,8.95833 127.766,9.4375 C127.276,9.91667 126.583,10.1563 125.688,10.1563 C125.396,10.1563 125.094,10.1302 124.781,10.0781 C124.469,10.026 124.146,9.95313 123.813,9.85938 L123.813,9.3125 C124.094,9.4375 124.385,9.53646 124.688,9.60938 C124.99,9.67188 125.307,9.70313 125.641,9.70313 C126.349,9.70313 126.917,9.5 127.344,9.09375 C127.771,8.6875 127.984,8.13021 127.984,7.42188 C127.984,6.78646 127.776,6.28646 127.359,5.92188 C126.943,5.54688 126.38,5.35938 125.672,5.35938 C125.526,5.35938 125.307,5.40104 125.016,5.48438 C124.734,5.55729 124.443,5.67708 124.141,5.84375 L124.141,1.98438 M131.203,9.82813 L131.203,9.26563 C131.453,9.41146 131.703,9.52604 131.953,9.60938 C132.203,9.68229 132.453,9.71875 132.703,9.71875 C133.766,9.71875 134.51,9.19792 134.938,8.15625 C135.135,7.67708 135.224,6.86979 135.203,5.73438 C135.026,6.13021 134.797,6.4375 134.516,6.65625 C134.151,6.94792 133.693,7.09375 133.141,7.09375 C132.464,7.09375 131.901,6.85417 131.453,6.375 C131.005,5.90625 130.781,5.30208 130.781,4.5625 C130.781,3.73958 131,3.07813 131.438,2.57813 C131.885,2.07813 132.458,1.82813 133.156,1.82813 C134,1.82813 134.646,2.1875 135.094,2.90625 C135.542,3.61458 135.766,4.64583 135.766,6 C135.766,7.4375 135.49,8.48958 134.938,9.15625 C134.396,9.82292 133.661,10.1563 132.734,10.1563 C132.484,10.1563 132.234,10.1302 131.984,10.0781 C131.734,10.026 131.474,9.94271 131.203,9.82813 M131.844,6.05469 C132.177,6.44531 132.628,6.64063 133.195,6.64063 C133.763,6.64063 134.214,6.44531 134.547,6.05469 C134.88,5.66406 135.047,5.13021 135.047,4.45313 C135.047,3.77604 134.88,3.24219 134.547,2.85156 C134.214,2.46094 133.763,2.26563 133.195,2.26563 C132.628,2.26563 132.177,2.46094 131.844,2.85156 C131.51,3.24219 131.344,3.77604 131.344,4.45313 C131.344,5.13021 131.51,5.66406 131.844,6.05469 M137.609,1.98438 L142.484,1.98438 L142.484,2.4375 L139.578,10 L139,10 L141.922,2.42188 L137.609,2.42188 L137.609,1.98438 M148.109,2.28125 L144.781,7.4375 L148.109,7.4375 L148.109,2.28125 M147.688,1.98438 L148.656,1.98438 L148.656,7.4375 L149.813,7.4375 L149.813,7.875 L148.656,7.875 L148.656,10 L148.109,10 L148.109,7.875 L144.219,7.875 L144.219,7.3125 L147.688,1.98438 M152.313,9.5625 L154.078,9.5625 L154.078,2.46875 L151.875,3.35938 L151.875,2.85938 L154.063,1.98438 L154.609,1.98438 L154.609,9.5625 L156.391,9.5625 L156.391,10 L152.313,10 L152.313,9.5625 M162.641,5.92969 C162.307,5.53906 161.857,5.34375 161.289,5.34375 C160.721,5.34375 160.271,5.53906 159.938,5.92969 C159.604,6.32031 159.438,6.85417 159.438,7.53125 C159.438,8.20833 159.604,8.74219 159.938,9.13281 C160.271,9.52344 160.721,9.71875 161.289,9.71875 C161.857,9.71875 162.307,9.52344 162.641,9.13281 C162.974,8.74219 163.141,8.20833 163.141,7.53125 C163.141,6.85417 162.974,6.32031 162.641,5.92969 M163.297,2.15625 L163.297,2.73438 C163.047,2.57813 162.792,2.46354 162.531,2.39063 C162.281,2.30729 162.031,2.26563 161.781,2.26563 C160.719,2.26563 159.974,2.79167 159.547,3.84375 C159.349,4.3125 159.26,5.11979 159.281,6.26563 C159.458,5.86979 159.688,5.5625 159.969,5.34375 C160.333,5.05208 160.797,4.90625 161.359,4.90625 C162.026,4.90625 162.583,5.14063 163.031,5.60938 C163.479,6.08854 163.703,6.69271 163.703,7.42188 C163.703,8.24479 163.484,8.90625 163.047,9.40625 C162.609,9.90625 162.036,10.1563 161.328,10.1563 C160.484,10.1563 159.839,9.80208 159.391,9.09375 C158.943,8.375 158.719,7.34375 158.719,6 C158.719,4.5625 158.995,3.50521 159.547,2.82813 C160.089,2.16146 160.823,1.82813 161.75,1.82813 C162,1.82813 162.25,1.85938 162.5,1.92188 C162.75,1.97396 163.016,2.05208 163.297,2.15625 M166.047,1.98438 L169.844,1.98438 L169.844,2.42188 L166.578,2.42188 L166.578,5.10938 C166.745,5.04688 166.906,5 167.063,4.96875 C167.219,4.9375 167.448,4.92188 167.75,4.92188 C168.573,4.92188 169.224,5.15104 169.703,5.60938 C170.182,6.05729 170.422,6.66146 170.422,7.42188 C170.422,8.28646 170.172,8.95833 169.672,9.4375 C169.182,9.91667 168.49,10.1563 167.594,10.1563 C167.302,10.1563 167,10.1302 166.688,10.0781 C166.375,10.026 166.052,9.95313 165.719,9.85938 L165.719,9.3125 C166,9.4375 166.292,9.53646 166.594,9.60938 C166.896,9.67188 167.214,9.70313 167.547,9.70313 C168.255,9.70313 168.823,9.5 169.25,9.09375 C169.677,8.6875 169.891,8.13021 169.891,7.42188 C169.891,6.78646 169.682,6.28646 169.266,5.92188 C168.849,5.54688 168.286,5.35938 167.578,5.35938 C167.432,5.35938 167.214,5.40104 166.922,5.48438 C166.641,5.55729 166.349,5.67708 166.047,5.84375 L166.047,1.98438 M175.094,2.28125 C174.438,2.28125 173.948,2.59896 173.625,3.23438 C173.313,3.86979 173.156,4.78906 173.156,5.99219 C173.156,7.19531 173.313,8.11979 173.625,8.76563 C173.948,9.40104 174.438,9.71875 175.094,9.71875 C175.771,9.71875 176.266,9.40104 176.578,8.76563 C176.901,8.11979 177.063,7.19531 177.063,5.99219 C177.063,4.78906 176.901,3.86979 176.578,3.23438 C176.266,2.59896 175.771,2.28125 175.094,2.28125 M175.094,1.82813 C175.865,1.82813 176.474,2.14583 176.922,2.78125 C177.38,3.41667 177.609,4.48958 177.609,6 C177.609,7.51042 177.38,8.58333 176.922,9.21875 C176.474,9.84375 175.865,10.1563 175.094,10.1563 C174.344,10.1563 173.74,9.84375 173.281,9.21875 C172.833,8.58333 172.609,7.51042 172.609,6 C172.609,4.48958 172.833,3.41667 173.281,2.78125 C173.74,2.14583 174.344,1.82813 175.094,1.82813 M183.078,5.67188 C183.505,5.77604 183.844,6.01042 184.094,6.375 C184.333,6.71875 184.453,7.15104 184.453,7.67188 C184.453,8.46354 184.227,9.07552 183.773,9.50781 C183.32,9.9401 182.594,10.1563 181.594,10.1563 C181.25,10.1563 180.901,10.1042 180.547,10 C180.193,9.89583 179.828,9.72917 179.453,9.5 L179.453,8.92188 C179.755,9.18229 180.083,9.38021 180.438,9.51563 C180.792,9.65104 181.156,9.71875 181.531,9.71875 C182.302,9.71875 182.891,9.54167 183.297,9.1875 C183.703,8.84375 183.906,8.33854 183.906,7.67188 C183.906,7.13021 183.719,6.70313 183.344,6.39063 C182.969,6.08854 182.443,5.9375 181.766,5.9375 L180.828,5.9375 L180.828,5.48438 L181.813,5.48438 C182.427,5.48438 182.901,5.35938 183.234,5.10938 C183.557,4.85938 183.719,4.5 183.719,4.03125 C183.719,3.46875 183.552,3.03646 183.219,2.73438 C182.875,2.43229 182.391,2.28125 181.766,2.28125 C181.474,2.28125 181.156,2.33333 180.813,2.4375 C180.469,2.54167 180.094,2.70313 179.688,2.92188 L179.688,2.375 C180.104,2.19792 180.49,2.06771 180.844,1.98438 C181.208,1.89063 181.547,1.83854 181.859,1.82813 C182.682,1.82813 183.292,2.01563 183.688,2.39063 C184.073,2.76563 184.266,3.27604 184.266,3.92188 C184.266,4.33854 184.161,4.70833 183.953,5.03125 C183.755,5.34375 183.464,5.55729 183.078,5.67188 M190.578,5.92969 C190.245,5.53906 189.794,5.34375 189.227,5.34375 C188.659,5.34375 188.208,5.53906 187.875,5.92969 C187.542,6.32031 187.375,6.85417 187.375,7.53125 C187.375,8.20833 187.542,8.74219 187.875,9.13281 C188.208,9.52344 188.659,9.71875 189.227,9.71875 C189.794,9.71875 190.245,9.52344 190.578,9.13281 C190.911,8.74219 191.078,8.20833 191.078,7.53125 C191.078,6.85417 190.911,6.32031 190.578,5.92969 M191.234,2.15625 L191.234,2.73438 C190.984,2.57813 190.729,2.46354 190.469,2.39063 C190.219,2.30729 189.969,2.26563 189.719,2.26563 C188.656,2.26563 187.911,2.79167 187.484,3.84375 C187.286,4.3125 187.198,5.11979 187.219,6.26563 C187.396,5.86979 187.625,5.5625 187.906,5.34375 C188.271,5.05208 188.734,4.90625 189.297,4.90625 C189.964,4.90625 190.521,5.14063 190.969,5.60938 C191.417,6.08854 191.641,6.69271 191.641,7.42188 C191.641,8.24479 191.422,8.90625 190.984,9.40625 C190.547,9.90625 189.974,10.1563 189.266,10.1563 C188.422,10.1563 187.776,9.80208 187.328,9.09375 C186.88,8.375 186.656,7.34375 186.656,6 C186.656,4.5625 186.932,3.50521 187.484,2.82813 C188.026,2.16146 188.76,1.82813 189.688,1.82813 C189.938,1.82813 190.188,1.85938 190.438,1.92188 C190.688,1.97396 190.953,2.05208 191.234,2.15625 M197.563,5.92969 C197.229,5.53906 196.779,5.34375 196.211,5.34375 C195.643,5.34375 195.193,5.53906 194.859,5.92969 C194.526,6.32031 194.359,6.85417 194.359,7.53125 C194.359,8.20833 194.526,8.74219 194.859,9.13281 C195.193,9.52344 195.643,9.71875 196.211,9.71875 C196.779,9.71875 197.229,9.52344 197.563,9.13281 C197.896,8.74219 198.063,8.20833 198.063,7.53125 C198.063,6.85417 197.896,6.32031 197.563,5.92969 M198.219,2.15625 L198.219,2.73438 C197.969,2.57813 197.714,2.46354 197.453,2.39063 C197.203,2.30729 196.953,2.26563 196.703,2.26563 C195.641,2.26563 194.896,2.79167 194.469,3.84375 C194.271,4.3125 194.182,5.11979 194.203,6.26563 C194.38,5.86979 194.609,5.5625 194.891,5.34375 C195.255,5.05208 195.719,4.90625 196.281,4.90625 C196.948,4.90625 197.505,5.14063 197.953,5.60938 C198.401,6.08854 198.625,6.69271 198.625,7.42188 C198.625,8.24479 198.406,8.90625 197.969,9.40625 C197.531,9.90625 196.958,10.1563 196.25,10.1563 C195.406,10.1563 194.76,9.80208 194.313,9.09375 C193.865,8.375 193.641,7.34375 193.641,6 C193.641,4.5625 193.917,3.50521 194.469,2.82813 C195.01,2.16146 195.745,1.82813 196.672,1.82813 C196.922,1.82813 197.172,1.85938 197.422,1.92188 C197.672,1.97396 197.938,2.05208 198.219,2.15625 M200.969,1.98438 L204.766,1.98438 L204.766,2.42188 L201.5,2.42188 L201.5,5.10938 C201.667,5.04688 201.828,5 201.984,4.96875 C202.141,4.9375 202.37,4.92188 202.672,4.92188 C203.495,4.92188 204.146,5.15104 204.625,5.60938 C205.104,6.05729 205.344,6.66146 205.344,7.42188 C205.344,8.28646 205.094,8.95833 204.594,9.4375 C204.104,9.91667 203.411,10.1563 202.516,10.1563 C202.224,10.1563 201.922,10.1302 201.609,10.0781 C201.297,10.026 200.974,9.95313 200.641,9.85938 L200.641,9.3125 C200.922,9.4375 201.214,9.53646 201.516,9.60938 C201.818,9.67188 202.135,9.70313 202.469,9.70313 C203.177,9.70313 203.745,9.5 204.172,9.09375 C204.599,8.6875 204.813,8.13021 204.813,7.42188 C204.813,6.78646 204.604,6.28646 204.188,5.92188 C203.771,5.54688 203.208,5.35938 202.5,5.35938 C202.354,5.35938 202.135,5.40104 201.844,5.48438 C201.563,5.55729 201.271,5.67708 200.969,5.84375 L200.969,1.98438"/>
</g>

<g fill="none" stroke="#000000" stroke-opacity="1" stroke-width="1" stroke-linecap="square" stroke-linejoin="bevel" transform="matrix(1.9996,0,0,1.9996,80.7097,22.9954)"
font-family="sans" font-size="11" font-weight="100" font-style="normal" 
>
</g>

<g fill="none" stroke="#000000" stroke-opacity="1" stroke-width="1" stroke-linecap="square" stroke-linejoin="bevel" transform="matrix(1.9996,0,0,1.9996,80.7097,22.9954)"
font-family="Ubuntu" font-size="11" font-weight="400" font-style="normal" 
>
</g>

<g fill="none" stroke="#000000" stroke-opacity="1" stroke-width="1" stroke-linecap="square" stroke-linejoin="bevel" transform="matrix(1.9996,0,0,1.9996,-0.00719855,71.9855)"
font-family="Ubuntu" font-size="11" font-weight="400" font-style="normal" 
>
</g>

<g fill="none" stroke="#000000" stroke-opacity="1" stroke-width="1" stroke-linecap="square" stroke-linejoin="bevel" transform="matrix(1.9996,0,0,1.9996,-0.00719855,71.9855)"
font-family="Ubuntu" font-size="11" font-weight="400" font-style="normal" 
>
</g>

<g fill="none" stroke="#000000" stroke-opacity="1" stroke-width="1" stroke-linecap="square" stroke-linejoin="bevel" transform="matrix(1.9996,0,0,1.9996,-0.00719855,71.9855)"
font-family="Ubuntu" font-size="11" font-weight="400" font-style="normal" 
>
</g>

<g fill="none" stroke="#000000" stroke-opacity="1" stroke-width="1" stroke-linecap="square" stroke-linejoin="round" transform="matrix(1.9996,0,0,1.9996,-0.00719855,71.9855)"
font-family="Ubuntu" font-size="11" font-weight="400" font-style="normal" 
>
<path vector-effect="none" fill-rule="evenodd" d="M376.71,-18 C377.76,-18 378.83,-18 379.91,-18 "/>
</g>

<g fill="none" stroke="#000000" stroke-opacity="1" stroke-width="1" stroke-linecap="square" stroke-linejoin="bevel" transform="matrix(1.9996,0,0,1.9996,-0.00719855,71.9855)"
font-family="Ubuntu" font-size="11" font-weight="400" font-style="normal" 
>
</g>

<g fill="none" stroke="#000000" stroke-opacity="1" stroke-width="1" stroke-linecap="square" stroke-linejoin="bevel" transform="matrix(1.9996,0,0,1.9996,-0.00719855,71.9855)"
font-family="Ubuntu" font-size="11" font-weight="400" font-style="normal" 
>
</g>

<g fill="#000000" fill-opacity="1" stroke="#000000" stroke-opacity="1" stroke-width="1" stroke-linecap="square" stroke-linejoin="round" transform="matrix(1.9996,0,0,1.9996,-0.00719855,71.9855)"
font-family="Ubuntu" font-size="11" font-weight="400" font-style="normal" 
>
<path vector-effect="none" fill-rule="evenodd" d="M379.91,-18 L379.91,-14.4685 L390,-18 L379.91,-21.5315 L379.91,-18"/>
</g>

<g fill="none" stroke="#000000" stroke-opacity="1" stroke-width="1" stroke-linecap="square" stroke-linejoin="bevel" transform="matrix(1.9996,0,0,1.9996,-0.00719855,71.9855)"
font-family="Ubuntu" font-size="11" font-weight="400" font-style="normal" 
>
</g>

<g fill="none" stroke="#000000" stroke-opacity="1" stroke-width="1" stroke-linecap="square" stroke-linejoin="bevel" transform="matrix(1.9996,0,0,1.9996,-0.00719855,71.9855)"
font-family="Ubuntu" font-size="11" font-weight="400" font-style="normal" 
>
</g>

<g fill="none" stroke="#000000" stroke-opacity="1" stroke-width="1" stroke-linecap="square" stroke-linejoin="bevel" transform="matrix(1.9996,0,0,1.9996,-0.00719855,71.9855)"
font-family="Ubuntu" font-size="11" font-weight="400" font-style="normal" 
>
</g>

<g fill="none" stroke="#000000" stroke-opacity="1" stroke-width="1" stroke-linecap="square" stroke-linejoin="bevel" transform="matrix(1.9996,0,0,1.9996,-0.00719855,71.9855)"
font-family="Ubuntu" font-size="11" font-weight="400" font-style="normal" 
>
</g>

<g fill="none" stroke="#000000" stroke-opacity="1" stroke-width="1" stroke-linecap="square" stroke-linejoin="round" transform="matrix(1.9996,0,0,1.9996,-0.00719855,71.9855)"
font-family="Ubuntu" font-size="11" font-weight="400" font-style="normal" 
>
<path vector-effect="none" fill-rule="evenodd" d="M660.69,-18 C661.91,-18 663.11,-18 664.3,-18 "/>
</g>

<g fill="none" stroke="#000000" stroke-opacity="1" stroke-width="1" stroke-linecap="square" stroke-linejoin="bevel" transform="matrix(1.9996,0,0,1.9996,-0.00719855,71.9855)"
font-family="Ubuntu" font-size="11" font-weight="400" font-style="normal" 
>
</g>

<g fill="none" stroke="#000000" stroke-opacity="1" stroke-width="1" stroke-linecap="square" stroke-linejoin="bevel" transform="matrix(1.9996,0,0,1.9996,-0.00719855,71.9855)"
font-family="Ubuntu" font-size="11" font-weight="400" font-style="normal" 
>
</g>

<g fill="#000000" fill-opacity="1" stroke="#000000" stroke-opacity="1" stroke-width="1" stroke-linecap="square" stroke-linejoin="round" transform="matrix(1.9996,0,0,1.9996,-0.00719855,71.9855)"
font-family="Ubuntu" font-size="11" font-weight="400" font-style="normal" 
>
<path vector-effect="none" fill-rule="evenodd" d="M664.3,-18 L664.3,-14.465 L674.4,-18 L664.3,-21.535 L664.3,-18"/>
</g>

<g fill="none" stroke="#000000" stroke-opacity="1" stroke-width="1" stroke-linecap="square" stroke-linejoin="bevel" transform="matrix(1.9996,0,0,1.9996,-0.00719855,71.9855)"
font-family="Ubuntu" font-size="11" font-weight="400" font-style="normal" 
>
</g>

<g fill="none" stroke="#000000" stroke-opacity="1" stroke-width="1" stroke-linecap="square" stroke-linejoin="bevel" transform="matrix(1.9996,0,0,1.9996,-0.00719855,71.9855)"
font-family="Ubuntu" font-size="11" font-weight="400" font-style="normal" 
>
</g>

<g fill="none" stroke="#000000" stroke-opacity="1" stroke-width="1" stroke-linecap="square" stroke-linejoin="bevel" transform="matrix(1.9996,0,0,1.9996,-0.00719855,71.9855)"
font-family="Ubuntu" font-size="11" font-weight="400" font-style="normal" 
>
</g>

<g fill="none" stroke="#000000" stroke-opacity="1" stroke-width="1" stroke-linecap="square" stroke-linejoin="bevel" transform="matrix(1.9996,0,0,1.9996,-0.00719855,71.9855)"
font-family="Ubuntu" font-size="11" font-weight="400" font-style="normal" 
>
</g>

<g fill="none" stroke="#000000" stroke-opacity="1" stroke-width="1" stroke-linecap="square" stroke-linejoin="round" transform="matrix(1.9996,0,0,1.9996,-0.00719855,71.9855)"
font-family="Ubuntu" font-size="11" font-weight="400" font-style="normal" 
>
<path vector-effect="none" fill-rule="evenodd" d="M287.28,-18 C288.49,-18 289.69,-18 290.87,-18 "/>
</g>

<g fill="none" stroke="#000000" stroke-opacity="1" stroke-width="1" stroke-linecap="square" stroke-linejoin="bevel" transform="matrix(1.9996,0,0,1.9996,-0.00719855,71.9855)"
font-family="Ubuntu" font-size="11" font-weight="400" font-style="normal" 
>
</g>

<g fill="none" stroke="#000000" stroke-opacity="1" stroke-width="1" stroke-linecap="square" stroke-linejoin="bevel" transform="matrix(1.9996,0,0,1.9996,-0.00719855,71.9855)"
font-family="Ubuntu" font-size="11" font-weight="400" font-style="normal" 
>
</g>

<g fill="#000000" fill-opacity="1" stroke="#000000" stroke-opacity="1" stroke-width="1" stroke-linecap="square" stroke-linejoin="round" transform="matrix(1.9996,0,0,1.9996,-0.00719855,71.9855)"
font-family="Ubuntu" font-size="11" font-weight="400" font-style="normal" 
>
<path vector-effect="none" fill-rule="evenodd" d="M290.87,-18 L290.87,-14.409 L301.13,-18 L290.87,-21.591 L290.87,-18"/>
</g>

<g fill="none" stroke="#000000" stroke-opacity="1" stroke-width="1" stroke-linecap="square" stroke-linejoin="bevel" transform="matrix(1.9996,0,0,1.9996,-0.00719855,71.9855)"
font-family="Ubuntu" font-size="11" font-weight="400" font-style="normal" 
>
</g>

<g fill="none" stroke="#000000" stroke-opacity="1" stroke-width="1" stroke-linecap="square" stroke-linejoin="bevel" transform="matrix(1,0,0,1,0,0)"
font-family="Ubuntu" font-size="11" font-weight="400" font-style="normal" 
>
</g>
</g>
</svg>
