<?xml version="1.0" encoding="UTF-8" standalone="no"?>
<svg width="453.319mm" height="101.6mm"
 xmlns="http://www.w3.org/2000/svg" xmlns:xlink="http://www.w3.org/1999/xlink"  version="1.2" baseProfile="tiny">
<title>Qt SVG Document</title>
<desc>Generated with Qt</desc>
<defs>
</defs>
<g fill="none" stroke="black" stroke-width="1" fill-rule="evenodd" stroke-linecap="square" stroke-linejoin="bevel" >

<g fill="none" stroke="#000000" stroke-opacity="1" stroke-width="1" stroke-linecap="square" stroke-linejoin="bevel" transform="matrix(1,0,0,1,0,0)"
font-family="Ubuntu" font-size="11" font-weight="400" font-style="normal" 
>
</g>

<g fill="none" stroke="#000000" stroke-opacity="1" stroke-width="1" stroke-linecap="square" stroke-linejoin="bevel" transform="matrix(1,0,0,1,0,0)"
font-family="Ubuntu" font-size="11" font-weight="400" font-style="normal" 
>
</g>

<g fill="none" stroke="#000000" stroke-opacity="1" stroke-width="1" stroke-linecap="square" stroke-linejoin="bevel" transform="matrix(2,0,0,2,-0.008,288)"
font-family="Ubuntu" font-size="11" font-weight="400" font-style="normal" 
>
</g>

<g fill="#ffffff" fill-opacity="1" stroke="none" transform="matrix(2,0,0,2,-0.008,288)"
font-family="Ubuntu" font-size="11" font-weight="400" font-style="normal" 
>
<rect x="0.004" y="-144" width="642.443" height="144"/>
</g>

<g fill="none" stroke="#000000" stroke-opacity="1" stroke-width="1" stroke-linecap="square" stroke-linejoin="bevel" transform="matrix(2,0,0,2,-0.008,288)"
font-family="Ubuntu" font-size="11" font-weight="400" font-style="normal" 
>
</g>

<g fill="none" stroke="#000000" stroke-opacity="1" stroke-width="1" stroke-linecap="square" stroke-linejoin="bevel" transform="matrix(2,0,0,2,-0.008,288)"
font-family="Ubuntu" font-size="11" font-weight="400" font-style="normal" 
>
</g>

<g fill="none" stroke="#000000" stroke-opacity="1" stroke-width="1" stroke-linecap="square" stroke-linejoin="bevel" transform="matrix(2,0,0,2,-0.008,288)"
font-family="Ubuntu" font-size="11" font-weight="400" font-style="normal" 
>
</g>

<g fill="none" stroke="#000000" stroke-opacity="1" stroke-width="1" stroke-linecap="square" stroke-linejoin="bevel" transform="matrix(2,0,0,2,-0.008,288)"
font-family="Ubuntu" font-size="11" font-weight="400" font-style="normal" 
>
</g>

<g fill="none" stroke="#000000" stroke-opacity="1" stroke-width="1" stroke-linecap="square" stroke-linejoin="round" transform="matrix(2,0,0,2,-0.008,288)"
font-family="Ubuntu" font-size="11" font-weight="400" font-style="normal" 
>
<rect x="292.679" y="-62.5" width="74.0024" height="35"/>
</g>

<g fill="none" stroke="#000000" stroke-opacity="1" stroke-width="1" stroke-linecap="square" stroke-linejoin="bevel" transform="matrix(2,0,0,2,-0.008,288)"
font-family="Ubuntu" font-size="11" font-weight="400" font-style="normal" 
>
</g>

<g fill="none" stroke="#000000" stroke-opacity="1" stroke-width="1" stroke-linecap="square" stroke-linejoin="bevel" transform="matrix(2,0,0,2,600.805,185)"
font-family="Ubuntu" font-size="11" font-weight="400" font-style="normal" 
>
</g>

<g fill="none" stroke="#000000" stroke-opacity="1" stroke-width="1" stroke-linecap="square" stroke-linejoin="bevel" transform="matrix(2,0,0,2,600.805,185)"
font-family="sans" font-size="11" font-weight="100" font-style="normal" 
>
</g>

<g fill="#000000" fill-opacity="1" stroke="#000000" stroke-opacity="1" stroke-width="1" stroke-linecap="square" stroke-linejoin="round" transform="matrix(2,0,0,2,600.805,185)"
font-family="sans" font-size="11" font-weight="100" font-style="normal" 
>
<path vector-effect="none" fill-rule="nonzero" d="M2.96875,1.98438 L3.53125,1.98438 L0.734375,11.0156 L0.171875,11.0156 L2.96875,1.98438 M9.0625,4.28125 L9.0625,4.79688 C8.77083,4.61979 8.52604,4.5 8.32813,4.4375 C7.99479,4.33333 7.67708,4.28125 7.375,4.28125 C6.51042,4.28125 5.89063,4.5026 5.51563,4.94531 C5.14063,5.38802 4.95313,6.07292 4.95313,7 C4.95313,7.9375 5.14063,8.6276 5.51563,9.07031 C5.89063,9.51302 6.51042,9.73438 7.375,9.73438 C7.66667,9.73438 7.94792,9.69271 8.21875,9.60938 C8.51042,9.53646 8.79167,9.42188 9.0625,9.26563 L9.0625,9.76563 C8.79167,9.90104 8.51042,10 8.21875,10.0625 C7.91667,10.125 7.61979,10.1563 7.32813,10.1563 C6.45313,10.1563 5.75521,9.91667 5.23438,9.4375 C4.71354,8.95833 4.45313,8.14323 4.45313,6.99219 C4.45313,5.84115 4.71354,5.02604 5.23438,4.54688 C5.75521,4.07813 6.45313,3.84375 7.32813,3.84375 C7.61979,3.84375 7.92708,3.88542 8.25,3.96875 C8.57292,4.04167 8.84375,4.14583 9.0625,4.28125 M14.5781,5.01563 C14.224,4.52604 13.7396,4.28125 13.125,4.28125 C12.5104,4.28125 12.026,4.52604 11.6719,5.01563 C11.3177,5.49479 11.1406,6.15104 11.1406,6.98438 C11.1406,7.83854 11.3177,8.51042 11.6719,9 C12.026,9.48958 12.5104,9.73438 13.125,9.73438 C13.7396,9.73438 14.224,9.48958 14.5781,9 C14.9323,8.5 15.1094,7.82813 15.1094,6.98438 C15.1094,6.16146 14.9323,5.50521 14.5781,5.01563 M13.125,3.84375 C13.8854,3.84375 14.4896,4.13021 14.9375,4.70313 C15.3854,5.27604 15.6094,6.03646 15.6094,6.98438 C15.6094,7.97396 15.3854,8.75521 14.9375,9.32813 C14.4896,9.90104 13.8854,10.1875 13.125,10.1875 C12.3438,10.1875 11.7292,9.90104 11.2813,9.32813 C10.8438,8.75521 10.625,7.97396 10.625,6.98438 C10.625,6.02604 10.849,5.26302 11.2969,4.69531 C11.7448,4.1276 12.3542,3.84375 13.125,3.84375 M22.0469,5.29688 C22.2344,4.80729 22.526,4.44271 22.9219,4.20313 C23.3073,3.96354 23.7604,3.84375 24.2813,3.84375 C24.8021,3.84375 25.2188,4.02604 25.5313,4.39063 C25.8542,4.75521 26.0156,5.41667 26.0156,6.375 L26.0156,10 L25.5313,10 L25.5313,6.40625 C25.5313,5.57292 25.4167,5.01042 25.1875,4.71875 C24.9583,4.42708 24.651,4.28125 24.2656,4.28125 C23.7135,4.28125 23.2292,4.44792 22.8125,4.78125 C22.3438,5.15625 22.1094,5.76042 22.1094,6.59375 L22.1094,10 L21.625,10 L21.625,6.40625 C21.625,5.60417 21.513,5.04948 21.2891,4.74219 C21.0651,4.4349 20.7552,4.28125 20.3594,4.28125 C19.8073,4.28125 19.3229,4.45313 18.9063,4.79688 C18.4375,5.16146 18.2031,5.76042 18.2031,6.59375 L18.2031,10 L17.7188,10 L17.7188,3.98438 L18.2031,3.98438 L18.2031,5.10938 C18.3802,4.71354 18.6563,4.40104 19.0313,4.17188 C19.3958,3.95313 19.849,3.84375 20.3906,3.84375 C20.7448,3.84375 21.0833,3.95833 21.4063,4.1875 C21.6563,4.375 21.8698,4.74479 22.0469,5.29688 M32.75,5.29688 C32.9375,4.80729 33.2292,4.44271 33.625,4.20313 C34.0104,3.96354 34.4635,3.84375 34.9844,3.84375 C35.5052,3.84375 35.9219,4.02604 36.2344,4.39063 C36.5573,4.75521 36.7188,5.41667 36.7188,6.375 L36.7188,10 L36.2344,10 L36.2344,6.40625 C36.2344,5.57292 36.1198,5.01042 35.8906,4.71875 C35.6615,4.42708 35.3542,4.28125 34.9688,4.28125 C34.4167,4.28125 33.9323,4.44792 33.5156,4.78125 C33.0469,5.15625 32.8125,5.76042 32.8125,6.59375 L32.8125,10 L32.3281,10 L32.3281,6.40625 C32.3281,5.60417 32.2161,5.04948 31.9922,4.74219 C31.7682,4.4349 31.4583,4.28125 31.0625,4.28125 C30.5104,4.28125 30.026,4.45313 29.6094,4.79688 C29.1406,5.16146 28.9063,5.76042 28.9063,6.59375 L28.9063,10 L28.4219,10 L28.4219,3.98438 L28.9063,3.98438 L28.9063,5.10938 C29.0833,4.71354 29.3594,4.40104 29.7344,4.17188 C30.099,3.95313 30.5521,3.84375 31.0938,3.84375 C31.4479,3.84375 31.7865,3.95833 32.1094,4.1875 C32.3594,4.375 32.5729,4.74479 32.75,5.29688 M41.5313,6.60938 C40.7292,6.60938 40.1536,6.75 39.8047,7.03125 C39.4557,7.3125 39.2813,7.72396 39.2813,8.26563 C39.2813,8.79688 39.4271,9.17448 39.7188,9.39844 C40.0104,9.6224 40.3542,9.73438 40.75,9.73438 C41.5,9.73438 42.0417,9.41667 42.375,8.78125 C42.7083,8.13542 42.875,7.53125 42.875,6.96875 L42.875,6.60938 L41.5313,6.60938 M43.375,6.5625 L43.375,10 L42.875,10 L42.875,8.35938 C42.6042,9.16146 42.2396,9.67188 41.7813,9.89063 C41.4271,10.0677 41.0677,10.1563 40.7031,10.1563 C40.1094,10.1563 39.6406,9.99479 39.2969,9.67188 C38.9531,9.34896 38.7813,8.8776 38.7813,8.25781 C38.7813,7.63802 39.0052,7.14063 39.4531,6.76563 C39.901,6.39063 40.6302,6.20313 41.6406,6.20313 L42.875,6.20313 L42.875,6.10938 C42.875,5.57813 42.7188,5.14063 42.4063,4.79688 C42.1146,4.45313 41.6198,4.28125 40.9219,4.28125 C40.5781,4.28125 40.2292,4.34375 39.875,4.46875 C39.6458,4.55208 39.3438,4.71875 38.9688,4.96875 L38.9688,4.4375 C39.2917,4.23958 39.5938,4.09896 39.875,4.01563 C40.2708,3.90104 40.651,3.84375 41.0156,3.84375 C41.7344,3.84375 42.3229,4.05729 42.7813,4.48438 C43.1771,4.84896 43.375,5.54167 43.375,6.5625 M50.4063,6.375 L50.4063,10 L49.9063,10 L49.9063,6.40625 C49.9063,5.625 49.7813,5.07552 49.5313,4.75781 C49.2813,4.4401 48.9115,4.28125 48.4219,4.28125 C47.849,4.28125 47.3646,4.45313 46.9688,4.79688 C46.5521,5.14063 46.3438,5.73958 46.3438,6.59375 L46.3438,10 L45.8594,10 L45.8594,3.98438 L46.3438,3.98438 L46.3438,5.10938 C46.5208,4.74479 46.7552,4.46875 47.0469,4.28125 C47.4635,3.98958 47.9271,3.84375 48.4375,3.84375 C49.0417,3.84375 49.5208,4.04688 49.875,4.45313 C50.2292,4.84896 50.4063,5.48958 50.4063,6.375 M56.8281,5.35938 L56.8281,1.64063 L57.2969,1.64063 L57.2969,10 L56.8281,10 L56.8281,8.64063 C56.599,9.16146 56.349,9.51563 56.0781,9.70313 C55.6823,10.0052 55.3021,10.1563 54.9375,10.1563 C54.2292,10.1563 53.638,9.86719 53.1641,9.28906 C52.6901,8.71094 52.4531,7.94792 52.4531,7 C52.4531,6.05208 52.6901,5.28906 53.1641,4.71094 C53.638,4.13281 54.2292,3.84375 54.9375,3.84375 C55.3021,3.84375 55.6823,3.98958 56.0781,4.28125 C56.349,4.47917 56.599,4.83854 56.8281,5.35938 M53.5938,4.90625 C53.1771,5.32292 52.9688,6.02083 52.9688,7 C52.9688,7.97917 53.1771,8.67708 53.5938,9.09375 C54.0104,9.51042 54.4479,9.71875 54.9063,9.71875 C55.3542,9.71875 55.7865,9.51042 56.2031,9.09375 C56.6094,8.67708 56.8125,7.97917 56.8125,7 C56.8125,6.02083 56.6094,5.32292 56.2031,4.90625 C55.7865,4.48958 55.3542,4.28125 54.9063,4.28125 C54.4479,4.28125 54.0104,4.48958 53.5938,4.90625 "/>
</g>

<g fill="none" stroke="#000000" stroke-opacity="1" stroke-width="1" stroke-linecap="square" stroke-linejoin="bevel" transform="matrix(2,0,0,2,600.805,185)"
font-family="sans" font-size="11" font-weight="100" font-style="normal" 
>
</g>

<g fill="none" stroke="#000000" stroke-opacity="1" stroke-width="1" stroke-linecap="square" stroke-linejoin="bevel" transform="matrix(2,0,0,2,600.805,185)"
font-family="Ubuntu" font-size="11" font-weight="400" font-style="normal" 
>
</g>

<g fill="none" stroke="#000000" stroke-opacity="1" stroke-width="1" stroke-linecap="square" stroke-linejoin="bevel" transform="matrix(2,0,0,2,-0.008,288)"
font-family="Ubuntu" font-size="11" font-weight="400" font-style="normal" 
>
</g>

<g fill="none" stroke="#000000" stroke-opacity="1" stroke-width="1" stroke-linecap="square" stroke-linejoin="bevel" transform="matrix(2,0,0,2,-0.008,288)"
font-family="Ubuntu" font-size="11" font-weight="400" font-style="normal" 
>
</g>

<g fill="none" stroke="#000000" stroke-opacity="1" stroke-width="1" stroke-linecap="square" stroke-linejoin="bevel" transform="matrix(2,0,0,2,-0.008,288)"
font-family="Ubuntu" font-size="11" font-weight="400" font-style="normal" 
>
</g>

<g fill="none" stroke="#000000" stroke-opacity="1" stroke-width="1" stroke-linecap="square" stroke-linejoin="round" transform="matrix(2,0,0,2,-0.008,288)"
font-family="Ubuntu" font-size="11" font-weight="400" font-style="normal" 
>
<ellipse cx="511.81" cy="-45" rx="130.137" ry="17.5"/>
</g>

<g fill="none" stroke="#000000" stroke-opacity="1" stroke-width="1" stroke-linecap="square" stroke-linejoin="bevel" transform="matrix(2,0,0,2,-0.008,288)"
font-family="Ubuntu" font-size="11" font-weight="400" font-style="normal" 
>
</g>

<g fill="none" stroke="#000000" stroke-opacity="1" stroke-width="1" stroke-linecap="square" stroke-linejoin="bevel" transform="matrix(2,0,0,2,837.753,185)"
font-family="Ubuntu" font-size="11" font-weight="400" font-style="normal" 
>
</g>

<g fill="none" stroke="#000000" stroke-opacity="1" stroke-width="1" stroke-linecap="square" stroke-linejoin="bevel" transform="matrix(2,0,0,2,837.753,185)"
font-family="sans" font-size="11" font-weight="100" font-style="normal" 
>
</g>

<g fill="#000000" fill-opacity="1" stroke="#000000" stroke-opacity="1" stroke-width="1" stroke-linecap="square" stroke-linejoin="round" transform="matrix(2,0,0,2,837.753,185)"
font-family="sans" font-size="11" font-weight="100" font-style="normal" 
>
<path vector-effect="none" fill-rule="nonzero" d="M2.96875,1.98438 L3.53125,1.98438 L0.734375,11.0156 L0.171875,11.0156 L2.96875,1.98438 M9.0625,4.28125 L9.0625,4.79688 C8.77083,4.61979 8.52604,4.5 8.32813,4.4375 C7.99479,4.33333 7.67708,4.28125 7.375,4.28125 C6.51042,4.28125 5.89063,4.5026 5.51563,4.94531 C5.14063,5.38802 4.95313,6.07292 4.95313,7 C4.95313,7.9375 5.14063,8.6276 5.51563,9.07031 C5.89063,9.51302 6.51042,9.73438 7.375,9.73438 C7.66667,9.73438 7.94792,9.69271 8.21875,9.60938 C8.51042,9.53646 8.79167,9.42188 9.0625,9.26563 L9.0625,9.76563 C8.79167,9.90104 8.51042,10 8.21875,10.0625 C7.91667,10.125 7.61979,10.1563 7.32813,10.1563 C6.45313,10.1563 5.75521,9.91667 5.23438,9.4375 C4.71354,8.95833 4.45313,8.14323 4.45313,6.99219 C4.45313,5.84115 4.71354,5.02604 5.23438,4.54688 C5.75521,4.07813 6.45313,3.84375 7.32813,3.84375 C7.61979,3.84375 7.92708,3.88542 8.25,3.96875 C8.57292,4.04167 8.84375,4.14583 9.0625,4.28125 M14.5781,5.01563 C14.224,4.52604 13.7396,4.28125 13.125,4.28125 C12.5104,4.28125 12.026,4.52604 11.6719,5.01563 C11.3177,5.49479 11.1406,6.15104 11.1406,6.98438 C11.1406,7.83854 11.3177,8.51042 11.6719,9 C12.026,9.48958 12.5104,9.73438 13.125,9.73438 C13.7396,9.73438 14.224,9.48958 14.5781,9 C14.9323,8.5 15.1094,7.82813 15.1094,6.98438 C15.1094,6.16146 14.9323,5.50521 14.5781,5.01563 M13.125,3.84375 C13.8854,3.84375 14.4896,4.13021 14.9375,4.70313 C15.3854,5.27604 15.6094,6.03646 15.6094,6.98438 C15.6094,7.97396 15.3854,8.75521 14.9375,9.32813 C14.4896,9.90104 13.8854,10.1875 13.125,10.1875 C12.3438,10.1875 11.7292,9.90104 11.2813,9.32813 C10.8438,8.75521 10.625,7.97396 10.625,6.98438 C10.625,6.02604 10.849,5.26302 11.2969,4.69531 C11.7448,4.1276 12.3542,3.84375 13.125,3.84375 M22.2656,6.375 L22.2656,10 L21.7656,10 L21.7656,6.40625 C21.7656,5.625 21.6406,5.07552 21.3906,4.75781 C21.1406,4.4401 20.7708,4.28125 20.2813,4.28125 C19.7083,4.28125 19.224,4.45313 18.8281,4.79688 C18.4115,5.14063 18.2031,5.73958 18.2031,6.59375 L18.2031,10 L17.7188,10 L17.7188,3.98438 L18.2031,3.98438 L18.2031,5.10938 C18.3802,4.74479 18.6146,4.46875 18.9063,4.28125 C19.3229,3.98958 19.7865,3.84375 20.2969,3.84375 C20.901,3.84375 21.3802,4.04688 21.7344,4.45313 C22.0885,4.84896 22.2656,5.48958 22.2656,6.375 M25.2031,2.28125 L25.2031,3.98438 L27.2344,3.98438 L27.2344,4.40625 L25.2031,4.40625 L25.2031,8.01563 C25.2031,8.47396 25.2604,8.79688 25.375,8.98438 C25.625,9.38021 25.9844,9.57813 26.4531,9.57813 L27.2344,9.57813 L27.2344,10 L26.4688,10 C25.9792,10 25.5625,9.85677 25.2188,9.57031 C24.875,9.28385 24.7031,8.76563 24.7031,8.01563 L24.7031,4.40625 L23.9844,4.40625 L23.9844,3.98438 L24.7031,3.98438 L24.7031,2.28125 L25.2031,2.28125 M32.2656,4.40625 C32.1823,4.36458 32.0729,4.33333 31.9375,4.3125 C31.8125,4.29167 31.6615,4.28125 31.4844,4.28125 C30.8698,4.28125 30.3646,4.50521 29.9688,4.95313 C29.6458,5.31771 29.4844,5.94271 29.4844,6.82813 L29.4844,10 L29,10 L29,3.98438 L29.4844,3.98438 L29.4844,5.10938 C29.651,4.78646 29.8802,4.51563 30.1719,4.29688 C30.5677,3.99479 31.0365,3.84375 31.5781,3.84375 C31.724,3.84375 31.849,3.84896 31.9531,3.85938 C32.0573,3.85938 32.1615,3.86979 32.2656,3.89063 L32.2656,4.40625 M36.8594,5.01563 C36.5052,4.52604 36.0208,4.28125 35.4063,4.28125 C34.7917,4.28125 34.3073,4.52604 33.9531,5.01563 C33.599,5.49479 33.4219,6.15104 33.4219,6.98438 C33.4219,7.83854 33.599,8.51042 33.9531,9 C34.3073,9.48958 34.7917,9.73438 35.4063,9.73438 C36.0208,9.73438 36.5052,9.48958 36.8594,9 C37.2135,8.5 37.3906,7.82813 37.3906,6.98438 C37.3906,6.16146 37.2135,5.50521 36.8594,5.01563 M35.4063,3.84375 C36.1667,3.84375 36.7708,4.13021 37.2188,4.70313 C37.6667,5.27604 37.8906,6.03646 37.8906,6.98438 C37.8906,7.97396 37.6667,8.75521 37.2188,9.32813 C36.7708,9.90104 36.1667,10.1875 35.4063,10.1875 C34.625,10.1875 34.0104,9.90104 33.5625,9.32813 C33.125,8.75521 32.9063,7.97396 32.9063,6.98438 C32.9063,6.02604 33.1302,5.26302 33.5781,4.69531 C34.026,4.1276 34.6354,3.84375 35.4063,3.84375 M40,1.64063 L40.4844,1.64063 L40.4844,10 L40,10 L40,1.64063 M43.0469,1.64063 L43.5313,1.64063 L43.5313,10 L43.0469,10 L43.0469,1.64063 M50.7813,6.75 L50.7813,7.0625 L46.2188,7.0625 C46.2188,8.02083 46.4063,8.69792 46.7813,9.09375 C47.1979,9.52083 47.8125,9.73438 48.625,9.73438 C48.8438,9.73438 49.1302,9.6875 49.4844,9.59375 C49.8385,9.5 50.1927,9.35938 50.5469,9.17188 L50.5469,9.6875 C50.1927,9.84375 49.8307,9.96094 49.4609,10.0391 C49.0911,10.1172 48.7969,10.1563 48.5781,10.1563 C47.651,10.1563 46.9531,9.90625 46.4844,9.40625 C45.974,8.875 45.7188,8.09375 45.7188,7.0625 C45.7188,5.98958 45.9479,5.1875 46.4063,4.65625 C46.8854,4.11458 47.5521,3.84375 48.4063,3.84375 C49.1875,3.84375 49.7813,4.10417 50.1875,4.625 C50.5833,5.16667 50.7813,5.875 50.7813,6.75 M50.2813,6.64063 C50.2813,5.79688 50.0885,5.18229 49.7031,4.79688 C49.3906,4.45313 48.9583,4.28125 48.4063,4.28125 C47.8125,4.28125 47.3125,4.45833 46.9063,4.8125 C46.5313,5.14583 46.3073,5.75521 46.2344,6.64063 L50.2813,6.64063 M56.125,4.40625 C56.0417,4.36458 55.9323,4.33333 55.7969,4.3125 C55.6719,4.29167 55.5208,4.28125 55.3438,4.28125 C54.7292,4.28125 54.224,4.50521 53.8281,4.95313 C53.5052,5.31771 53.3438,5.94271 53.3438,6.82813 L53.3438,10 L52.8594,10 L52.8594,3.98438 L53.3438,3.98438 L53.3438,5.10938 C53.5104,4.78646 53.7396,4.51563 54.0313,4.29688 C54.4271,3.99479 54.8958,3.84375 55.4375,3.84375 C55.5833,3.84375 55.7083,3.84896 55.8125,3.85938 C55.9167,3.85938 56.0208,3.86979 56.125,3.89063 L56.125,4.40625 M61.7344,12.1719 L61.7344,12.5938 L56.0156,12.5938 L56.0156,12.1719 L61.7344,12.1719 M63.2656,9.5625 L65.0313,9.5625 L65.0313,2.46875 L62.8281,3.35938 L62.8281,2.85938 L65.0156,1.98438 L65.5625,1.98438 L65.5625,9.5625 L67.3438,9.5625 L67.3438,10 L63.2656,10 L63.2656,9.5625 M69.5156,1.98438 L74.3906,1.98438 L74.3906,2.4375 L71.4844,10 L70.9063,10 L73.8281,2.42188 L69.5156,2.42188 L69.5156,1.98438 M76.9219,9.5625 L81.4844,9.5625 L81.4844,10 L76.3594,10 L76.3594,9.4375 L78.3594,7.35938 C78.849,6.85938 79.2969,6.39583 79.7031,5.96875 C80.0677,5.57292 80.3125,5.26563 80.4375,5.04688 C80.5625,4.82813 80.625,4.53646 80.625,4.17188 C80.625,3.55729 80.4375,3.0625 80.0625,2.6875 C79.7917,2.41667 79.349,2.28125 78.7344,2.28125 C78.3698,2.28125 77.9583,2.38542 77.5,2.59375 C77.2917,2.6875 76.9427,2.89063 76.4531,3.20313 L76.4531,2.64063 C76.6615,2.49479 76.9635,2.32813 77.3594,2.14063 C77.8177,1.94271 78.2708,1.83854 78.7188,1.82813 C79.4063,1.82813 79.9844,2.01042 80.4531,2.375 C80.9115,2.72917 81.1406,3.3125 81.1406,4.125 C81.1406,4.45833 81.0781,4.77083 80.9531,5.0625 C80.8073,5.40625 80.5833,5.75521 80.2813,6.10938 C80.1875,6.21354 79.901,6.51042 79.4219,7 L76.9219,9.5625 M86.0781,6 C85.474,6 85,6.16667 84.6563,6.5 C84.3229,6.83333 84.1563,7.28906 84.1563,7.86719 C84.1563,8.44531 84.3229,8.90104 84.6563,9.23438 C85,9.56771 85.4714,9.73438 86.0703,9.73438 C86.6693,9.73438 87.1406,9.56771 87.4844,9.23438 C87.8385,8.90104 88.0156,8.44792 88.0156,7.875 C88.0156,7.29167 87.8438,6.83333 87.5,6.5 C87.1563,6.16667 86.6823,6 86.0781,6 M84.9844,5.73438 C84.6406,5.59896 84.3594,5.38021 84.1406,5.07813 C83.901,4.76563 83.7813,4.38021 83.7813,3.92188 C83.7813,3.27604 83.987,2.76563 84.3984,2.39063 C84.8099,2.01563 85.3698,1.82813 86.0781,1.82813 C86.7865,1.82813 87.3438,2.01563 87.75,2.39063 C88.1563,2.76563 88.3594,3.27604 88.3594,3.92188 C88.3594,4.39063 88.2448,4.77604 88.0156,5.07813 C87.776,5.39063 87.4948,5.60938 87.1719,5.73438 C87.5677,5.85938 87.8906,6.09375 88.1406,6.4375 C88.401,6.79167 88.5313,7.22917 88.5313,7.75 C88.5313,8.52083 88.3229,9.11458 87.9063,9.53125 C87.4792,9.94792 86.8698,10.1563 86.0781,10.1563 C85.2865,10.1563 84.6771,9.94792 84.25,9.53125 C83.8229,9.11458 83.6094,8.52083 83.6094,7.75 C83.6094,7.22917 83.7396,6.79167 84,6.4375 C84.2917,6.08333 84.6198,5.84896 84.9844,5.73438 M84.7891,2.71094 C84.4818,2.9974 84.3281,3.40104 84.3281,3.92188 C84.3281,4.44271 84.4818,4.84896 84.7891,5.14063 C85.0964,5.43229 85.526,5.57813 86.0781,5.57813 C86.6198,5.57813 87.0469,5.43229 87.3594,5.14063 C87.6719,4.84896 87.8281,4.44271 87.8281,3.92188 C87.8281,3.40104 87.6719,3 87.3594,2.71875 C87.0469,2.42708 86.6198,2.28125 86.0781,2.28125 C85.526,2.28125 85.0964,2.42448 84.7891,2.71094 M95.1719,12.1719 L95.1719,12.5938 L89.4531,12.5938 L89.4531,12.1719 L95.1719,12.1719 M96.7031,9.5625 L98.4688,9.5625 L98.4688,2.46875 L96.2656,3.35938 L96.2656,2.85938 L98.4531,1.98438 L99,1.98438 L99,9.5625 L100.781,9.5625 L100.781,10 L96.7031,10 L96.7031,9.5625 M103.453,1.98438 L107.25,1.98438 L107.25,2.42188 L103.984,2.42188 L103.984,5.10938 C104.151,5.04688 104.313,5 104.469,4.96875 C104.625,4.9375 104.854,4.92188 105.156,4.92188 C105.979,4.92188 106.63,5.15104 107.109,5.60938 C107.589,6.05729 107.828,6.66146 107.828,7.42188 C107.828,8.28646 107.578,8.95833 107.078,9.4375 C106.589,9.91667 105.896,10.1563 105,10.1563 C104.708,10.1563 104.406,10.1302 104.094,10.0781 C103.781,10.026 103.458,9.95313 103.125,9.85938 L103.125,9.3125 C103.406,9.4375 103.698,9.53646 104,9.60938 C104.302,9.67188 104.62,9.70313 104.953,9.70313 C105.661,9.70313 106.229,9.5 106.656,9.09375 C107.083,8.6875 107.297,8.13021 107.297,7.42188 C107.297,6.78646 107.089,6.28646 106.672,5.92188 C106.255,5.54688 105.693,5.35938 104.984,5.35938 C104.839,5.35938 104.62,5.40104 104.328,5.48438 C104.047,5.55729 103.755,5.67708 103.453,5.84375 L103.453,1.98438 M110.516,9.82813 L110.516,9.26563 C110.766,9.41146 111.016,9.52604 111.266,9.60938 C111.516,9.68229 111.766,9.71875 112.016,9.71875 C113.078,9.71875 113.823,9.19792 114.25,8.15625 C114.448,7.67708 114.536,6.86979 114.516,5.73438 C114.339,6.13021 114.109,6.4375 113.828,6.65625 C113.464,6.94792 113.005,7.09375 112.453,7.09375 C111.776,7.09375 111.214,6.85417 110.766,6.375 C110.318,5.90625 110.094,5.30208 110.094,4.5625 C110.094,3.73958 110.313,3.07813 110.75,2.57813 C111.198,2.07813 111.771,1.82813 112.469,1.82813 C113.313,1.82813 113.958,2.1875 114.406,2.90625 C114.854,3.61458 115.078,4.64583 115.078,6 C115.078,7.4375 114.802,8.48958 114.25,9.15625 C113.708,9.82292 112.974,10.1563 112.047,10.1563 C111.797,10.1563 111.547,10.1302 111.297,10.0781 C111.047,10.026 110.786,9.94271 110.516,9.82813 M111.156,6.05469 C111.49,6.44531 111.94,6.64063 112.508,6.64063 C113.076,6.64063 113.526,6.44531 113.859,6.05469 C114.193,5.66406 114.359,5.13021 114.359,4.45313 C114.359,3.77604 114.193,3.24219 113.859,2.85156 C113.526,2.46094 113.076,2.26563 112.508,2.26563 C111.94,2.26563 111.49,2.46094 111.156,2.85156 C110.823,3.24219 110.656,3.77604 110.656,4.45313 C110.656,5.13021 110.823,5.66406 111.156,6.05469 M116.922,1.98438 L121.797,1.98438 L121.797,2.4375 L118.891,10 L118.313,10 L121.234,2.42188 L116.922,2.42188 L116.922,1.98438 M127.422,2.28125 L124.094,7.4375 L127.422,7.4375 L127.422,2.28125 M127,1.98438 L127.969,1.98438 L127.969,7.4375 L129.125,7.4375 L129.125,7.875 L127.969,7.875 L127.969,10 L127.422,10 L127.422,7.875 L123.531,7.875 L123.531,7.3125 L127,1.98438 M130.891,1.98438 L135.766,1.98438 L135.766,2.4375 L132.859,10 L132.281,10 L135.203,2.42188 L130.891,2.42188 L130.891,1.98438 M141.438,5.67188 C141.865,5.77604 142.203,6.01042 142.453,6.375 C142.693,6.71875 142.813,7.15104 142.813,7.67188 C142.813,8.46354 142.586,9.07552 142.133,9.50781 C141.68,9.9401 140.953,10.1563 139.953,10.1563 C139.609,10.1563 139.26,10.1042 138.906,10 C138.552,9.89583 138.188,9.72917 137.813,9.5 L137.813,8.92188 C138.115,9.18229 138.443,9.38021 138.797,9.51563 C139.151,9.65104 139.516,9.71875 139.891,9.71875 C140.661,9.71875 141.25,9.54167 141.656,9.1875 C142.063,8.84375 142.266,8.33854 142.266,7.67188 C142.266,7.13021 142.078,6.70313 141.703,6.39063 C141.328,6.08854 140.802,5.9375 140.125,5.9375 L139.188,5.9375 L139.188,5.48438 L140.172,5.48438 C140.786,5.48438 141.26,5.35938 141.594,5.10938 C141.917,4.85938 142.078,4.5 142.078,4.03125 C142.078,3.46875 141.911,3.03646 141.578,2.73438 C141.234,2.43229 140.75,2.28125 140.125,2.28125 C139.833,2.28125 139.516,2.33333 139.172,2.4375 C138.828,2.54167 138.453,2.70313 138.047,2.92188 L138.047,2.375 C138.464,2.19792 138.849,2.06771 139.203,1.98438 C139.568,1.89063 139.906,1.83854 140.219,1.82813 C141.042,1.82813 141.651,2.01563 142.047,2.39063 C142.432,2.76563 142.625,3.27604 142.625,3.92188 C142.625,4.33854 142.521,4.70833 142.313,5.03125 C142.115,5.34375 141.823,5.55729 141.438,5.67188 M148.422,5.67188 C148.849,5.77604 149.188,6.01042 149.438,6.375 C149.677,6.71875 149.797,7.15104 149.797,7.67188 C149.797,8.46354 149.57,9.07552 149.117,9.50781 C148.664,9.9401 147.938,10.1563 146.938,10.1563 C146.594,10.1563 146.245,10.1042 145.891,10 C145.536,9.89583 145.172,9.72917 144.797,9.5 L144.797,8.92188 C145.099,9.18229 145.427,9.38021 145.781,9.51563 C146.135,9.65104 146.5,9.71875 146.875,9.71875 C147.646,9.71875 148.234,9.54167 148.641,9.1875 C149.047,8.84375 149.25,8.33854 149.25,7.67188 C149.25,7.13021 149.063,6.70313 148.688,6.39063 C148.313,6.08854 147.786,5.9375 147.109,5.9375 L146.172,5.9375 L146.172,5.48438 L147.156,5.48438 C147.771,5.48438 148.245,5.35938 148.578,5.10938 C148.901,4.85938 149.063,4.5 149.063,4.03125 C149.063,3.46875 148.896,3.03646 148.563,2.73438 C148.219,2.43229 147.734,2.28125 147.109,2.28125 C146.818,2.28125 146.5,2.33333 146.156,2.4375 C145.813,2.54167 145.438,2.70313 145.031,2.92188 L145.031,2.375 C145.448,2.19792 145.833,2.06771 146.188,1.98438 C146.552,1.89063 146.891,1.83854 147.203,1.82813 C148.026,1.82813 148.635,2.01563 149.031,2.39063 C149.417,2.76563 149.609,3.27604 149.609,3.92188 C149.609,4.33854 149.505,4.70833 149.297,5.03125 C149.099,5.34375 148.807,5.55729 148.422,5.67188 M155.922,5.92969 C155.589,5.53906 155.138,5.34375 154.57,5.34375 C154.003,5.34375 153.552,5.53906 153.219,5.92969 C152.885,6.32031 152.719,6.85417 152.719,7.53125 C152.719,8.20833 152.885,8.74219 153.219,9.13281 C153.552,9.52344 154.003,9.71875 154.57,9.71875 C155.138,9.71875 155.589,9.52344 155.922,9.13281 C156.255,8.74219 156.422,8.20833 156.422,7.53125 C156.422,6.85417 156.255,6.32031 155.922,5.92969 M156.578,2.15625 L156.578,2.73438 C156.328,2.57813 156.073,2.46354 155.813,2.39063 C155.563,2.30729 155.313,2.26563 155.063,2.26563 C154,2.26563 153.255,2.79167 152.828,3.84375 C152.63,4.3125 152.542,5.11979 152.563,6.26563 C152.74,5.86979 152.969,5.5625 153.25,5.34375 C153.615,5.05208 154.078,4.90625 154.641,4.90625 C155.307,4.90625 155.865,5.14063 156.313,5.60938 C156.76,6.08854 156.984,6.69271 156.984,7.42188 C156.984,8.24479 156.766,8.90625 156.328,9.40625 C155.891,9.90625 155.318,10.1563 154.609,10.1563 C153.766,10.1563 153.12,9.80208 152.672,9.09375 C152.224,8.375 152,7.34375 152,6 C152,4.5625 152.276,3.50521 152.828,2.82813 C153.37,2.16146 154.104,1.82813 155.031,1.82813 C155.281,1.82813 155.531,1.85938 155.781,1.92188 C156.031,1.97396 156.297,2.05208 156.578,2.15625 M159.328,1.98438 L163.125,1.98438 L163.125,2.42188 L159.859,2.42188 L159.859,5.10938 C160.026,5.04688 160.188,5 160.344,4.96875 C160.5,4.9375 160.729,4.92188 161.031,4.92188 C161.854,4.92188 162.505,5.15104 162.984,5.60938 C163.464,6.05729 163.703,6.66146 163.703,7.42188 C163.703,8.28646 163.453,8.95833 162.953,9.4375 C162.464,9.91667 161.771,10.1563 160.875,10.1563 C160.583,10.1563 160.281,10.1302 159.969,10.0781 C159.656,10.026 159.333,9.95313 159,9.85938 L159,9.3125 C159.281,9.4375 159.573,9.53646 159.875,9.60938 C160.177,9.67188 160.495,9.70313 160.828,9.70313 C161.536,9.70313 162.104,9.5 162.531,9.09375 C162.958,8.6875 163.172,8.13021 163.172,7.42188 C163.172,6.78646 162.964,6.28646 162.547,5.92188 C162.13,5.54688 161.568,5.35938 160.859,5.35938 C160.714,5.35938 160.495,5.40104 160.203,5.48438 C159.922,5.55729 159.63,5.67708 159.328,5.84375 L159.328,1.98438 M169.328,2.28125 L166,7.4375 L169.328,7.4375 L169.328,2.28125 M168.906,1.98438 L169.875,1.98438 L169.875,7.4375 L171.031,7.4375 L171.031,7.875 L169.875,7.875 L169.875,10 L169.328,10 L169.328,7.875 L165.438,7.875 L165.438,7.3125 L168.906,1.98438 M175.359,2.28125 C174.703,2.28125 174.214,2.59896 173.891,3.23438 C173.578,3.86979 173.422,4.78906 173.422,5.99219 C173.422,7.19531 173.578,8.11979 173.891,8.76563 C174.214,9.40104 174.703,9.71875 175.359,9.71875 C176.036,9.71875 176.531,9.40104 176.844,8.76563 C177.167,8.11979 177.328,7.19531 177.328,5.99219 C177.328,4.78906 177.167,3.86979 176.844,3.23438 C176.531,2.59896 176.036,2.28125 175.359,2.28125 M175.359,1.82813 C176.13,1.82813 176.74,2.14583 177.188,2.78125 C177.646,3.41667 177.875,4.48958 177.875,6 C177.875,7.51042 177.646,8.58333 177.188,9.21875 C176.74,9.84375 176.13,10.1563 175.359,10.1563 C174.609,10.1563 174.005,9.84375 173.547,9.21875 C173.099,8.58333 172.875,7.51042 172.875,6 C172.875,4.48958 173.099,3.41667 173.547,2.78125 C174.005,2.14583 174.609,1.82813 175.359,1.82813 M180.203,9.5625 L184.766,9.5625 L184.766,10 L179.641,10 L179.641,9.4375 L181.641,7.35938 C182.13,6.85938 182.578,6.39583 182.984,5.96875 C183.349,5.57292 183.594,5.26563 183.719,5.04688 C183.844,4.82813 183.906,4.53646 183.906,4.17188 C183.906,3.55729 183.719,3.0625 183.344,2.6875 C183.073,2.41667 182.63,2.28125 182.016,2.28125 C181.651,2.28125 181.24,2.38542 180.781,2.59375 C180.573,2.6875 180.224,2.89063 179.734,3.20313 L179.734,2.64063 C179.943,2.49479 180.245,2.32813 180.641,2.14063 C181.099,1.94271 181.552,1.83854 182,1.82813 C182.688,1.82813 183.266,2.01042 183.734,2.375 C184.193,2.72917 184.422,3.3125 184.422,4.125 C184.422,4.45833 184.359,4.77083 184.234,5.0625 C184.089,5.40625 183.865,5.75521 183.563,6.10938 C183.469,6.21354 183.182,6.51042 182.703,7 L180.203,9.5625"/>
</g>

<g fill="none" stroke="#000000" stroke-opacity="1" stroke-width="1" stroke-linecap="square" stroke-linejoin="bevel" transform="matrix(2,0,0,2,837.753,185)"
font-family="sans" font-size="11" font-weight="100" font-style="normal" 
>
</g>

<g fill="none" stroke="#000000" stroke-opacity="1" stroke-width="1" stroke-linecap="square" stroke-linejoin="bevel" transform="matrix(2,0,0,2,837.753,185)"
font-family="Ubuntu" font-size="11" font-weight="400" font-style="normal" 
>
</g>

<g fill="none" stroke="#000000" stroke-opacity="1" stroke-width="1" stroke-linecap="square" stroke-linejoin="bevel" transform="matrix(2,0,0,2,-0.008,288)"
font-family="Ubuntu" font-size="11" font-weight="400" font-style="normal" 
>
</g>

<g fill="none" stroke="#000000" stroke-opacity="1" stroke-width="1" stroke-linecap="square" stroke-linejoin="bevel" transform="matrix(2,0,0,2,-0.008,288)"
font-family="Ubuntu" font-size="11" font-weight="400" font-style="normal" 
>
</g>

<g fill="none" stroke="#000000" stroke-opacity="1" stroke-width="1" stroke-linecap="square" stroke-linejoin="bevel" transform="matrix(2,0,0,2,-0.008,288)"
font-family="Ubuntu" font-size="11" font-weight="400" font-style="normal" 
>
</g>

<g fill="none" stroke="#000000" stroke-opacity="1" stroke-width="1" stroke-linecap="square" stroke-linejoin="round" transform="matrix(2,0,0,2,-0.008,288)"
font-family="Ubuntu" font-size="11" font-weight="400" font-style="normal" 
>
<ellipse cx="139.09" cy="-72" rx="87.2428" ry="17.5"/>
</g>

<g fill="none" stroke="#000000" stroke-opacity="1" stroke-width="1" stroke-linecap="square" stroke-linejoin="bevel" transform="matrix(2,0,0,2,-0.008,288)"
font-family="Ubuntu" font-size="11" font-weight="400" font-style="normal" 
>
</g>

<g fill="none" stroke="#000000" stroke-opacity="1" stroke-width="1" stroke-linecap="square" stroke-linejoin="bevel" transform="matrix(2,0,0,2,159.141,131)"
font-family="Ubuntu" font-size="11" font-weight="400" font-style="normal" 
>
</g>

<g fill="none" stroke="#000000" stroke-opacity="1" stroke-width="1" stroke-linecap="square" stroke-linejoin="bevel" transform="matrix(2,0,0,2,159.141,131)"
font-family="sans" font-size="11" font-weight="100" font-style="normal" 
>
</g>

<g fill="#000000" fill-opacity="1" stroke="#000000" stroke-opacity="1" stroke-width="1" stroke-linecap="square" stroke-linejoin="round" transform="matrix(2,0,0,2,159.141,131)"
font-family="sans" font-size="11" font-weight="100" font-style="normal" 
>
<path vector-effect="none" fill-rule="nonzero" d="M2.96875,1.98438 L3.53125,1.98438 L0.734375,11.0156 L0.171875,11.0156 L2.96875,1.98438 M8.21875,4.40625 C8.13542,4.36458 8.02604,4.33333 7.89063,4.3125 C7.76563,4.29167 7.61458,4.28125 7.4375,4.28125 C6.82292,4.28125 6.31771,4.50521 5.92188,4.95313 C5.59896,5.31771 5.4375,5.94271 5.4375,6.82813 L5.4375,10 L4.95313,10 L4.95313,3.98438 L5.4375,3.98438 L5.4375,5.10938 C5.60417,4.78646 5.83333,4.51563 6.125,4.29688 C6.52083,3.99479 6.98958,3.84375 7.53125,3.84375 C7.67708,3.84375 7.80208,3.84896 7.90625,3.85938 C8.01042,3.85938 8.11458,3.86979 8.21875,3.89063 L8.21875,4.40625 M12.8125,5.01563 C12.4583,4.52604 11.974,4.28125 11.3594,4.28125 C10.7448,4.28125 10.2604,4.52604 9.90625,5.01563 C9.55208,5.49479 9.375,6.15104 9.375,6.98438 C9.375,7.83854 9.55208,8.51042 9.90625,9 C10.2604,9.48958 10.7448,9.73438 11.3594,9.73438 C11.974,9.73438 12.4583,9.48958 12.8125,9 C13.1667,8.5 13.3438,7.82813 13.3438,6.98438 C13.3438,6.16146 13.1667,5.50521 12.8125,5.01563 M11.3594,3.84375 C12.1198,3.84375 12.724,4.13021 13.1719,4.70313 C13.6198,5.27604 13.8438,6.03646 13.8438,6.98438 C13.8438,7.97396 13.6198,8.75521 13.1719,9.32813 C12.724,9.90104 12.1198,10.1875 11.3594,10.1875 C10.5781,10.1875 9.96354,9.90104 9.51563,9.32813 C9.07813,8.75521 8.85938,7.97396 8.85938,6.98438 C8.85938,6.02604 9.08333,5.26302 9.53125,4.69531 C9.97917,4.1276 10.5885,3.84375 11.3594,3.84375 M19.3594,4.15625 L19.3594,4.70313 C19.0052,4.50521 18.7865,4.39583 18.7031,4.375 C18.4531,4.32292 18.1406,4.29167 17.7656,4.28125 C17.2031,4.28125 16.7604,4.39063 16.4375,4.60938 C16.1875,4.79688 16.0625,5.11458 16.0625,5.5625 C16.0625,5.875 16.1823,6.11458 16.4219,6.28125 C16.6615,6.46875 17.0104,6.61458 17.4688,6.71875 L17.8125,6.78125 C18.3854,6.90625 18.8177,7.08333 19.1094,7.3125 C19.4531,7.58333 19.6302,7.92708 19.6406,8.34375 C19.6406,8.90625 19.474,9.34896 19.1406,9.67188 C18.7865,9.99479 18.2083,10.1563 17.4063,10.1563 C16.9688,10.1563 16.6354,10.125 16.4063,10.0625 C16.125,9.98958 15.8333,9.89583 15.5313,9.78125 L15.5313,9.15625 C15.9688,9.40625 16.25,9.55208 16.375,9.59375 C16.7292,9.6875 17.0833,9.73438 17.4375,9.73438 C18.0104,9.73438 18.4375,9.61458 18.7188,9.375 C19,9.125 19.1406,8.80729 19.1406,8.42188 C19.1406,8.08854 19.0469,7.84896 18.8594,7.70313 C18.5885,7.48438 18.1615,7.30729 17.5781,7.17188 L17.2344,7.09375 C16.724,6.96875 16.3385,6.80208 16.0781,6.59375 C15.7448,6.32292 15.5781,5.99479 15.5781,5.60938 C15.5781,4.98438 15.7786,4.53385 16.1797,4.25781 C16.5807,3.98177 17.0729,3.84375 17.6563,3.84375 C18.1563,3.84375 18.5,3.86979 18.6875,3.92188 C18.9167,3.98438 19.1406,4.0625 19.3594,4.15625 M25.3906,9.09375 C25.8073,8.67708 26.0156,7.97917 26.0156,7 C26.0156,6.02083 25.8073,5.32292 25.3906,4.90625 C24.974,4.48958 24.5365,4.28125 24.0781,4.28125 C23.6302,4.28125 23.1979,4.48958 22.7813,4.90625 C22.375,5.32292 22.1719,6.02083 22.1719,7 C22.1719,7.97917 22.375,8.67708 22.7813,9.09375 C23.1979,9.51042 23.6302,9.71875 24.0781,9.71875 C24.5365,9.71875 24.974,9.51042 25.3906,9.09375 M22.1563,5.35938 C22.3854,4.83854 22.6302,4.47917 22.8906,4.28125 C23.2969,3.98958 23.6823,3.84375 24.0469,3.84375 C24.7552,3.84375 25.3464,4.13281 25.8203,4.71094 C26.2943,5.28906 26.5313,6.05208 26.5313,7 C26.5313,7.94792 26.2943,8.71094 25.8203,9.28906 C25.3464,9.86719 24.7552,10.1563 24.0469,10.1563 C23.6823,10.1563 23.2969,10.0052 22.8906,9.70313 C22.6302,9.51563 22.3854,9.16146 22.1563,8.64063 L22.1563,10 L21.6719,10 L21.6719,1.64063 L22.1563,1.64063 L22.1563,5.35938 M31.9063,4.40625 C31.8229,4.36458 31.7135,4.33333 31.5781,4.3125 C31.4531,4.29167 31.3021,4.28125 31.125,4.28125 C30.5104,4.28125 30.0052,4.50521 29.6094,4.95313 C29.2865,5.31771 29.125,5.94271 29.125,6.82813 L29.125,10 L28.6406,10 L28.6406,3.98438 L29.125,3.98438 L29.125,5.10938 C29.2917,4.78646 29.5208,4.51563 29.8125,4.29688 C30.2083,3.99479 30.6771,3.84375 31.2188,3.84375 C31.3646,3.84375 31.4896,3.84896 31.5938,3.85938 C31.6979,3.85938 31.8021,3.86979 31.9063,3.89063 L31.9063,4.40625 M33.1406,3.98438 L33.6406,3.98438 L33.6406,10 L33.1406,10 L33.1406,3.98438 M33.1406,1.64063 L33.6406,1.64063 L33.6406,2.3125 L33.1406,2.3125 L33.1406,1.64063 M40.2031,5.35938 L40.2031,1.64063 L40.6719,1.64063 L40.6719,10 L40.2031,10 L40.2031,8.64063 C39.974,9.16146 39.724,9.51563 39.4531,9.70313 C39.0573,10.0052 38.6771,10.1563 38.3125,10.1563 C37.6042,10.1563 37.013,9.86719 36.5391,9.28906 C36.0651,8.71094 35.8281,7.94792 35.8281,7 C35.8281,6.05208 36.0651,5.28906 36.5391,4.71094 C37.013,4.13281 37.6042,3.84375 38.3125,3.84375 C38.6771,3.84375 39.0573,3.98958 39.4531,4.28125 C39.724,4.47917 39.974,4.83854 40.2031,5.35938 M36.9688,4.90625 C36.5521,5.32292 36.3438,6.02083 36.3438,7 C36.3438,7.97917 36.5521,8.67708 36.9688,9.09375 C37.3854,9.51042 37.8229,9.71875 38.2813,9.71875 C38.7292,9.71875 39.1615,9.51042 39.5781,9.09375 C39.9844,8.67708 40.1875,7.97917 40.1875,7 C40.1875,6.02083 39.9844,5.32292 39.5781,4.90625 C39.1615,4.48958 38.7292,4.28125 38.2813,4.28125 C37.8229,4.28125 37.3854,4.48958 36.9688,4.90625 M47.1719,6.92188 C47.1719,6.08854 47.0026,5.44271 46.6641,4.98438 C46.3255,4.52604 45.849,4.29688 45.2344,4.29688 C44.6302,4.29688 44.1589,4.52604 43.8203,4.98438 C43.4818,5.44271 43.3125,6.08854 43.3125,6.92188 C43.3125,7.75521 43.4818,8.40104 43.8203,8.85938 C44.1589,9.31771 44.6302,9.54688 45.2344,9.54688 C45.849,9.54688 46.3255,9.31771 46.6641,8.85938 C47.0026,8.40104 47.1719,7.75521 47.1719,6.92188 M47.6563,9.25 C47.6563,10.5 47.4193,11.3177 46.9453,11.7031 C46.4714,12.0885 45.8698,12.2813 45.1406,12.2813 C44.7865,12.2813 44.4583,12.2604 44.1563,12.2188 C43.8438,12.1563 43.5417,12.0729 43.25,11.9688 L43.25,11.4063 C43.5417,11.5625 43.8281,11.6797 44.1094,11.7578 C44.3906,11.8359 44.6823,11.875 44.9844,11.875 C45.5781,11.875 46.0911,11.7474 46.5234,11.4922 C46.9557,11.237 47.1719,10.5521 47.1719,9.4375 L47.1719,8.48438 C47.0156,8.90104 46.8125,9.22917 46.5625,9.46875 C46.1667,9.82292 45.724,10 45.2344,10 C44.474,10 43.8802,9.73177 43.4531,9.19531 C43.026,8.65885 42.8125,7.90104 42.8125,6.92188 C42.8125,5.94271 43.026,5.1849 43.4531,4.64844 C43.8802,4.11198 44.474,3.84375 45.2344,3.84375 C45.724,3.84375 46.1406,3.99479 46.4844,4.29688 C46.7552,4.53646 46.9844,4.85938 47.1719,5.26563 L47.1719,3.98438 L47.6563,3.98438 L47.6563,9.25 M54.4531,6.75 L54.4531,7.0625 L49.8906,7.0625 C49.8906,8.02083 50.0781,8.69792 50.4531,9.09375 C50.8698,9.52083 51.4844,9.73438 52.2969,9.73438 C52.5156,9.73438 52.8021,9.6875 53.1563,9.59375 C53.5104,9.5 53.8646,9.35938 54.2188,9.17188 L54.2188,9.6875 C53.8646,9.84375 53.5026,9.96094 53.1328,10.0391 C52.763,10.1172 52.4688,10.1563 52.25,10.1563 C51.3229,10.1563 50.625,9.90625 50.1563,9.40625 C49.6458,8.875 49.3906,8.09375 49.3906,7.0625 C49.3906,5.98958 49.6198,5.1875 50.0781,4.65625 C50.5573,4.11458 51.224,3.84375 52.0781,3.84375 C52.8594,3.84375 53.4531,4.10417 53.8594,4.625 C54.2552,5.16667 54.4531,5.875 54.4531,6.75 M53.9531,6.64063 C53.9531,5.79688 53.7604,5.18229 53.375,4.79688 C53.0625,4.45313 52.6302,4.28125 52.0781,4.28125 C51.4844,4.28125 50.9844,4.45833 50.5781,4.8125 C50.2031,5.14583 49.9792,5.75521 49.9063,6.64063 L53.9531,6.64063 M60.8906,12.1719 L60.8906,12.5938 L55.1719,12.5938 L55.1719,12.1719 L60.8906,12.1719 M61.4844,3.98438 L61.9844,3.98438 L63.4063,9.34375 L64.7969,3.98438 L65.4375,3.98438 L66.8438,9.375 L68.25,3.98438 L68.7656,3.98438 L67.1875,10 L66.5,10 L65.1094,4.71875 L63.7344,10 L63.0625,10 L61.4844,3.98438 M75.7031,6.75 L75.7031,7.0625 L71.1406,7.0625 C71.1406,8.02083 71.3281,8.69792 71.7031,9.09375 C72.1198,9.52083 72.7344,9.73438 73.5469,9.73438 C73.7656,9.73438 74.0521,9.6875 74.4063,9.59375 C74.7604,9.5 75.1146,9.35938 75.4688,9.17188 L75.4688,9.6875 C75.1146,9.84375 74.7526,9.96094 74.3828,10.0391 C74.013,10.1172 73.7188,10.1563 73.5,10.1563 C72.5729,10.1563 71.875,9.90625 71.4063,9.40625 C70.8958,8.875 70.6406,8.09375 70.6406,7.0625 C70.6406,5.98958 70.8698,5.1875 71.3281,4.65625 C71.8073,4.11458 72.474,3.84375 73.3281,3.84375 C74.1094,3.84375 74.7031,4.10417 75.1094,4.625 C75.5052,5.16667 75.7031,5.875 75.7031,6.75 M75.2031,6.64063 C75.2031,5.79688 75.0104,5.18229 74.625,4.79688 C74.3125,4.45313 73.8802,4.28125 73.3281,4.28125 C72.7344,4.28125 72.2344,4.45833 71.8281,4.8125 C71.4531,5.14583 71.2292,5.75521 71.1563,6.64063 L75.2031,6.64063 M81.5,9.09375 C81.9167,8.67708 82.125,7.97917 82.125,7 C82.125,6.02083 81.9167,5.32292 81.5,4.90625 C81.0833,4.48958 80.6458,4.28125 80.1875,4.28125 C79.7396,4.28125 79.3073,4.48958 78.8906,4.90625 C78.4844,5.32292 78.2813,6.02083 78.2813,7 C78.2813,7.97917 78.4844,8.67708 78.8906,9.09375 C79.3073,9.51042 79.7396,9.71875 80.1875,9.71875 C80.6458,9.71875 81.0833,9.51042 81.5,9.09375 M78.2656,5.35938 C78.4948,4.83854 78.7396,4.47917 79,4.28125 C79.4063,3.98958 79.7917,3.84375 80.1563,3.84375 C80.8646,3.84375 81.4557,4.13281 81.9297,4.71094 C82.4036,5.28906 82.6406,6.05208 82.6406,7 C82.6406,7.94792 82.4036,8.71094 81.9297,9.28906 C81.4557,9.86719 80.8646,10.1563 80.1563,10.1563 C79.7917,10.1563 79.4063,10.0052 79,9.70313 C78.7396,9.51563 78.4948,9.16146 78.2656,8.64063 L78.2656,10 L77.7813,10 L77.7813,1.64063 L78.2656,1.64063 L78.2656,5.35938 M88.1563,4.15625 L88.1563,4.70313 C87.8021,4.50521 87.5833,4.39583 87.5,4.375 C87.25,4.32292 86.9375,4.29167 86.5625,4.28125 C86,4.28125 85.5573,4.39063 85.2344,4.60938 C84.9844,4.79688 84.8594,5.11458 84.8594,5.5625 C84.8594,5.875 84.9792,6.11458 85.2188,6.28125 C85.4583,6.46875 85.8073,6.61458 86.2656,6.71875 L86.6094,6.78125 C87.1823,6.90625 87.6146,7.08333 87.9063,7.3125 C88.25,7.58333 88.4271,7.92708 88.4375,8.34375 C88.4375,8.90625 88.2708,9.34896 87.9375,9.67188 C87.5833,9.99479 87.0052,10.1563 86.2031,10.1563 C85.7656,10.1563 85.4323,10.125 85.2031,10.0625 C84.9219,9.98958 84.6302,9.89583 84.3281,9.78125 L84.3281,9.15625 C84.7656,9.40625 85.0469,9.55208 85.1719,9.59375 C85.526,9.6875 85.8802,9.73438 86.2344,9.73438 C86.8073,9.73438 87.2344,9.61458 87.5156,9.375 C87.7969,9.125 87.9375,8.80729 87.9375,8.42188 C87.9375,8.08854 87.8438,7.84896 87.6563,7.70313 C87.3854,7.48438 86.9583,7.30729 86.375,7.17188 L86.0313,7.09375 C85.5208,6.96875 85.1354,6.80208 84.875,6.59375 C84.5417,6.32292 84.375,5.99479 84.375,5.60938 C84.375,4.98438 84.5755,4.53385 84.9766,4.25781 C85.3776,3.98177 85.8698,3.84375 86.4531,3.84375 C86.9531,3.84375 87.2969,3.86979 87.4844,3.92188 C87.7135,3.98438 87.9375,4.0625 88.1563,4.15625 M94.0469,5.01563 C93.6927,4.52604 93.2083,4.28125 92.5938,4.28125 C91.9792,4.28125 91.4948,4.52604 91.1406,5.01563 C90.7865,5.49479 90.6094,6.15104 90.6094,6.98438 C90.6094,7.83854 90.7865,8.51042 91.1406,9 C91.4948,9.48958 91.9792,9.73438 92.5938,9.73438 C93.2083,9.73438 93.6927,9.48958 94.0469,9 C94.401,8.5 94.5781,7.82813 94.5781,6.98438 C94.5781,6.16146 94.401,5.50521 94.0469,5.01563 M92.5938,3.84375 C93.3542,3.84375 93.9583,4.13021 94.4063,4.70313 C94.8542,5.27604 95.0781,6.03646 95.0781,6.98438 C95.0781,7.97396 94.8542,8.75521 94.4063,9.32813 C93.9583,9.90104 93.3542,10.1875 92.5938,10.1875 C91.8125,10.1875 91.1979,9.90104 90.75,9.32813 C90.3125,8.75521 90.0938,7.97396 90.0938,6.98438 C90.0938,6.02604 90.3177,5.26302 90.7656,4.69531 C91.2135,4.1276 91.8229,3.84375 92.5938,3.84375 M101.297,4.28125 L101.297,4.79688 C101.005,4.61979 100.76,4.5 100.563,4.4375 C100.229,4.33333 99.9115,4.28125 99.6094,4.28125 C98.7448,4.28125 98.125,4.5026 97.75,4.94531 C97.375,5.38802 97.1875,6.07292 97.1875,7 C97.1875,7.9375 97.375,8.6276 97.75,9.07031 C98.125,9.51302 98.7448,9.73438 99.6094,9.73438 C99.901,9.73438 100.182,9.69271 100.453,9.60938 C100.745,9.53646 101.026,9.42188 101.297,9.26563 L101.297,9.76563 C101.026,9.90104 100.745,10 100.453,10.0625 C100.151,10.125 99.8542,10.1563 99.5625,10.1563 C98.6875,10.1563 97.9896,9.91667 97.4688,9.4375 C96.9479,8.95833 96.6875,8.14323 96.6875,6.99219 C96.6875,5.84115 96.9479,5.02604 97.4688,4.54688 C97.9896,4.07813 98.6875,3.84375 99.5625,3.84375 C99.8542,3.84375 100.161,3.88542 100.484,3.96875 C100.807,4.04167 101.078,4.14583 101.297,4.28125 M103.734,1.64063 L104.234,1.64063 L104.234,6.71875 L107.219,3.98438 L107.891,3.98438 L104.781,6.82813 L108,10 L107.359,10 L104.234,6.92188 L104.234,10 L103.734,10 L103.734,1.64063 M113.891,6.75 L113.891,7.0625 L109.328,7.0625 C109.328,8.02083 109.516,8.69792 109.891,9.09375 C110.307,9.52083 110.922,9.73438 111.734,9.73438 C111.953,9.73438 112.24,9.6875 112.594,9.59375 C112.948,9.5 113.302,9.35938 113.656,9.17188 L113.656,9.6875 C113.302,9.84375 112.94,9.96094 112.57,10.0391 C112.201,10.1172 111.906,10.1563 111.688,10.1563 C110.76,10.1563 110.063,9.90625 109.594,9.40625 C109.083,8.875 108.828,8.09375 108.828,7.0625 C108.828,5.98958 109.057,5.1875 109.516,4.65625 C109.995,4.11458 110.661,3.84375 111.516,3.84375 C112.297,3.84375 112.891,4.10417 113.297,4.625 C113.693,5.16667 113.891,5.875 113.891,6.75 M113.391,6.64063 C113.391,5.79688 113.198,5.18229 112.813,4.79688 C112.5,4.45313 112.068,4.28125 111.516,4.28125 C110.922,4.28125 110.422,4.45833 110.016,4.8125 C109.641,5.14583 109.417,5.75521 109.344,6.64063 L113.391,6.64063 M116.484,2.28125 L116.484,3.98438 L118.516,3.98438 L118.516,4.40625 L116.484,4.40625 L116.484,8.01563 C116.484,8.47396 116.542,8.79688 116.656,8.98438 C116.906,9.38021 117.266,9.57813 117.734,9.57813 L118.516,9.57813 L118.516,10 L117.75,10 C117.26,10 116.844,9.85677 116.5,9.57031 C116.156,9.28385 115.984,8.76563 115.984,8.01563 L115.984,4.40625 L115.266,4.40625 L115.266,3.98438 L115.984,3.98438 L115.984,2.28125 L116.484,2.28125"/>
</g>

<g fill="none" stroke="#000000" stroke-opacity="1" stroke-width="1" stroke-linecap="square" stroke-linejoin="bevel" transform="matrix(2,0,0,2,159.141,131)"
font-family="sans" font-size="11" font-weight="100" font-style="normal" 
>
</g>

<g fill="none" stroke="#000000" stroke-opacity="1" stroke-width="1" stroke-linecap="square" stroke-linejoin="bevel" transform="matrix(2,0,0,2,159.141,131)"
font-family="Ubuntu" font-size="11" font-weight="400" font-style="normal" 
>
</g>

<g fill="none" stroke="#000000" stroke-opacity="1" stroke-width="1" stroke-linecap="square" stroke-linejoin="bevel" transform="matrix(2,0,0,2,-0.008,288)"
font-family="Ubuntu" font-size="11" font-weight="400" font-style="normal" 
>
</g>

<g fill="none" stroke="#000000" stroke-opacity="1" stroke-width="1" stroke-linecap="square" stroke-linejoin="bevel" transform="matrix(2,0,0,2,-0.008,288)"
font-family="Ubuntu" font-size="11" font-weight="400" font-style="normal" 
>
</g>

<g fill="none" stroke="#000000" stroke-opacity="1" stroke-width="1" stroke-linecap="square" stroke-linejoin="bevel" transform="matrix(2,0,0,2,-0.008,288)"
font-family="Ubuntu" font-size="11" font-weight="400" font-style="normal" 
>
</g>

<g fill="none" stroke="#000000" stroke-opacity="1" stroke-width="1" stroke-linecap="square" stroke-linejoin="round" transform="matrix(2,0,0,2,-0.008,288)"
font-family="Ubuntu" font-size="11" font-weight="400" font-style="normal" 
>
<ellipse cx="139.09" cy="-126" rx="33.947" ry="17.5"/>
</g>

<g fill="none" stroke="#000000" stroke-opacity="1" stroke-width="1" stroke-linecap="square" stroke-linejoin="bevel" transform="matrix(2,0,0,2,-0.008,288)"
font-family="Ubuntu" font-size="11" font-weight="400" font-style="normal" 
>
</g>

<g fill="none" stroke="#000000" stroke-opacity="1" stroke-width="1" stroke-linecap="square" stroke-linejoin="bevel" transform="matrix(2,0,0,2,241,23)"
font-family="Ubuntu" font-size="11" font-weight="400" font-style="normal" 
>
</g>

<g fill="none" stroke="#000000" stroke-opacity="1" stroke-width="1" stroke-linecap="square" stroke-linejoin="bevel" transform="matrix(2,0,0,2,241,23)"
font-family="sans" font-size="11" font-weight="100" font-style="normal" 
>
</g>

<g fill="#000000" fill-opacity="1" stroke="#000000" stroke-opacity="1" stroke-width="1" stroke-linecap="square" stroke-linejoin="round" transform="matrix(2,0,0,2,241,23)"
font-family="sans" font-size="11" font-weight="100" font-style="normal" 
>
<path vector-effect="none" fill-rule="nonzero" d="M2.96875,1.98438 L3.53125,1.98438 L0.734375,11.0156 L0.171875,11.0156 L2.96875,1.98438 M8.21875,4.40625 C8.13542,4.36458 8.02604,4.33333 7.89063,4.3125 C7.76563,4.29167 7.61458,4.28125 7.4375,4.28125 C6.82292,4.28125 6.31771,4.50521 5.92188,4.95313 C5.59896,5.31771 5.4375,5.94271 5.4375,6.82813 L5.4375,10 L4.95313,10 L4.95313,3.98438 L5.4375,3.98438 L5.4375,5.10938 C5.60417,4.78646 5.83333,4.51563 6.125,4.29688 C6.52083,3.99479 6.98958,3.84375 7.53125,3.84375 C7.67708,3.84375 7.80208,3.84896 7.90625,3.85938 C8.01042,3.85938 8.11458,3.86979 8.21875,3.89063 L8.21875,4.40625 M12.8125,5.01563 C12.4583,4.52604 11.974,4.28125 11.3594,4.28125 C10.7448,4.28125 10.2604,4.52604 9.90625,5.01563 C9.55208,5.49479 9.375,6.15104 9.375,6.98438 C9.375,7.83854 9.55208,8.51042 9.90625,9 C10.2604,9.48958 10.7448,9.73438 11.3594,9.73438 C11.974,9.73438 12.4583,9.48958 12.8125,9 C13.1667,8.5 13.3438,7.82813 13.3438,6.98438 C13.3438,6.16146 13.1667,5.50521 12.8125,5.01563 M11.3594,3.84375 C12.1198,3.84375 12.724,4.13021 13.1719,4.70313 C13.6198,5.27604 13.8438,6.03646 13.8438,6.98438 C13.8438,7.97396 13.6198,8.75521 13.1719,9.32813 C12.724,9.90104 12.1198,10.1875 11.3594,10.1875 C10.5781,10.1875 9.96354,9.90104 9.51563,9.32813 C9.07813,8.75521 8.85938,7.97396 8.85938,6.98438 C8.85938,6.02604 9.08333,5.26302 9.53125,4.69531 C9.97917,4.1276 10.5885,3.84375 11.3594,3.84375 M19.3594,4.15625 L19.3594,4.70313 C19.0052,4.50521 18.7865,4.39583 18.7031,4.375 C18.4531,4.32292 18.1406,4.29167 17.7656,4.28125 C17.2031,4.28125 16.7604,4.39063 16.4375,4.60938 C16.1875,4.79688 16.0625,5.11458 16.0625,5.5625 C16.0625,5.875 16.1823,6.11458 16.4219,6.28125 C16.6615,6.46875 17.0104,6.61458 17.4688,6.71875 L17.8125,6.78125 C18.3854,6.90625 18.8177,7.08333 19.1094,7.3125 C19.4531,7.58333 19.6302,7.92708 19.6406,8.34375 C19.6406,8.90625 19.474,9.34896 19.1406,9.67188 C18.7865,9.99479 18.2083,10.1563 17.4063,10.1563 C16.9688,10.1563 16.6354,10.125 16.4063,10.0625 C16.125,9.98958 15.8333,9.89583 15.5313,9.78125 L15.5313,9.15625 C15.9688,9.40625 16.25,9.55208 16.375,9.59375 C16.7292,9.6875 17.0833,9.73438 17.4375,9.73438 C18.0104,9.73438 18.4375,9.61458 18.7188,9.375 C19,9.125 19.1406,8.80729 19.1406,8.42188 C19.1406,8.08854 19.0469,7.84896 18.8594,7.70313 C18.5885,7.48438 18.1615,7.30729 17.5781,7.17188 L17.2344,7.09375 C16.724,6.96875 16.3385,6.80208 16.0781,6.59375 C15.7448,6.32292 15.5781,5.99479 15.5781,5.60938 C15.5781,4.98438 15.7786,4.53385 16.1797,4.25781 C16.5807,3.98177 17.0729,3.84375 17.6563,3.84375 C18.1563,3.84375 18.5,3.86979 18.6875,3.92188 C18.9167,3.98438 19.1406,4.0625 19.3594,4.15625 M24.0781,6.60938 C23.276,6.60938 22.7005,6.75 22.3516,7.03125 C22.0026,7.3125 21.8281,7.72396 21.8281,8.26563 C21.8281,8.79688 21.974,9.17448 22.2656,9.39844 C22.5573,9.6224 22.901,9.73438 23.2969,9.73438 C24.0469,9.73438 24.5885,9.41667 24.9219,8.78125 C25.2552,8.13542 25.4219,7.53125 25.4219,6.96875 L25.4219,6.60938 L24.0781,6.60938 M25.9219,6.5625 L25.9219,10 L25.4219,10 L25.4219,8.35938 C25.151,9.16146 24.7865,9.67188 24.3281,9.89063 C23.974,10.0677 23.6146,10.1563 23.25,10.1563 C22.6563,10.1563 22.1875,9.99479 21.8438,9.67188 C21.5,9.34896 21.3281,8.8776 21.3281,8.25781 C21.3281,7.63802 21.5521,7.14063 22,6.76563 C22.4479,6.39063 23.1771,6.20313 24.1875,6.20313 L25.4219,6.20313 L25.4219,6.10938 C25.4219,5.57813 25.2656,5.14063 24.9531,4.79688 C24.6615,4.45313 24.1667,4.28125 23.4688,4.28125 C23.125,4.28125 22.776,4.34375 22.4219,4.46875 C22.1927,4.55208 21.8906,4.71875 21.5156,4.96875 L21.5156,4.4375 C21.8385,4.23958 22.1406,4.09896 22.4219,4.01563 C22.8177,3.90104 23.1979,3.84375 23.5625,3.84375 C24.2813,3.84375 24.8698,4.05729 25.3281,4.48438 C25.724,4.84896 25.9219,5.54167 25.9219,6.5625 M28.8906,8.64063 L28.8906,12.2813 L28.4063,12.2813 L28.4063,3.98438 L28.8906,3.98438 L28.8906,5.35938 C29.1198,4.83854 29.3646,4.47917 29.625,4.28125 C30.0313,3.98958 30.4167,3.84375 30.7813,3.84375 C31.4896,3.84375 32.0807,4.13281 32.5547,4.71094 C33.0286,5.28906 33.2656,6.05208 33.2656,7 C33.2656,7.94792 33.0286,8.71094 32.5547,9.28906 C32.0807,9.86719 31.4896,10.1563 30.7813,10.1563 C30.4167,10.1563 30.0313,10.0052 29.625,9.70313 C29.3646,9.51563 29.1198,9.16146 28.8906,8.64063 M32.125,9.09375 C32.5417,8.67708 32.75,7.97917 32.75,7 C32.75,6.02083 32.5417,5.32292 32.125,4.90625 C31.7083,4.48958 31.2708,4.28125 30.8125,4.28125 C30.3646,4.28125 29.9323,4.48958 29.5156,4.90625 C29.1094,5.32292 28.9063,6.02083 28.9063,7 C28.9063,7.97917 29.1094,8.67708 29.5156,9.09375 C29.9323,9.51042 30.3646,9.71875 30.8125,9.71875 C31.2708,9.71875 31.7083,9.51042 32.125,9.09375 M35.3594,3.98438 L35.8594,3.98438 L35.8594,10 L35.3594,10 L35.3594,3.98438 M35.3594,1.64063 L35.8594,1.64063 L35.8594,2.3125 L35.3594,2.3125 L35.3594,1.64063"/>
</g>

<g fill="none" stroke="#000000" stroke-opacity="1" stroke-width="1" stroke-linecap="square" stroke-linejoin="bevel" transform="matrix(2,0,0,2,241,23)"
font-family="sans" font-size="11" font-weight="100" font-style="normal" 
>
</g>

<g fill="none" stroke="#000000" stroke-opacity="1" stroke-width="1" stroke-linecap="square" stroke-linejoin="bevel" transform="matrix(2,0,0,2,241,23)"
font-family="Ubuntu" font-size="11" font-weight="400" font-style="normal" 
>
</g>

<g fill="none" stroke="#000000" stroke-opacity="1" stroke-width="1" stroke-linecap="square" stroke-linejoin="bevel" transform="matrix(2,0,0,2,-0.008,288)"
font-family="Ubuntu" font-size="11" font-weight="400" font-style="normal" 
>
</g>

<g fill="none" stroke="#000000" stroke-opacity="1" stroke-width="1" stroke-linecap="square" stroke-linejoin="bevel" transform="matrix(2,0,0,2,-0.008,288)"
font-family="Ubuntu" font-size="11" font-weight="400" font-style="normal" 
>
</g>

<g fill="none" stroke="#000000" stroke-opacity="1" stroke-width="1" stroke-linecap="square" stroke-linejoin="bevel" transform="matrix(2,0,0,2,-0.008,288)"
font-family="Ubuntu" font-size="11" font-weight="400" font-style="normal" 
>
</g>

<g fill="none" stroke="#000000" stroke-opacity="1" stroke-width="1" stroke-linecap="square" stroke-linejoin="round" transform="matrix(2,0,0,2,-0.008,288)"
font-family="Ubuntu" font-size="11" font-weight="400" font-style="normal" 
>
<ellipse cx="139.09" cy="-18" rx="138.586" ry="17.5"/>
</g>

<g fill="none" stroke="#000000" stroke-opacity="1" stroke-width="1" stroke-linecap="square" stroke-linejoin="bevel" transform="matrix(2,0,0,2,-0.008,288)"
font-family="Ubuntu" font-size="11" font-weight="400" font-style="normal" 
>
</g>

<g fill="none" stroke="#000000" stroke-opacity="1" stroke-width="1" stroke-linecap="square" stroke-linejoin="bevel" transform="matrix(2,0,0,2,78.6095,239)"
font-family="Ubuntu" font-size="11" font-weight="400" font-style="normal" 
>
</g>

<g fill="none" stroke="#000000" stroke-opacity="1" stroke-width="1" stroke-linecap="square" stroke-linejoin="bevel" transform="matrix(2,0,0,2,78.6095,239)"
font-family="sans" font-size="11" font-weight="100" font-style="normal" 
>
</g>

<g fill="#000000" fill-opacity="1" stroke="#000000" stroke-opacity="1" stroke-width="1" stroke-linecap="square" stroke-linejoin="round" transform="matrix(2,0,0,2,78.6095,239)"
font-family="sans" font-size="11" font-weight="100" font-style="normal" 
>
<path vector-effect="none" fill-rule="nonzero" d="M2.96875,1.98438 L3.53125,1.98438 L0.734375,11.0156 L0.171875,11.0156 L2.96875,1.98438 M9.0625,4.28125 L9.0625,4.79688 C8.77083,4.61979 8.52604,4.5 8.32813,4.4375 C7.99479,4.33333 7.67708,4.28125 7.375,4.28125 C6.51042,4.28125 5.89063,4.5026 5.51563,4.94531 C5.14063,5.38802 4.95313,6.07292 4.95313,7 C4.95313,7.9375 5.14063,8.6276 5.51563,9.07031 C5.89063,9.51302 6.51042,9.73438 7.375,9.73438 C7.66667,9.73438 7.94792,9.69271 8.21875,9.60938 C8.51042,9.53646 8.79167,9.42188 9.0625,9.26563 L9.0625,9.76563 C8.79167,9.90104 8.51042,10 8.21875,10.0625 C7.91667,10.125 7.61979,10.1563 7.32813,10.1563 C6.45313,10.1563 5.75521,9.91667 5.23438,9.4375 C4.71354,8.95833 4.45313,8.14323 4.45313,6.99219 C4.45313,5.84115 4.71354,5.02604 5.23438,4.54688 C5.75521,4.07813 6.45313,3.84375 7.32813,3.84375 C7.61979,3.84375 7.92708,3.88542 8.25,3.96875 C8.57292,4.04167 8.84375,4.14583 9.0625,4.28125 M14.5781,5.01563 C14.224,4.52604 13.7396,4.28125 13.125,4.28125 C12.5104,4.28125 12.026,4.52604 11.6719,5.01563 C11.3177,5.49479 11.1406,6.15104 11.1406,6.98438 C11.1406,7.83854 11.3177,8.51042 11.6719,9 C12.026,9.48958 12.5104,9.73438 13.125,9.73438 C13.7396,9.73438 14.224,9.48958 14.5781,9 C14.9323,8.5 15.1094,7.82813 15.1094,6.98438 C15.1094,6.16146 14.9323,5.50521 14.5781,5.01563 M13.125,3.84375 C13.8854,3.84375 14.4896,4.13021 14.9375,4.70313 C15.3854,5.27604 15.6094,6.03646 15.6094,6.98438 C15.6094,7.97396 15.3854,8.75521 14.9375,9.32813 C14.4896,9.90104 13.8854,10.1875 13.125,10.1875 C12.3438,10.1875 11.7292,9.90104 11.2813,9.32813 C10.8438,8.75521 10.625,7.97396 10.625,6.98438 C10.625,6.02604 10.849,5.26302 11.2969,4.69531 C11.7448,4.1276 12.3542,3.84375 13.125,3.84375 M22.0469,5.29688 C22.2344,4.80729 22.526,4.44271 22.9219,4.20313 C23.3073,3.96354 23.7604,3.84375 24.2813,3.84375 C24.8021,3.84375 25.2188,4.02604 25.5313,4.39063 C25.8542,4.75521 26.0156,5.41667 26.0156,6.375 L26.0156,10 L25.5313,10 L25.5313,6.40625 C25.5313,5.57292 25.4167,5.01042 25.1875,4.71875 C24.9583,4.42708 24.651,4.28125 24.2656,4.28125 C23.7135,4.28125 23.2292,4.44792 22.8125,4.78125 C22.3438,5.15625 22.1094,5.76042 22.1094,6.59375 L22.1094,10 L21.625,10 L21.625,6.40625 C21.625,5.60417 21.513,5.04948 21.2891,4.74219 C21.0651,4.4349 20.7552,4.28125 20.3594,4.28125 C19.8073,4.28125 19.3229,4.45313 18.9063,4.79688 C18.4375,5.16146 18.2031,5.76042 18.2031,6.59375 L18.2031,10 L17.7188,10 L17.7188,3.98438 L18.2031,3.98438 L18.2031,5.10938 C18.3802,4.71354 18.6563,4.40104 19.0313,4.17188 C19.3958,3.95313 19.849,3.84375 20.3906,3.84375 C20.7448,3.84375 21.0833,3.95833 21.4063,4.1875 C21.6563,4.375 21.8698,4.74479 22.0469,5.29688 M32.75,5.29688 C32.9375,4.80729 33.2292,4.44271 33.625,4.20313 C34.0104,3.96354 34.4635,3.84375 34.9844,3.84375 C35.5052,3.84375 35.9219,4.02604 36.2344,4.39063 C36.5573,4.75521 36.7188,5.41667 36.7188,6.375 L36.7188,10 L36.2344,10 L36.2344,6.40625 C36.2344,5.57292 36.1198,5.01042 35.8906,4.71875 C35.6615,4.42708 35.3542,4.28125 34.9688,4.28125 C34.4167,4.28125 33.9323,4.44792 33.5156,4.78125 C33.0469,5.15625 32.8125,5.76042 32.8125,6.59375 L32.8125,10 L32.3281,10 L32.3281,6.40625 C32.3281,5.60417 32.2161,5.04948 31.9922,4.74219 C31.7682,4.4349 31.4583,4.28125 31.0625,4.28125 C30.5104,4.28125 30.026,4.45313 29.6094,4.79688 C29.1406,5.16146 28.9063,5.76042 28.9063,6.59375 L28.9063,10 L28.4219,10 L28.4219,3.98438 L28.9063,3.98438 L28.9063,5.10938 C29.0833,4.71354 29.3594,4.40104 29.7344,4.17188 C30.099,3.95313 30.5521,3.84375 31.0938,3.84375 C31.4479,3.84375 31.7865,3.95833 32.1094,4.1875 C32.3594,4.375 32.5729,4.74479 32.75,5.29688 M41.5313,6.60938 C40.7292,6.60938 40.1536,6.75 39.8047,7.03125 C39.4557,7.3125 39.2813,7.72396 39.2813,8.26563 C39.2813,8.79688 39.4271,9.17448 39.7188,9.39844 C40.0104,9.6224 40.3542,9.73438 40.75,9.73438 C41.5,9.73438 42.0417,9.41667 42.375,8.78125 C42.7083,8.13542 42.875,7.53125 42.875,6.96875 L42.875,6.60938 L41.5313,6.60938 M43.375,6.5625 L43.375,10 L42.875,10 L42.875,8.35938 C42.6042,9.16146 42.2396,9.67188 41.7813,9.89063 C41.4271,10.0677 41.0677,10.1563 40.7031,10.1563 C40.1094,10.1563 39.6406,9.99479 39.2969,9.67188 C38.9531,9.34896 38.7813,8.8776 38.7813,8.25781 C38.7813,7.63802 39.0052,7.14063 39.4531,6.76563 C39.901,6.39063 40.6302,6.20313 41.6406,6.20313 L42.875,6.20313 L42.875,6.10938 C42.875,5.57813 42.7188,5.14063 42.4063,4.79688 C42.1146,4.45313 41.6198,4.28125 40.9219,4.28125 C40.5781,4.28125 40.2292,4.34375 39.875,4.46875 C39.6458,4.55208 39.3438,4.71875 38.9688,4.96875 L38.9688,4.4375 C39.2917,4.23958 39.5938,4.09896 39.875,4.01563 C40.2708,3.90104 40.651,3.84375 41.0156,3.84375 C41.7344,3.84375 42.3229,4.05729 42.7813,4.48438 C43.1771,4.84896 43.375,5.54167 43.375,6.5625 M50.4063,6.375 L50.4063,10 L49.9063,10 L49.9063,6.40625 C49.9063,5.625 49.7813,5.07552 49.5313,4.75781 C49.2813,4.4401 48.9115,4.28125 48.4219,4.28125 C47.849,4.28125 47.3646,4.45313 46.9688,4.79688 C46.5521,5.14063 46.3438,5.73958 46.3438,6.59375 L46.3438,10 L45.8594,10 L45.8594,3.98438 L46.3438,3.98438 L46.3438,5.10938 C46.5208,4.74479 46.7552,4.46875 47.0469,4.28125 C47.4635,3.98958 47.9271,3.84375 48.4375,3.84375 C49.0417,3.84375 49.5208,4.04688 49.875,4.45313 C50.2292,4.84896 50.4063,5.48958 50.4063,6.375 M56.8281,5.35938 L56.8281,1.64063 L57.2969,1.64063 L57.2969,10 L56.8281,10 L56.8281,8.64063 C56.599,9.16146 56.349,9.51563 56.0781,9.70313 C55.6823,10.0052 55.3021,10.1563 54.9375,10.1563 C54.2292,10.1563 53.638,9.86719 53.1641,9.28906 C52.6901,8.71094 52.4531,7.94792 52.4531,7 C52.4531,6.05208 52.6901,5.28906 53.1641,4.71094 C53.638,4.13281 54.2292,3.84375 54.9375,3.84375 C55.3021,3.84375 55.6823,3.98958 56.0781,4.28125 C56.349,4.47917 56.599,4.83854 56.8281,5.35938 M53.5938,4.90625 C53.1771,5.32292 52.9688,6.02083 52.9688,7 C52.9688,7.97917 53.1771,8.67708 53.5938,9.09375 C54.0104,9.51042 54.4479,9.71875 54.9063,9.71875 C55.3542,9.71875 55.7865,9.51042 56.2031,9.09375 C56.6094,8.67708 56.8125,7.97917 56.8125,7 C56.8125,6.02083 56.6094,5.32292 56.2031,4.90625 C55.7865,4.48958 55.3542,4.28125 54.9063,4.28125 C54.4479,4.28125 54.0104,4.48958 53.5938,4.90625 M64.4844,6.75 L64.4844,7.0625 L59.9219,7.0625 C59.9219,8.02083 60.1094,8.69792 60.4844,9.09375 C60.901,9.52083 61.5156,9.73438 62.3281,9.73438 C62.5469,9.73438 62.8333,9.6875 63.1875,9.59375 C63.5417,9.5 63.8958,9.35938 64.25,9.17188 L64.25,9.6875 C63.8958,9.84375 63.5339,9.96094 63.1641,10.0391 C62.7943,10.1172 62.5,10.1563 62.2813,10.1563 C61.3542,10.1563 60.6563,9.90625 60.1875,9.40625 C59.6771,8.875 59.4219,8.09375 59.4219,7.0625 C59.4219,5.98958 59.651,5.1875 60.1094,4.65625 C60.5885,4.11458 61.2552,3.84375 62.1094,3.84375 C62.8906,3.84375 63.4844,4.10417 63.8906,4.625 C64.2865,5.16667 64.4844,5.875 64.4844,6.75 M63.9844,6.64063 C63.9844,5.79688 63.7917,5.18229 63.4063,4.79688 C63.0938,4.45313 62.6615,4.28125 62.1094,4.28125 C61.5156,4.28125 61.0156,4.45833 60.6094,4.8125 C60.2344,5.14583 60.0104,5.75521 59.9375,6.64063 L63.9844,6.64063 M69.8281,4.40625 C69.7448,4.36458 69.6354,4.33333 69.5,4.3125 C69.375,4.29167 69.224,4.28125 69.0469,4.28125 C68.4323,4.28125 67.9271,4.50521 67.5313,4.95313 C67.2083,5.31771 67.0469,5.94271 67.0469,6.82813 L67.0469,10 L66.5625,10 L66.5625,3.98438 L67.0469,3.98438 L67.0469,5.10938 C67.2135,4.78646 67.4427,4.51563 67.7344,4.29688 C68.1302,3.99479 68.599,3.84375 69.1406,3.84375 C69.2865,3.84375 69.4115,3.84896 69.5156,3.85938 C69.6198,3.85938 69.724,3.86979 69.8281,3.89063 L69.8281,4.40625 M75.4375,12.1719 L75.4375,12.5938 L69.7188,12.5938 L69.7188,12.1719 L75.4375,12.1719 M76.9688,9.5625 L78.7344,9.5625 L78.7344,2.46875 L76.5313,3.35938 L76.5313,2.85938 L78.7188,1.98438 L79.2656,1.98438 L79.2656,9.5625 L81.0469,9.5625 L81.0469,10 L76.9688,10 L76.9688,9.5625 M86.7344,2.28125 L83.4063,7.4375 L86.7344,7.4375 L86.7344,2.28125 M86.3125,1.98438 L87.2813,1.98438 L87.2813,7.4375 L88.4375,7.4375 L88.4375,7.875 L87.2813,7.875 L87.2813,10 L86.7344,10 L86.7344,7.875 L82.8438,7.875 L82.8438,7.3125 L86.3125,1.98438 M90.9375,9.5625 L92.7031,9.5625 L92.7031,2.46875 L90.5,3.35938 L90.5,2.85938 L92.6875,1.98438 L93.2344,1.98438 L93.2344,9.5625 L95.0156,9.5625 L95.0156,10 L90.9375,10 L90.9375,9.5625 M99.75,2.28125 C99.0938,2.28125 98.6042,2.59896 98.2813,3.23438 C97.9688,3.86979 97.8125,4.78906 97.8125,5.99219 C97.8125,7.19531 97.9688,8.11979 98.2813,8.76563 C98.6042,9.40104 99.0938,9.71875 99.75,9.71875 C100.427,9.71875 100.922,9.40104 101.234,8.76563 C101.557,8.11979 101.719,7.19531 101.719,5.99219 C101.719,4.78906 101.557,3.86979 101.234,3.23438 C100.922,2.59896 100.427,2.28125 99.75,2.28125 M99.75,1.82813 C100.521,1.82813 101.13,2.14583 101.578,2.78125 C102.036,3.41667 102.266,4.48958 102.266,6 C102.266,7.51042 102.036,8.58333 101.578,9.21875 C101.13,9.84375 100.521,10.1563 99.75,10.1563 C99,10.1563 98.3958,9.84375 97.9375,9.21875 C97.4896,8.58333 97.2656,7.51042 97.2656,6 C97.2656,4.48958 97.4896,3.41667 97.9375,2.78125 C98.3958,2.14583 99,1.82813 99.75,1.82813 M108.875,12.1719 L108.875,12.5938 L103.156,12.5938 L103.156,12.1719 L108.875,12.1719 M110.406,9.5625 L112.172,9.5625 L112.172,2.46875 L109.969,3.35938 L109.969,2.85938 L112.156,1.98438 L112.703,1.98438 L112.703,9.5625 L114.484,9.5625 L114.484,10 L110.406,10 L110.406,9.5625 M117.156,1.98438 L120.953,1.98438 L120.953,2.42188 L117.688,2.42188 L117.688,5.10938 C117.854,5.04688 118.016,5 118.172,4.96875 C118.328,4.9375 118.557,4.92188 118.859,4.92188 C119.682,4.92188 120.333,5.15104 120.813,5.60938 C121.292,6.05729 121.531,6.66146 121.531,7.42188 C121.531,8.28646 121.281,8.95833 120.781,9.4375 C120.292,9.91667 119.599,10.1563 118.703,10.1563 C118.411,10.1563 118.109,10.1302 117.797,10.0781 C117.484,10.026 117.161,9.95313 116.828,9.85938 L116.828,9.3125 C117.109,9.4375 117.401,9.53646 117.703,9.60938 C118.005,9.67188 118.323,9.70313 118.656,9.70313 C119.365,9.70313 119.932,9.5 120.359,9.09375 C120.786,8.6875 121,8.13021 121,7.42188 C121,6.78646 120.792,6.28646 120.375,5.92188 C119.958,5.54688 119.396,5.35938 118.688,5.35938 C118.542,5.35938 118.323,5.40104 118.031,5.48438 C117.75,5.55729 117.458,5.67708 117.156,5.84375 L117.156,1.98438 M124.219,9.82813 L124.219,9.26563 C124.469,9.41146 124.719,9.52604 124.969,9.60938 C125.219,9.68229 125.469,9.71875 125.719,9.71875 C126.781,9.71875 127.526,9.19792 127.953,8.15625 C128.151,7.67708 128.24,6.86979 128.219,5.73438 C128.042,6.13021 127.813,6.4375 127.531,6.65625 C127.167,6.94792 126.708,7.09375 126.156,7.09375 C125.479,7.09375 124.917,6.85417 124.469,6.375 C124.021,5.90625 123.797,5.30208 123.797,4.5625 C123.797,3.73958 124.016,3.07813 124.453,2.57813 C124.901,2.07813 125.474,1.82813 126.172,1.82813 C127.016,1.82813 127.661,2.1875 128.109,2.90625 C128.557,3.61458 128.781,4.64583 128.781,6 C128.781,7.4375 128.505,8.48958 127.953,9.15625 C127.411,9.82292 126.677,10.1563 125.75,10.1563 C125.5,10.1563 125.25,10.1302 125,10.0781 C124.75,10.026 124.49,9.94271 124.219,9.82813 M124.859,6.05469 C125.193,6.44531 125.643,6.64063 126.211,6.64063 C126.779,6.64063 127.229,6.44531 127.563,6.05469 C127.896,5.66406 128.063,5.13021 128.063,4.45313 C128.063,3.77604 127.896,3.24219 127.563,2.85156 C127.229,2.46094 126.779,2.26563 126.211,2.26563 C125.643,2.26563 125.193,2.46094 124.859,2.85156 C124.526,3.24219 124.359,3.77604 124.359,4.45313 C124.359,5.13021 124.526,5.66406 124.859,6.05469 M130.625,1.98438 L135.5,1.98438 L135.5,2.4375 L132.594,10 L132.016,10 L134.938,2.42188 L130.625,2.42188 L130.625,1.98438 M141.125,2.28125 L137.797,7.4375 L141.125,7.4375 L141.125,2.28125 M140.703,1.98438 L141.672,1.98438 L141.672,7.4375 L142.828,7.4375 L142.828,7.875 L141.672,7.875 L141.672,10 L141.125,10 L141.125,7.875 L137.234,7.875 L137.234,7.3125 L140.703,1.98438 M144.594,1.98438 L149.469,1.98438 L149.469,2.4375 L146.563,10 L145.984,10 L148.906,2.42188 L144.594,2.42188 L144.594,1.98438 M155.141,5.67188 C155.568,5.77604 155.906,6.01042 156.156,6.375 C156.396,6.71875 156.516,7.15104 156.516,7.67188 C156.516,8.46354 156.289,9.07552 155.836,9.50781 C155.383,9.9401 154.656,10.1563 153.656,10.1563 C153.313,10.1563 152.964,10.1042 152.609,10 C152.255,9.89583 151.891,9.72917 151.516,9.5 L151.516,8.92188 C151.818,9.18229 152.146,9.38021 152.5,9.51563 C152.854,9.65104 153.219,9.71875 153.594,9.71875 C154.365,9.71875 154.953,9.54167 155.359,9.1875 C155.766,8.84375 155.969,8.33854 155.969,7.67188 C155.969,7.13021 155.781,6.70313 155.406,6.39063 C155.031,6.08854 154.505,5.9375 153.828,5.9375 L152.891,5.9375 L152.891,5.48438 L153.875,5.48438 C154.49,5.48438 154.964,5.35938 155.297,5.10938 C155.62,4.85938 155.781,4.5 155.781,4.03125 C155.781,3.46875 155.615,3.03646 155.281,2.73438 C154.938,2.43229 154.453,2.28125 153.828,2.28125 C153.536,2.28125 153.219,2.33333 152.875,2.4375 C152.531,2.54167 152.156,2.70313 151.75,2.92188 L151.75,2.375 C152.167,2.19792 152.552,2.06771 152.906,1.98438 C153.271,1.89063 153.609,1.83854 153.922,1.82813 C154.745,1.82813 155.354,2.01563 155.75,2.39063 C156.135,2.76563 156.328,3.27604 156.328,3.92188 C156.328,4.33854 156.224,4.70833 156.016,5.03125 C155.818,5.34375 155.526,5.55729 155.141,5.67188 M162.125,5.67188 C162.552,5.77604 162.891,6.01042 163.141,6.375 C163.38,6.71875 163.5,7.15104 163.5,7.67188 C163.5,8.46354 163.273,9.07552 162.82,9.50781 C162.367,9.9401 161.641,10.1563 160.641,10.1563 C160.297,10.1563 159.948,10.1042 159.594,10 C159.24,9.89583 158.875,9.72917 158.5,9.5 L158.5,8.92188 C158.802,9.18229 159.13,9.38021 159.484,9.51563 C159.839,9.65104 160.203,9.71875 160.578,9.71875 C161.349,9.71875 161.938,9.54167 162.344,9.1875 C162.75,8.84375 162.953,8.33854 162.953,7.67188 C162.953,7.13021 162.766,6.70313 162.391,6.39063 C162.016,6.08854 161.49,5.9375 160.813,5.9375 L159.875,5.9375 L159.875,5.48438 L160.859,5.48438 C161.474,5.48438 161.948,5.35938 162.281,5.10938 C162.604,4.85938 162.766,4.5 162.766,4.03125 C162.766,3.46875 162.599,3.03646 162.266,2.73438 C161.922,2.43229 161.438,2.28125 160.813,2.28125 C160.521,2.28125 160.203,2.33333 159.859,2.4375 C159.516,2.54167 159.141,2.70313 158.734,2.92188 L158.734,2.375 C159.151,2.19792 159.536,2.06771 159.891,1.98438 C160.255,1.89063 160.594,1.83854 160.906,1.82813 C161.729,1.82813 162.339,2.01563 162.734,2.39063 C163.12,2.76563 163.313,3.27604 163.313,3.92188 C163.313,4.33854 163.208,4.70833 163,5.03125 C162.802,5.34375 162.51,5.55729 162.125,5.67188 M166.281,9.5625 L168.047,9.5625 L168.047,2.46875 L165.844,3.35938 L165.844,2.85938 L168.031,1.98438 L168.578,1.98438 L168.578,9.5625 L170.359,9.5625 L170.359,10 L166.281,10 L166.281,9.5625 M173.031,1.98438 L176.828,1.98438 L176.828,2.42188 L173.563,2.42188 L173.563,5.10938 C173.729,5.04688 173.891,5 174.047,4.96875 C174.203,4.9375 174.432,4.92188 174.734,4.92188 C175.557,4.92188 176.208,5.15104 176.688,5.60938 C177.167,6.05729 177.406,6.66146 177.406,7.42188 C177.406,8.28646 177.156,8.95833 176.656,9.4375 C176.167,9.91667 175.474,10.1563 174.578,10.1563 C174.286,10.1563 173.984,10.1302 173.672,10.0781 C173.359,10.026 173.036,9.95313 172.703,9.85938 L172.703,9.3125 C172.984,9.4375 173.276,9.53646 173.578,9.60938 C173.88,9.67188 174.198,9.70313 174.531,9.70313 C175.24,9.70313 175.807,9.5 176.234,9.09375 C176.661,8.6875 176.875,8.13021 176.875,7.42188 C176.875,6.78646 176.667,6.28646 176.25,5.92188 C175.833,5.54688 175.271,5.35938 174.563,5.35938 C174.417,5.35938 174.198,5.40104 173.906,5.48438 C173.625,5.55729 173.333,5.67708 173.031,5.84375 L173.031,1.98438 M179.516,1.98438 L184.391,1.98438 L184.391,2.4375 L181.484,10 L180.906,10 L183.828,2.42188 L179.516,2.42188 L179.516,1.98438 M186.5,1.98438 L191.375,1.98438 L191.375,2.4375 L188.469,10 L187.891,10 L190.813,2.42188 L186.5,2.42188 L186.5,1.98438 M197.563,5.92969 C197.229,5.53906 196.779,5.34375 196.211,5.34375 C195.643,5.34375 195.193,5.53906 194.859,5.92969 C194.526,6.32031 194.359,6.85417 194.359,7.53125 C194.359,8.20833 194.526,8.74219 194.859,9.13281 C195.193,9.52344 195.643,9.71875 196.211,9.71875 C196.779,9.71875 197.229,9.52344 197.563,9.13281 C197.896,8.74219 198.063,8.20833 198.063,7.53125 C198.063,6.85417 197.896,6.32031 197.563,5.92969 M198.219,2.15625 L198.219,2.73438 C197.969,2.57813 197.714,2.46354 197.453,2.39063 C197.203,2.30729 196.953,2.26563 196.703,2.26563 C195.641,2.26563 194.896,2.79167 194.469,3.84375 C194.271,4.3125 194.182,5.11979 194.203,6.26563 C194.38,5.86979 194.609,5.5625 194.891,5.34375 C195.255,5.05208 195.719,4.90625 196.281,4.90625 C196.948,4.90625 197.505,5.14063 197.953,5.60938 C198.401,6.08854 198.625,6.69271 198.625,7.42188 C198.625,8.24479 198.406,8.90625 197.969,9.40625 C197.531,9.90625 196.958,10.1563 196.25,10.1563 C195.406,10.1563 194.76,9.80208 194.313,9.09375 C193.865,8.375 193.641,7.34375 193.641,6 C193.641,4.5625 193.917,3.50521 194.469,2.82813 C195.01,2.16146 195.745,1.82813 196.672,1.82813 C196.922,1.82813 197.172,1.85938 197.422,1.92188 C197.672,1.97396 197.938,2.05208 198.219,2.15625 "/>
</g>

<g fill="none" stroke="#000000" stroke-opacity="1" stroke-width="1" stroke-linecap="square" stroke-linejoin="bevel" transform="matrix(2,0,0,2,78.6095,239)"
font-family="sans" font-size="11" font-weight="100" font-style="normal" 
>
</g>

<g fill="none" stroke="#000000" stroke-opacity="1" stroke-width="1" stroke-linecap="square" stroke-linejoin="bevel" transform="matrix(2,0,0,2,78.6095,239)"
font-family="Ubuntu" font-size="11" font-weight="400" font-style="normal" 
>
</g>

<g fill="none" stroke="#000000" stroke-opacity="1" stroke-width="1" stroke-linecap="square" stroke-linejoin="bevel" transform="matrix(2,0,0,2,-0.008,288)"
font-family="Ubuntu" font-size="11" font-weight="400" font-style="normal" 
>
</g>

<g fill="none" stroke="#000000" stroke-opacity="1" stroke-width="1" stroke-linecap="square" stroke-linejoin="bevel" transform="matrix(2,0,0,2,-0.008,288)"
font-family="Ubuntu" font-size="11" font-weight="400" font-style="normal" 
>
</g>

<g fill="none" stroke="#000000" stroke-opacity="1" stroke-width="1" stroke-linecap="square" stroke-linejoin="bevel" transform="matrix(2,0,0,2,-0.008,288)"
font-family="Ubuntu" font-size="11" font-weight="400" font-style="normal" 
>
</g>

<g fill="none" stroke="#000000" stroke-opacity="1" stroke-width="1" stroke-linecap="square" stroke-linejoin="round" transform="matrix(2,0,0,2,-0.008,288)"
font-family="Ubuntu" font-size="11" font-weight="400" font-style="normal" 
>
<path vector-effect="none" fill-rule="evenodd" d="M367.56,-45 C368.62,-45 369.69,-45 370.77,-45 "/>
</g>

<g fill="none" stroke="#000000" stroke-opacity="1" stroke-width="1" stroke-linecap="square" stroke-linejoin="bevel" transform="matrix(2,0,0,2,-0.008,288)"
font-family="Ubuntu" font-size="11" font-weight="400" font-style="normal" 
>
</g>

<g fill="none" stroke="#000000" stroke-opacity="1" stroke-width="1" stroke-linecap="square" stroke-linejoin="bevel" transform="matrix(2,0,0,2,-0.008,288)"
font-family="Ubuntu" font-size="11" font-weight="400" font-style="normal" 
>
</g>

<g fill="#000000" fill-opacity="1" stroke="#000000" stroke-opacity="1" stroke-width="1" stroke-linecap="square" stroke-linejoin="round" transform="matrix(2,0,0,2,-0.008,288)"
font-family="Ubuntu" font-size="11" font-weight="400" font-style="normal" 
>
<path vector-effect="none" fill-rule="evenodd" d="M370.77,-45 L370.77,-41.458 L380.89,-45 L370.77,-48.542 L370.77,-45"/>
</g>

<g fill="none" stroke="#000000" stroke-opacity="1" stroke-width="1" stroke-linecap="square" stroke-linejoin="bevel" transform="matrix(2,0,0,2,-0.008,288)"
font-family="Ubuntu" font-size="11" font-weight="400" font-style="normal" 
>
</g>

<g fill="none" stroke="#000000" stroke-opacity="1" stroke-width="1" stroke-linecap="square" stroke-linejoin="bevel" transform="matrix(2,0,0,2,-0.008,288)"
font-family="Ubuntu" font-size="11" font-weight="400" font-style="normal" 
>
</g>

<g fill="none" stroke="#000000" stroke-opacity="1" stroke-width="1" stroke-linecap="square" stroke-linejoin="bevel" transform="matrix(2,0,0,2,-0.008,288)"
font-family="Ubuntu" font-size="11" font-weight="400" font-style="normal" 
>
</g>

<g fill="none" stroke="#000000" stroke-opacity="1" stroke-width="1" stroke-linecap="square" stroke-linejoin="bevel" transform="matrix(2,0,0,2,-0.008,288)"
font-family="Ubuntu" font-size="11" font-weight="400" font-style="normal" 
>
</g>

<g fill="none" stroke="#000000" stroke-opacity="1" stroke-width="1" stroke-linecap="square" stroke-linejoin="round" transform="matrix(2,0,0,2,-0.008,288)"
font-family="Ubuntu" font-size="11" font-weight="400" font-style="normal" 
>
<path vector-effect="none" fill-rule="evenodd" d="M211.38,-61.792 C235.05,-58.404 260.77,-54.722 282.08,-51.671 "/>
</g>

<g fill="none" stroke="#000000" stroke-opacity="1" stroke-width="1" stroke-linecap="square" stroke-linejoin="bevel" transform="matrix(2,0,0,2,-0.008,288)"
font-family="Ubuntu" font-size="11" font-weight="400" font-style="normal" 
>
</g>

<g fill="none" stroke="#000000" stroke-opacity="1" stroke-width="1" stroke-linecap="square" stroke-linejoin="bevel" transform="matrix(2,0,0,2,-0.008,288)"
font-family="Ubuntu" font-size="11" font-weight="400" font-style="normal" 
>
</g>

<g fill="#000000" fill-opacity="1" stroke="#000000" stroke-opacity="1" stroke-width="1" stroke-linecap="square" stroke-linejoin="round" transform="matrix(2,0,0,2,-0.008,288)"
font-family="Ubuntu" font-size="11" font-weight="400" font-style="normal" 
>
<path vector-effect="none" fill-rule="evenodd" d="M282.08,-51.671 L281.575,-48.143 L292.16,-50.228 L282.585,-55.199 L282.08,-51.671"/>
</g>

<g fill="none" stroke="#000000" stroke-opacity="1" stroke-width="1" stroke-linecap="square" stroke-linejoin="bevel" transform="matrix(2,0,0,2,-0.008,288)"
font-family="Ubuntu" font-size="11" font-weight="400" font-style="normal" 
>
</g>

<g fill="none" stroke="#000000" stroke-opacity="1" stroke-width="1" stroke-linecap="square" stroke-linejoin="bevel" transform="matrix(2,0,0,2,-0.008,288)"
font-family="Ubuntu" font-size="11" font-weight="400" font-style="normal" 
>
</g>

<g fill="none" stroke="#000000" stroke-opacity="1" stroke-width="1" stroke-linecap="square" stroke-linejoin="bevel" transform="matrix(2,0,0,2,-0.008,288)"
font-family="Ubuntu" font-size="11" font-weight="400" font-style="normal" 
>
</g>

<g fill="none" stroke="#000000" stroke-opacity="1" stroke-width="1" stroke-linecap="square" stroke-linejoin="bevel" transform="matrix(2,0,0,2,-0.008,288)"
font-family="Ubuntu" font-size="11" font-weight="400" font-style="normal" 
>
</g>

<g fill="none" stroke="#000000" stroke-opacity="1" stroke-width="1" stroke-linecap="square" stroke-linejoin="round" transform="matrix(2,0,0,2,-0.008,288)"
font-family="Ubuntu" font-size="11" font-weight="400" font-style="normal" 
>
<path vector-effect="none" fill-rule="evenodd" d="M233,-31.302 C250.07,-33.746 267.21,-36.199 282.16,-38.34 "/>
</g>

<g fill="none" stroke="#000000" stroke-opacity="1" stroke-width="1" stroke-linecap="square" stroke-linejoin="bevel" transform="matrix(2,0,0,2,-0.008,288)"
font-family="Ubuntu" font-size="11" font-weight="400" font-style="normal" 
>
</g>

<g fill="none" stroke="#000000" stroke-opacity="1" stroke-width="1" stroke-linecap="square" stroke-linejoin="bevel" transform="matrix(2,0,0,2,-0.008,288)"
font-family="Ubuntu" font-size="11" font-weight="400" font-style="normal" 
>
</g>

<g fill="#000000" fill-opacity="1" stroke="#000000" stroke-opacity="1" stroke-width="1" stroke-linecap="square" stroke-linejoin="round" transform="matrix(2,0,0,2,-0.008,288)"
font-family="Ubuntu" font-size="11" font-weight="400" font-style="normal" 
>
<path vector-effect="none" fill-rule="evenodd" d="M282.16,-38.34 L282.66,-34.847 L292.14,-39.769 L281.66,-41.833 L282.16,-38.34"/>
</g>

<g fill="none" stroke="#000000" stroke-opacity="1" stroke-width="1" stroke-linecap="square" stroke-linejoin="bevel" transform="matrix(2,0,0,2,-0.008,288)"
font-family="Ubuntu" font-size="11" font-weight="400" font-style="normal" 
>
</g>

<g fill="none" stroke="#000000" stroke-opacity="1" stroke-width="1" stroke-linecap="square" stroke-linejoin="bevel" transform="matrix(1,0,0,1,0,0)"
font-family="Ubuntu" font-size="11" font-weight="400" font-style="normal" 
>
</g>
</g>
</svg>
